<?xml version="1.0" encoding="utf-8"?>
<!-- Generator: Adobe Illustrator 16.0.0, SVG Export Plug-In . SVG Version: 6.00 Build 0)  -->
<!DOCTYPE svg PUBLIC "-//W3C//DTD SVG 1.1//EN" "http://www.w3.org/Graphics/SVG/1.1/DTD/svg11.dtd">
<svg version="1.1" id="Layer_1" xmlns="http://www.w3.org/2000/svg" xmlns:xlink="http://www.w3.org/1999/xlink" x="0px" y="0px"
	 width="653.5px" height="100.25px" viewBox="-325.5 0 653.5 100.25" enable-background="new -325.5 0 653.5 100.25"
	 xml:space="preserve">
<rect x="-325" y="23.25" opacity="0.7" fill="#001F54" enable-background="new    " width="653" height="77"/>
<g enable-background="new    ">
	<path fill="#FFFFFF" d="M154.616,44.83c-0.546,0.195-1.625,0.518-2.899,0.518c-1.429,0-2.605-0.364-3.53-1.246
		c-0.812-0.784-1.316-2.045-1.316-3.516c0.014-2.816,1.947-4.875,5.113-4.875c1.092,0,1.947,0.238,2.353,0.435l-0.294,0.994
		c-0.504-0.225-1.135-0.406-2.087-0.406c-2.297,0-3.796,1.429-3.796,3.796c0,2.396,1.443,3.811,3.642,3.811
		c0.798,0,1.345-0.112,1.625-0.253v-2.815h-1.919v-0.98h3.11V44.83z"/>
	<path fill="#FFFFFF" d="M160.297,45.25l-0.098-0.854h-0.042c-0.378,0.532-1.107,1.009-2.073,1.009
		c-1.373,0-2.073-0.967-2.073-1.947c0-1.639,1.457-2.535,4.076-2.521v-0.14c0-0.561-0.154-1.569-1.541-1.569
		c-0.63,0-1.289,0.196-1.765,0.505l-0.28-0.813c0.561-0.364,1.373-0.603,2.227-0.603c2.073,0,2.578,1.415,2.578,2.773v2.535
		c0,0.589,0.028,1.163,0.112,1.625H160.297z M160.115,41.79c-1.345-0.028-2.871,0.21-2.871,1.527c0,0.798,0.532,1.176,1.163,1.176
		c0.882,0,1.442-0.56,1.639-1.134c0.042-0.127,0.07-0.267,0.07-0.393V41.79z"/>
	<path fill="#FFFFFF" d="M163.124,43.989c0.364,0.238,1.008,0.49,1.625,0.49c0.896,0,1.316-0.448,1.316-1.009
		c0-0.588-0.35-0.91-1.26-1.246c-1.219-0.435-1.793-1.106-1.793-1.919c0-1.093,0.883-1.989,2.339-1.989
		c0.687,0,1.289,0.196,1.667,0.42l-0.309,0.896c-0.266-0.168-0.756-0.392-1.387-0.392c-0.729,0-1.134,0.42-1.134,0.924
		c0,0.561,0.406,0.813,1.289,1.148c1.177,0.448,1.779,1.037,1.779,2.046c0,1.19-0.925,2.03-2.535,2.03
		c-0.743,0-1.429-0.182-1.905-0.462L163.124,43.989z"/>
	<path fill="#FFFFFF" d="M170.32,36.523v1.947h1.766v0.938h-1.766v3.655c0,0.841,0.238,1.317,0.924,1.317
		c0.322,0,0.561-0.042,0.715-0.084l0.057,0.924c-0.238,0.099-0.617,0.168-1.093,0.168c-0.575,0-1.036-0.182-1.331-0.518
		c-0.35-0.364-0.477-0.967-0.477-1.766v-3.697h-1.051v-0.938h1.051v-1.625L170.32,36.523z"/>
	<path fill="#FFFFFF" d="M173.469,40.586c0-0.799-0.014-1.485-0.056-2.115h1.079l0.041,1.33h0.057
		c0.309-0.91,1.051-1.484,1.877-1.484c0.141,0,0.238,0.014,0.351,0.042v1.162c-0.126-0.027-0.253-0.042-0.421-0.042
		c-0.868,0-1.484,0.659-1.652,1.583c-0.028,0.168-0.057,0.364-0.057,0.574v3.614h-1.219V40.586z"/>
	<path fill="#FFFFFF" d="M184.043,41.804c0,2.508-1.737,3.601-3.376,3.601c-1.835,0-3.25-1.345-3.25-3.488
		c0-2.27,1.485-3.6,3.362-3.6C182.727,38.316,184.043,39.731,184.043,41.804z M178.664,41.874c0,1.485,0.854,2.605,2.059,2.605
		c1.177,0,2.059-1.106,2.059-2.634c0-1.148-0.574-2.604-2.03-2.604C179.294,39.241,178.664,40.586,178.664,41.874z"/>
	<path fill="#FFFFFF" d="M191.435,38.471c-0.028,0.49-0.056,1.036-0.056,1.862v3.937c0,1.555-0.309,2.507-0.967,3.096
		c-0.658,0.616-1.611,0.813-2.465,0.813c-0.813,0-1.709-0.196-2.256-0.561L186,46.679c0.447,0.28,1.148,0.532,1.988,0.532
		c1.262,0,2.186-0.658,2.186-2.367v-0.757h-0.027c-0.379,0.631-1.107,1.135-2.158,1.135c-1.681,0-2.885-1.429-2.885-3.306
		c0-2.297,1.498-3.6,3.053-3.6c1.178,0,1.821,0.616,2.115,1.177h0.028l0.056-1.022H191.435z M190.16,41.146
		c0-0.21-0.014-0.392-0.07-0.56c-0.225-0.715-0.826-1.303-1.723-1.303c-1.177,0-2.018,0.994-2.018,2.563
		c0,1.331,0.672,2.438,2.004,2.438c0.756,0,1.441-0.476,1.708-1.261c0.07-0.21,0.099-0.448,0.099-0.658V41.146z"/>
	<path fill="#FFFFFF" d="M193.336,40.586c0-0.799-0.015-1.485-0.057-2.115h1.078l0.043,1.33h0.056
		c0.308-0.91,1.051-1.484,1.877-1.484c0.14,0,0.238,0.014,0.351,0.042v1.162c-0.127-0.027-0.252-0.042-0.42-0.042
		c-0.869,0-1.485,0.659-1.653,1.583c-0.028,0.168-0.056,0.364-0.056,0.574v3.614h-1.219V40.586z"/>
	<path fill="#FFFFFF" d="M201.598,45.25l-0.098-0.854h-0.043c-0.378,0.532-1.106,1.009-2.072,1.009
		c-1.373,0-2.074-0.967-2.074-1.947c0-1.639,1.457-2.535,4.076-2.521v-0.14c0-0.561-0.153-1.569-1.54-1.569
		c-0.63,0-1.289,0.196-1.765,0.505l-0.281-0.813c0.561-0.364,1.373-0.603,2.228-0.603c2.073,0,2.577,1.415,2.577,2.773v2.535
		c0,0.589,0.028,1.163,0.112,1.625H201.598z M201.415,41.79c-1.345-0.028-2.871,0.21-2.871,1.527c0,0.798,0.532,1.176,1.163,1.176
		c0.882,0,1.441-0.56,1.639-1.134c0.041-0.127,0.069-0.267,0.069-0.393V41.79z"/>
	<path fill="#FFFFFF" d="M204.592,40.684c0-0.868-0.028-1.569-0.057-2.213h1.107l0.056,1.162h0.028
		c0.504-0.826,1.303-1.316,2.408-1.316c1.64,0,2.872,1.387,2.872,3.445c0,2.438-1.485,3.643-3.081,3.643
		c-0.896,0-1.682-0.393-2.088-1.064h-0.027v3.684h-1.219V40.684z M205.811,42.49c0,0.183,0.027,0.351,0.056,0.505
		c0.224,0.854,0.966,1.442,1.849,1.442c1.303,0,2.06-1.064,2.06-2.619c0-1.359-0.715-2.521-2.017-2.521
		c-0.842,0-1.625,0.603-1.863,1.526c-0.043,0.154-0.084,0.337-0.084,0.505V42.49z"/>
	<path fill="#FFFFFF" d="M212.557,35.305h1.233v4.23h0.028c0.195-0.351,0.504-0.658,0.882-0.869c0.364-0.21,0.799-0.35,1.261-0.35
		c0.91,0,2.367,0.561,2.367,2.899v4.034h-1.232v-3.895c0-1.092-0.406-2.017-1.568-2.017c-0.799,0-1.43,0.561-1.653,1.232
		c-0.07,0.168-0.084,0.351-0.084,0.589v4.09h-1.233V35.305z"/>
	<path fill="#FFFFFF" d="M224.863,42.28l-0.98,2.97h-1.26l3.207-9.441h1.471l3.223,9.441h-1.303l-1.009-2.97H224.863z
		 M227.959,41.328l-0.924-2.718c-0.211-0.616-0.35-1.177-0.49-1.723h-0.028c-0.14,0.561-0.294,1.135-0.476,1.709l-0.925,2.731
		H227.959z"/>
	<path fill="#FFFFFF" d="M231.82,35.305h1.233v9.945h-1.233V35.305z"/>
	<path fill="#FFFFFF" d="M235.812,42.084c0.028,1.667,1.093,2.354,2.325,2.354c0.883,0,1.414-0.154,1.877-0.351l0.21,0.883
		c-0.435,0.196-1.177,0.42-2.255,0.42c-2.088,0-3.334-1.372-3.334-3.417c0-2.046,1.205-3.656,3.18-3.656
		c2.213,0,2.802,1.947,2.802,3.193c0,0.252-0.028,0.448-0.042,0.574H235.812z M239.426,41.202c0.014-0.785-0.322-2.003-1.709-2.003
		c-1.247,0-1.793,1.148-1.891,2.003H239.426z"/>
	<path fill="#FFFFFF" d="M242.139,40.586c0-0.799-0.014-1.485-0.057-2.115h1.079l0.042,1.33h0.057
		c0.308-0.91,1.051-1.484,1.877-1.484c0.14,0,0.238,0.014,0.35,0.042v1.162c-0.126-0.027-0.252-0.042-0.42-0.042
		c-0.869,0-1.484,0.659-1.652,1.583c-0.029,0.168-0.057,0.364-0.057,0.574v3.614h-1.219V40.586z"/>
	<path fill="#FFFFFF" d="M248.537,36.523v1.947h1.766v0.938h-1.766v3.655c0,0.841,0.238,1.317,0.924,1.317
		c0.322,0,0.561-0.042,0.715-0.084l0.057,0.924c-0.238,0.099-0.617,0.168-1.093,0.168c-0.575,0-1.036-0.182-1.331-0.518
		c-0.35-0.364-0.477-0.967-0.477-1.766v-3.697h-1.051v-0.938h1.051v-1.625L248.537,36.523z"/>
	<path fill="#FFFFFF" d="M251.519,43.989c0.364,0.238,1.009,0.49,1.625,0.49c0.896,0,1.316-0.448,1.316-1.009
		c0-0.588-0.351-0.91-1.261-1.246c-1.219-0.435-1.793-1.106-1.793-1.919c0-1.093,0.883-1.989,2.34-1.989
		c0.686,0,1.288,0.196,1.666,0.42l-0.308,0.896c-0.267-0.168-0.757-0.392-1.387-0.392c-0.729,0-1.135,0.42-1.135,0.924
		c0,0.561,0.406,0.813,1.288,1.148c1.178,0.448,1.779,1.037,1.779,2.046c0,1.19-0.924,2.03-2.535,2.03
		c-0.742,0-1.429-0.182-1.904-0.462L251.519,43.989z"/>
	<path fill="#FFFFFF" d="M259.162,45.811l3.908-10.155h0.952L260.1,45.811H259.162z"/>
	<path fill="#FFFFFF" d="M263.963,45.811l3.908-10.155h0.953l-3.922,10.155H263.963z"/>
	<path fill="#FFFFFF" d="M277.813,37.182h-3.475l-0.35,2.339c0.21-0.027,0.406-0.056,0.742-0.056c0.701,0,1.4,0.154,1.961,0.49
		c0.715,0.406,1.303,1.19,1.303,2.339c0,1.779-1.414,3.11-3.39,3.11c-0.995,0-1.835-0.28-2.269-0.561l0.308-0.938
		c0.378,0.224,1.12,0.504,1.947,0.504c1.163,0,2.157-0.756,2.157-1.975c-0.014-1.177-0.799-2.018-2.619-2.018
		c-0.52,0-0.925,0.057-1.262,0.099l0.589-4.37h4.356V37.182z"/>
	<path fill="#FFFFFF" d="M279.658,39.591c0-0.519,0.35-0.883,0.84-0.883s0.813,0.364,0.826,0.883c0,0.49-0.322,0.868-0.84,0.868
		C279.994,40.459,279.658,40.081,279.658,39.591z M279.658,44.535c0-0.518,0.35-0.882,0.84-0.882s0.813,0.364,0.826,0.882
		c0,0.49-0.322,0.869-0.84,0.869C279.994,45.404,279.658,45.025,279.658,44.535z"/>
	<path fill="#FFFFFF" d="M282.751,43.835c0.351,0.225,1.163,0.574,2.017,0.574c1.584,0,2.074-1.008,2.06-1.765
		c-0.014-1.274-1.163-1.821-2.353-1.821h-0.688v-0.924h0.688c0.896,0,2.031-0.463,2.031-1.541c0-0.729-0.463-1.373-1.598-1.373
		c-0.729,0-1.429,0.322-1.82,0.603l-0.322-0.896c0.476-0.351,1.4-0.7,2.381-0.7c1.793,0,2.605,1.064,2.605,2.171
		c0,0.938-0.561,1.737-1.682,2.144v0.027c1.121,0.225,2.031,1.064,2.031,2.34c0,1.456-1.135,2.731-3.319,2.731
		c-1.022,0-1.919-0.322-2.367-0.616L282.751,43.835z"/>
	<path fill="#FFFFFF" d="M295.69,40.6c0,3.096-1.148,4.805-3.165,4.805c-1.779,0-2.984-1.667-3.012-4.679
		c0-3.054,1.316-4.734,3.165-4.734C294.598,35.991,295.69,37.7,295.69,40.6z M290.746,40.739c0,2.367,0.729,3.712,1.849,3.712
		c1.261,0,1.862-1.471,1.862-3.796c0-2.241-0.574-3.712-1.848-3.712C291.53,36.943,290.746,38.26,290.746,40.739z"/>
	<path fill="#FFFFFF" d="M300.223,35.921c0.588-0.098,1.359-0.182,2.34-0.182c1.204,0,2.087,0.279,2.646,0.784
		c0.519,0.448,0.827,1.135,0.827,1.975c0,0.854-0.253,1.527-0.729,2.018c-0.645,0.687-1.694,1.036-2.886,1.036
		c-0.364,0-0.7-0.014-0.98-0.084v3.782h-1.219V35.921z M301.441,40.474c0.266,0.069,0.603,0.098,1.009,0.098
		c1.471,0,2.367-0.714,2.367-2.017c0-1.247-0.883-1.85-2.228-1.85c-0.532,0-0.938,0.042-1.148,0.099V40.474z"/>
	<path fill="#FFFFFF" d="M315.459,41.104c-0.07-1.316-0.154-2.899-0.14-4.076h-0.042c-0.322,1.106-0.715,2.283-1.191,3.586
		l-1.666,4.581h-0.925l-1.526-4.497c-0.449-1.33-0.826-2.549-1.093-3.67h-0.028c-0.027,1.177-0.098,2.76-0.182,4.175l-0.252,4.048
		h-1.163l0.658-9.441h1.555l1.611,4.566c0.392,1.163,0.714,2.199,0.952,3.18h0.042c0.238-0.952,0.575-1.988,0.995-3.18l1.681-4.566
		h1.555l0.589,9.441h-1.191L315.459,41.104z"/>
</g>
<path opacity="0.7" enable-background="new    " d="M79.25,12.25c0,5.247-5.745,9.5-12.833,9.5H-61.917
	c-7.088,0-12.833-4.253-12.833-9.5l0,0c0-5.247,5.745-9.5,12.833-9.5H66.417C73.505,2.75,79.25,7.003,79.25,12.25L79.25,12.25z"/>
<g enable-background="new    ">
	<path fill="#FFFFFF" d="M-61.537,7.309h5.085v1.022h-3.866v3.138h3.572v1.009h-3.572v4.272h-1.219V7.309z"/>
	<path fill="#FFFFFF" d="M-55.125,12.086c0-0.799-0.014-1.485-0.056-2.115h1.079l0.042,1.33h0.056
		c0.308-0.91,1.051-1.484,1.877-1.484c0.14,0,0.238,0.014,0.35,0.042v1.162c-0.126-0.027-0.252-0.042-0.42-0.042
		c-0.869,0-1.485,0.659-1.653,1.583c-0.028,0.168-0.056,0.364-0.056,0.574v3.614h-1.219V12.086z"/>
	<path fill="#FFFFFF" d="M-49.118,8.065c0.014,0.42-0.294,0.756-0.785,0.756c-0.434,0-0.742-0.336-0.742-0.756
		c0-0.435,0.322-0.771,0.77-0.771C-49.413,7.295-49.118,7.631-49.118,8.065z M-50.491,16.75V9.971h1.233v6.779H-50.491z"/>
	<path fill="#FFFFFF" d="M-41.359,6.805v8.194c0,0.603,0.014,1.289,0.056,1.751h-1.106l-0.056-1.177h-0.028
		c-0.378,0.757-1.205,1.331-2.312,1.331c-1.639,0-2.899-1.387-2.899-3.446c-0.014-2.255,1.387-3.642,3.04-3.642
		c1.037,0,1.737,0.49,2.045,1.036h0.028V6.805H-41.359z M-42.592,12.729c0-0.153-0.014-0.364-0.056-0.518
		c-0.182-0.785-0.854-1.429-1.779-1.429c-1.275,0-2.031,1.12-2.031,2.619c0,1.373,0.672,2.507,2.003,2.507
		c0.826,0,1.583-0.546,1.807-1.471c0.042-0.168,0.056-0.336,0.056-0.532V12.729z"/>
	<path fill="#FFFFFF" d="M-35.565,16.75l-0.098-0.854h-0.042c-0.378,0.532-1.107,1.009-2.073,1.009
		c-1.373,0-2.073-0.967-2.073-1.947c0-1.639,1.457-2.535,4.076-2.521v-0.14c0-0.561-0.154-1.569-1.541-1.569
		c-0.63,0-1.289,0.196-1.765,0.505l-0.28-0.813c0.561-0.364,1.373-0.603,2.227-0.603c2.073,0,2.578,1.415,2.578,2.773v2.535
		c0,0.589,0.028,1.163,0.112,1.625H-35.565z M-35.747,13.29c-1.345-0.028-2.872,0.21-2.872,1.527c0,0.798,0.532,1.176,1.163,1.176
		c0.882,0,1.442-0.56,1.639-1.134c0.042-0.127,0.07-0.267,0.07-0.393V13.29z"/>
	<path fill="#FFFFFF" d="M-32.235,9.971l1.485,4.006c0.154,0.448,0.322,0.98,0.434,1.387h0.028c0.126-0.406,0.266-0.925,0.434-1.415
		l1.345-3.978h1.303l-1.849,4.832c-0.882,2.325-1.485,3.516-2.325,4.244c-0.602,0.532-1.205,0.743-1.513,0.799l-0.308-1.036
		c0.308-0.099,0.714-0.295,1.079-0.603c0.336-0.267,0.756-0.742,1.037-1.373c0.056-0.126,0.098-0.224,0.098-0.294
		s-0.028-0.168-0.084-0.322l-2.507-6.247H-32.235z"/>
	<path fill="#FFFFFF" d="M-21.146,7.309h1.219v6.317c0,2.508-1.233,3.278-2.857,3.278c-0.448,0-0.995-0.099-1.303-0.225l0.182-0.994
		c0.252,0.098,0.616,0.182,1.022,0.182c1.092,0,1.737-0.49,1.737-2.339V7.309z"/>
	<path fill="#FFFFFF" d="M-12.268,14.901c0,0.7,0.014,1.316,0.056,1.849h-1.092l-0.07-1.106h-0.028
		c-0.322,0.546-1.037,1.261-2.241,1.261c-1.064,0-2.339-0.589-2.339-2.97V9.971h1.233v3.754c0,1.288,0.392,2.157,1.513,2.157
		c0.826,0,1.401-0.574,1.625-1.121c0.07-0.182,0.112-0.406,0.112-0.63v-4.16h1.233V14.901z"/>
	<path fill="#FFFFFF" d="M-10.228,11.806c0-0.701-0.014-1.275-0.056-1.835h1.093l0.07,1.12h0.028
		c0.336-0.645,1.121-1.274,2.241-1.274c0.938,0,2.395,0.561,2.395,2.886v4.048h-1.232v-3.908c0-1.093-0.406-2.003-1.569-2.003
		c-0.813,0-1.443,0.574-1.653,1.261c-0.056,0.154-0.084,0.364-0.084,0.574v4.076h-1.233V11.806z"/>
	<path fill="#FFFFFF" d="M-1.771,13.584c0.028,1.667,1.092,2.354,2.325,2.354c0.882,0,1.415-0.154,1.877-0.351l0.21,0.883
		c-0.434,0.196-1.176,0.42-2.255,0.42c-2.087,0-3.334-1.372-3.334-3.417c0-2.046,1.205-3.656,3.18-3.656
		c2.213,0,2.802,1.947,2.802,3.193c0,0.252-0.028,0.448-0.042,0.574H-1.771z M1.843,12.702c0.014-0.785-0.322-2.003-1.709-2.003
		c-1.247,0-1.793,1.148-1.891,2.003H1.843z"/>
	<path fill="#FFFFFF" d="M9.807,8.794H9.779L8.196,9.648L7.958,8.71l1.989-1.064h1.051v9.104H9.807V8.794z"/>
	<path fill="#FFFFFF" d="M14.314,16.75v-0.757l0.966-0.938c2.325-2.213,3.376-3.39,3.39-4.762c0-0.925-0.448-1.779-1.807-1.779
		c-0.826,0-1.513,0.42-1.933,0.771l-0.392-0.869c0.63-0.532,1.527-0.924,2.577-0.924c1.961,0,2.788,1.345,2.788,2.647
		c0,1.681-1.219,3.039-3.138,4.889l-0.728,0.672v0.028h4.09v1.022H14.314z"/>
	<path fill="#FFFFFF" d="M23.373,8.023v1.947h1.765v0.938h-1.765v3.655c0,0.841,0.238,1.317,0.924,1.317
		c0.322,0,0.561-0.042,0.715-0.084l0.056,0.924c-0.238,0.099-0.616,0.168-1.092,0.168c-0.575,0-1.037-0.182-1.331-0.518
		c-0.35-0.364-0.476-0.967-0.476-1.766v-3.697h-1.051V9.971h1.051V8.346L23.373,8.023z"/>
	<path fill="#FFFFFF" d="M26.521,6.805h1.233v4.23h0.028c0.196-0.351,0.504-0.658,0.882-0.869c0.364-0.21,0.799-0.35,1.261-0.35
		c0.911,0,2.367,0.561,2.367,2.899v4.034H31.06v-3.895c0-1.092-0.406-2.017-1.569-2.017c-0.798,0-1.429,0.561-1.653,1.232
		c-0.07,0.168-0.084,0.351-0.084,0.589v4.09h-1.233V6.805z"/>
	<path fill="#FFFFFF" d="M33.493,18.473c0.308-0.826,0.687-2.325,0.84-3.348l1.373-0.14c-0.322,1.19-0.938,2.745-1.331,3.403
		L33.493,18.473z"/>
	<path fill="#FFFFFF" d="M39.765,16.75v-0.757l0.966-0.938c2.325-2.213,3.376-3.39,3.39-4.762c0-0.925-0.448-1.779-1.807-1.779
		c-0.826,0-1.513,0.42-1.933,0.771l-0.392-0.869c0.63-0.532,1.527-0.924,2.577-0.924c1.961,0,2.788,1.345,2.788,2.647
		c0,1.681-1.219,3.039-3.138,4.889l-0.728,0.672v0.028h4.09v1.022H39.765z"/>
	<path fill="#FFFFFF" d="M52.998,12.1c0,3.096-1.148,4.805-3.166,4.805c-1.779,0-2.984-1.667-3.012-4.679
		c0-3.054,1.316-4.734,3.166-4.734C51.905,7.491,52.998,9.2,52.998,12.1z M48.053,12.239c0,2.367,0.729,3.712,1.849,3.712
		c1.261,0,1.863-1.471,1.863-3.796c0-2.241-0.574-3.712-1.849-3.712C48.838,8.443,48.053,9.76,48.053,12.239z"/>
	<path fill="#FFFFFF" d="M56.804,8.794h-0.028l-1.583,0.854L54.955,8.71l1.989-1.064h1.051v9.104h-1.191V8.794z"/>
	<path fill="#FFFFFF" d="M66.746,8.682h-3.474l-0.35,2.339c0.21-0.027,0.406-0.056,0.742-0.056c0.701,0,1.401,0.154,1.961,0.49
		c0.714,0.406,1.303,1.19,1.303,2.339c0,1.779-1.415,3.11-3.39,3.11c-0.995,0-1.835-0.28-2.269-0.561l0.308-0.938
		c0.378,0.224,1.121,0.504,1.947,0.504c1.163,0,2.157-0.756,2.157-1.975c-0.014-1.177-0.798-2.018-2.619-2.018
		c-0.519,0-0.925,0.057-1.261,0.099l0.588-4.37h4.356V8.682z"/>
</g>
<g>
	<path fill="#FFFFFF" d="M-301.98,79.125h-1.494v-6.047h-6.768v6.047h-1.494v-12.85h1.494v5.467h6.768v-5.467h1.494V79.125z"/>
	<path fill="#FFFFFF" d="M-292.752,79.125l-0.29-1.371h-0.07c-0.48,0.604-0.959,1.013-1.437,1.227
		c-0.478,0.213-1.074,0.32-1.789,0.32c-0.955,0-1.704-0.246-2.246-0.738s-0.813-1.192-0.813-2.101c0-1.945,1.556-2.965,4.667-3.059
		l1.635-0.053v-0.598c0-0.756-0.163-1.313-0.488-1.675c-0.325-0.359-0.845-0.54-1.56-0.54c-0.803,0-1.711,0.246-2.725,0.738
		l-0.448-1.116c0.475-0.258,0.995-0.46,1.56-0.606s1.132-0.22,1.701-0.22c1.148,0,2,0.255,2.553,0.765s0.831,1.327,0.831,2.452
		v6.574H-292.752z M-296.048,78.097c0.908,0,1.622-0.249,2.14-0.747s0.778-1.195,0.778-2.092v-0.87l-1.459,0.062
		c-1.16,0.041-1.997,0.221-2.509,0.541c-0.513,0.318-0.769,0.815-0.769,1.489c0,0.527,0.16,0.929,0.479,1.204
		S-296.622,78.097-296.048,78.097z"/>
	<path fill="#FFFFFF" d="M-284.183,79.301c-0.627,0-1.2-0.116-1.718-0.348c-0.519-0.23-0.954-0.587-1.305-1.067h-0.105
		c0.07,0.563,0.105,1.096,0.105,1.6v3.964h-1.459V69.492h1.187l0.202,1.318h0.07c0.375-0.527,0.812-0.908,1.31-1.143
		s1.069-0.352,1.714-0.352c1.277,0,2.263,0.437,2.958,1.31s1.042,2.098,1.042,3.674c0,1.582-0.353,2.812-1.059,3.687
		C-281.949,78.863-282.929,79.301-284.183,79.301z M-284.394,70.556c-0.984,0-1.696,0.272-2.136,0.817s-0.665,1.412-0.677,2.602
		V74.3c0,1.354,0.226,2.321,0.677,2.905c0.451,0.582,1.175,0.874,2.171,0.874c0.832,0,1.484-0.337,1.956-1.011
		s0.708-1.603,0.708-2.786c0-1.201-0.236-2.122-0.708-2.765C-282.875,70.877-283.538,70.556-284.394,70.556z"/>
	<path fill="#FFFFFF" d="M-273.152,79.301c-0.627,0-1.2-0.116-1.718-0.348c-0.519-0.23-0.954-0.587-1.305-1.067h-0.105
		c0.07,0.563,0.105,1.096,0.105,1.6v3.964h-1.459V69.492h1.187l0.202,1.318h0.07c0.375-0.527,0.812-0.908,1.31-1.143
		s1.069-0.352,1.714-0.352c1.277,0,2.263,0.437,2.958,1.31s1.042,2.098,1.042,3.674c0,1.582-0.353,2.812-1.059,3.687
		C-270.918,78.863-271.898,79.301-273.152,79.301z M-273.363,70.556c-0.984,0-1.696,0.272-2.136,0.817s-0.665,1.412-0.677,2.602
		V74.3c0,1.354,0.226,2.321,0.677,2.905c0.451,0.582,1.175,0.874,2.171,0.874c0.832,0,1.484-0.337,1.956-1.011
		s0.708-1.603,0.708-2.786c0-1.201-0.236-2.122-0.708-2.765C-271.844,70.877-272.508,70.556-273.363,70.556z"/>
	<path fill="#FFFFFF" d="M-268.134,69.492h1.564l2.109,5.493c0.463,1.254,0.75,2.159,0.861,2.716h0.07
		c0.076-0.299,0.236-0.811,0.479-1.533c0.243-0.725,1.039-2.949,2.386-6.676h1.564l-4.14,10.969
		c-0.41,1.084-0.889,1.853-1.437,2.307s-1.22,0.682-2.017,0.682c-0.445,0-0.885-0.05-1.318-0.149v-1.169
		c0.322,0.07,0.683,0.105,1.081,0.105c1.002,0,1.717-0.563,2.145-1.688l0.536-1.371L-268.134,69.492z"/>
	<path fill="#FFFFFF" d="M-251.145,79.125h-1.494v-12.85h7.163v1.327h-5.669v4.702h5.326v1.327h-5.326V79.125z"/>
	<path fill="#FFFFFF" d="M-239.174,69.316c0.428,0,0.812,0.035,1.151,0.105l-0.202,1.354c-0.398-0.088-0.75-0.132-1.055-0.132
		c-0.779,0-1.446,0.316-2,0.949s-0.831,1.421-0.831,2.364v5.168h-1.459v-9.633h1.204l0.167,1.784h0.07
		c0.357-0.627,0.788-1.11,1.292-1.45S-239.777,69.316-239.174,69.316z"/>
	<path fill="#FFFFFF" d="M-236.344,66.882c0-0.334,0.082-0.579,0.246-0.733c0.164-0.156,0.369-0.233,0.615-0.233
		c0.234,0,0.437,0.079,0.606,0.237s0.255,0.401,0.255,0.729s-0.085,0.573-0.255,0.733c-0.17,0.162-0.372,0.242-0.606,0.242
		c-0.246,0-0.451-0.08-0.615-0.242C-236.262,67.455-236.344,67.21-236.344,66.882z M-234.762,79.125h-1.459v-9.633h1.459V79.125z"/>
	<path fill="#FFFFFF" d="M-225.111,77.833h-0.079c-0.674,0.979-1.682,1.468-3.023,1.468c-1.26,0-2.24-0.431-2.94-1.292
		s-1.05-2.086-1.05-3.674s0.352-2.821,1.055-3.7s1.682-1.318,2.936-1.318c1.307,0,2.309,0.475,3.006,1.424h0.114l-0.062-0.694
		l-0.035-0.677v-3.92h1.459v13.676h-1.187L-225.111,77.833z M-228.029,78.079c0.996,0,1.718-0.271,2.167-0.813
		c0.448-0.541,0.672-1.416,0.672-2.623v-0.308c0-1.365-0.227-2.339-0.681-2.923c-0.454-0.582-1.179-0.874-2.175-0.874
		c-0.855,0-1.51,0.333-1.964,0.997c-0.454,0.666-0.681,1.604-0.681,2.817c0,1.23,0.226,2.159,0.677,2.786
		S-228.902,78.079-228.029,78.079z"/>
	<path fill="#FFFFFF" d="M-214.714,79.125l-0.29-1.371h-0.07c-0.48,0.604-0.959,1.013-1.437,1.227
		c-0.478,0.213-1.074,0.32-1.789,0.32c-0.955,0-1.704-0.246-2.246-0.738s-0.813-1.192-0.813-2.101c0-1.945,1.556-2.965,4.667-3.059
		l1.635-0.053v-0.598c0-0.756-0.163-1.313-0.488-1.675c-0.325-0.359-0.845-0.54-1.56-0.54c-0.803,0-1.711,0.246-2.725,0.738
		l-0.448-1.116c0.475-0.258,0.995-0.46,1.56-0.606s1.132-0.22,1.701-0.22c1.148,0,2,0.255,2.553,0.765s0.831,1.327,0.831,2.452
		v6.574H-214.714z M-218.01,78.097c0.908,0,1.622-0.249,2.14-0.747s0.778-1.195,0.778-2.092v-0.87l-1.459,0.062
		c-1.16,0.041-1.997,0.221-2.509,0.541c-0.513,0.318-0.769,0.815-0.769,1.489c0,0.527,0.16,0.929,0.479,1.204
		S-218.584,78.097-218.01,78.097z"/>
	<path fill="#FFFFFF" d="M-212.156,69.492h1.564l2.109,5.493c0.463,1.254,0.75,2.159,0.861,2.716h0.07
		c0.076-0.299,0.236-0.811,0.479-1.533c0.243-0.725,1.039-2.949,2.386-6.676h1.564l-4.14,10.969
		c-0.41,1.084-0.889,1.853-1.437,2.307s-1.22,0.682-2.017,0.682c-0.445,0-0.885-0.05-1.318-0.149v-1.169
		c0.322,0.07,0.683,0.105,1.081,0.105c1.002,0,1.717-0.563,2.145-1.688l0.536-1.371L-212.156,69.492z"/>
	<path fill="#FFFFFF" d="M-201.768,78.193c0-0.797,0.352-1.195,1.055-1.195c0.34,0,0.602,0.103,0.787,0.308s0.277,0.501,0.277,0.888
		c0,0.375-0.094,0.667-0.281,0.875c-0.188,0.207-0.448,0.312-0.782,0.312c-0.305,0-0.557-0.093-0.756-0.276
		C-201.668,78.918-201.768,78.615-201.768,78.193z M-200.238,75.583h-0.923l-0.448-9.308h1.819L-200.238,75.583z"/>
	<path fill="#FFFFFF" d="M-188.584,72.7l3.428-6.425h1.617l-4.289,7.866v4.983h-1.512v-4.913l-4.28-7.937h1.635L-188.584,72.7z"/>
	<path fill="#FFFFFF" d="M-173.678,74.3c0,1.57-0.396,2.796-1.187,3.679c-0.791,0.882-1.884,1.322-3.278,1.322
		c-0.861,0-1.626-0.202-2.294-0.606s-1.184-0.984-1.547-1.74s-0.545-1.641-0.545-2.654c0-1.57,0.393-2.794,1.178-3.669
		c0.785-0.877,1.875-1.314,3.27-1.314c1.348,0,2.418,0.448,3.212,1.345S-173.678,72.771-173.678,74.3z M-181.017,74.3
		c0,1.23,0.246,2.168,0.738,2.813s1.216,0.967,2.171,0.967s1.68-0.321,2.175-0.962c0.495-0.643,0.743-1.581,0.743-2.817
		c0-1.225-0.248-2.155-0.743-2.79c-0.495-0.637-1.226-0.954-2.193-0.954c-0.955,0-1.676,0.313-2.162,0.94
		S-181.017,73.058-181.017,74.3z"/>
	<path fill="#FFFFFF" d="M-169.749,69.492v6.249c0,0.785,0.179,1.371,0.536,1.758s0.917,0.58,1.679,0.58
		c1.008,0,1.745-0.275,2.21-0.826s0.699-1.45,0.699-2.698v-5.063h1.459v9.633h-1.204l-0.211-1.292h-0.079
		c-0.299,0.475-0.713,0.838-1.244,1.09s-1.135,0.378-1.815,0.378c-1.172,0-2.049-0.278-2.632-0.835s-0.875-1.447-0.875-2.672v-6.302
		H-169.749z"/>
	<path fill="#FFFFFF" d="M-148.84,77.833h-0.079c-0.674,0.979-1.682,1.468-3.023,1.468c-1.26,0-2.24-0.431-2.94-1.292
		s-1.05-2.086-1.05-3.674s0.352-2.821,1.055-3.7s1.682-1.318,2.936-1.318c1.307,0,2.309,0.475,3.006,1.424h0.114l-0.062-0.694
		l-0.035-0.677v-3.92h1.459v13.676h-1.187L-148.84,77.833z M-151.758,78.079c0.996,0,1.718-0.271,2.167-0.813
		c0.448-0.541,0.672-1.416,0.672-2.623v-0.308c0-1.365-0.227-2.339-0.681-2.923c-0.454-0.582-1.179-0.874-2.175-0.874
		c-0.855,0-1.51,0.333-1.964,0.997c-0.454,0.666-0.681,1.604-0.681,2.817c0,1.23,0.226,2.159,0.677,2.786
		S-152.631,78.079-151.758,78.079z"/>
	<path fill="#FFFFFF" d="M-144.489,66.882c0-0.334,0.082-0.579,0.246-0.733c0.164-0.156,0.369-0.233,0.615-0.233
		c0.234,0,0.437,0.079,0.606,0.237s0.255,0.401,0.255,0.729s-0.085,0.573-0.255,0.733c-0.17,0.162-0.372,0.242-0.606,0.242
		c-0.246,0-0.451-0.08-0.615-0.242C-144.407,67.455-144.489,67.21-144.489,66.882z M-142.907,79.125h-1.459v-9.633h1.459V79.125z"/>
	<path fill="#FFFFFF" d="M-133.257,77.833h-0.079c-0.674,0.979-1.682,1.468-3.023,1.468c-1.26,0-2.24-0.431-2.94-1.292
		s-1.05-2.086-1.05-3.674s0.352-2.821,1.055-3.7s1.682-1.318,2.936-1.318c1.307,0,2.309,0.475,3.006,1.424h0.114l-0.062-0.694
		l-0.035-0.677v-3.92h1.459v13.676h-1.187L-133.257,77.833z M-136.175,78.079c0.996,0,1.718-0.271,2.167-0.813
		c0.448-0.541,0.672-1.416,0.672-2.623v-0.308c0-1.365-0.227-2.339-0.681-2.923c-0.454-0.582-1.179-0.874-2.175-0.874
		c-0.855,0-1.51,0.333-1.964,0.997c-0.454,0.666-0.681,1.604-0.681,2.817c0,1.23,0.226,2.159,0.677,2.786
		S-137.048,78.079-136.175,78.079z"/>
	<path fill="#FFFFFF" d="M-122.191,79.125v-6.231c0-0.785-0.179-1.371-0.536-1.758s-0.917-0.58-1.679-0.58
		c-1.008,0-1.746,0.272-2.215,0.817s-0.703,1.444-0.703,2.698v5.054h-1.459v-9.633h1.187l0.237,1.318h0.07
		c0.299-0.475,0.718-0.842,1.257-1.104c0.539-0.26,1.14-0.391,1.802-0.391c1.16,0,2.033,0.279,2.619,0.84
		c0.586,0.559,0.879,1.454,0.879,2.685v6.284H-122.191z"/>
	<path fill="#FFFFFF" d="M-116.566,66.275l0.132,0.193c-0.152,0.586-0.372,1.268-0.659,2.043c-0.287,0.777-0.586,1.499-0.896,2.167
		h-1.072c0.41-1.67,0.709-3.138,0.896-4.403H-116.566z"/>
	<path fill="#FFFFFF" d="M-111.565,78.097c0.258,0,0.507-0.019,0.747-0.058c0.24-0.037,0.431-0.077,0.571-0.118v1.116
		c-0.158,0.076-0.391,0.139-0.699,0.189c-0.308,0.049-0.584,0.074-0.831,0.074c-1.863,0-2.795-0.981-2.795-2.944v-5.73h-1.38v-0.703
		l1.38-0.606l0.615-2.057h0.844v2.232h2.795v1.134h-2.795v5.669c0,0.58,0.138,1.025,0.413,1.336S-112.046,78.097-111.565,78.097z"/>
	<path fill="#FFFFFF" d="M-97.055,79.125v-6.231c0-0.785-0.179-1.371-0.536-1.758s-0.917-0.58-1.679-0.58
		c-1.014,0-1.753,0.275-2.219,0.826s-0.699,1.453-0.699,2.707v5.036h-1.459V65.449h1.459v4.14c0,0.498-0.023,0.911-0.07,1.239h0.088
		c0.287-0.463,0.696-0.828,1.226-1.094c0.53-0.268,1.135-0.4,1.815-0.4c1.178,0,2.061,0.279,2.65,0.84
		c0.589,0.559,0.883,1.448,0.883,2.667v6.284H-97.055z"/>
	<path fill="#FFFFFF" d="M-86.675,79.125l-0.29-1.371h-0.07c-0.48,0.604-0.959,1.013-1.437,1.227
		c-0.478,0.213-1.074,0.32-1.789,0.32c-0.955,0-1.704-0.246-2.246-0.738s-0.813-1.192-0.813-2.101c0-1.945,1.556-2.965,4.667-3.059
		l1.635-0.053v-0.598c0-0.756-0.163-1.313-0.488-1.675c-0.325-0.359-0.845-0.54-1.56-0.54c-0.803,0-1.711,0.246-2.725,0.738
		l-0.448-1.116c0.475-0.258,0.995-0.46,1.56-0.606s1.132-0.22,1.701-0.22c1.148,0,2,0.255,2.553,0.765s0.831,1.327,0.831,2.452
		v6.574H-86.675z M-89.971,78.097c0.908,0,1.622-0.249,2.14-0.747s0.778-1.195,0.778-2.092v-0.87l-1.459,0.062
		c-1.16,0.041-1.997,0.221-2.509,0.541c-0.513,0.318-0.769,0.815-0.769,1.489c0,0.527,0.16,0.929,0.479,1.204
		S-90.545,78.097-89.971,78.097z"/>
	<path fill="#FFFFFF" d="M-80.479,79.125l-3.656-9.633h1.564l2.074,5.713c0.469,1.336,0.744,2.203,0.826,2.602h0.07
		c0.064-0.311,0.268-0.953,0.611-1.93c0.343-0.975,1.112-3.104,2.307-6.385h1.564l-3.656,9.633H-80.479z"/>
	<path fill="#FFFFFF" d="M-69.501,79.301c-1.424,0-2.547-0.434-3.371-1.301s-1.235-2.071-1.235-3.612c0-1.553,0.382-2.786,1.147-3.7
		s1.792-1.371,3.081-1.371c1.207,0,2.162,0.396,2.865,1.191c0.703,0.793,1.055,1.841,1.055,3.142v0.923h-6.636
		c0.029,1.131,0.315,1.989,0.857,2.575s1.305,0.879,2.29,0.879c1.037,0,2.063-0.217,3.076-0.65v1.301
		c-0.516,0.223-1.003,0.382-1.463,0.479C-68.295,79.252-68.851,79.301-69.501,79.301z M-69.896,70.538
		c-0.773,0-1.39,0.252-1.85,0.756s-0.731,1.201-0.813,2.092h5.036c0-0.92-0.205-1.624-0.615-2.114
		C-68.549,70.783-69.135,70.538-69.896,70.538z"/>
	<path fill="#FFFFFF" d="M-52.872,79.125l-0.29-1.371h-0.07c-0.48,0.604-0.959,1.013-1.437,1.227
		c-0.478,0.213-1.074,0.32-1.789,0.32c-0.955,0-1.704-0.246-2.246-0.738s-0.813-1.192-0.813-2.101c0-1.945,1.556-2.965,4.667-3.059
		l1.635-0.053v-0.598c0-0.756-0.163-1.313-0.488-1.675c-0.325-0.359-0.845-0.54-1.56-0.54c-0.803,0-1.711,0.246-2.725,0.738
		l-0.448-1.116c0.475-0.258,0.995-0.46,1.56-0.606s1.132-0.22,1.701-0.22c1.148,0,2,0.255,2.553,0.765s0.831,1.327,0.831,2.452
		v6.574H-52.872z M-56.168,78.097c0.908,0,1.622-0.249,2.14-0.747s0.778-1.195,0.778-2.092v-0.87l-1.459,0.062
		c-1.16,0.041-1.997,0.221-2.509,0.541c-0.513,0.318-0.769,0.815-0.769,1.489c0,0.527,0.16,0.929,0.479,1.204
		S-56.742,78.097-56.168,78.097z"/>
	<path fill="#FFFFFF" d="M-42.193,79.125v-6.231c0-0.785-0.179-1.371-0.536-1.758s-0.917-0.58-1.679-0.58
		c-1.008,0-1.746,0.272-2.215,0.817s-0.703,1.444-0.703,2.698v5.054h-1.459v-9.633h1.187l0.237,1.318h0.07
		c0.299-0.475,0.718-0.842,1.257-1.104c0.539-0.26,1.14-0.391,1.802-0.391c1.16,0,2.033,0.279,2.619,0.84
		c0.586,0.559,0.879,1.454,0.879,2.685v6.284H-42.193z"/>
	<path fill="#FFFFFF" d="M-39.267,69.492h1.564l2.109,5.493c0.463,1.254,0.75,2.159,0.861,2.716h0.07
		c0.076-0.299,0.236-0.811,0.479-1.533c0.243-0.725,1.039-2.949,2.386-6.676h1.564l-4.14,10.969
		c-0.41,1.084-0.889,1.853-1.437,2.307s-1.22,0.682-2.017,0.682c-0.445,0-0.885-0.05-1.318-0.149v-1.169
		c0.322,0.07,0.683,0.105,1.081,0.105c1.002,0,1.717-0.563,2.145-1.688l0.536-1.371L-39.267,69.492z"/>
	<path fill="#FFFFFF" d="M-20.572,79.301c-1.242,0-2.212-0.437-2.909-1.31s-1.046-2.092-1.046-3.656
		c0-1.576,0.352-2.807,1.055-3.691s1.682-1.327,2.936-1.327c1.318,0,2.332,0.498,3.041,1.494h0.079l0.211-1.318h1.151v13.957h-1.459
		v-4.122c0-0.586,0.032-1.084,0.097-1.494h-0.114C-18.205,78.812-19.219,79.301-20.572,79.301z M-20.353,78.079
		c0.973,0,1.682-0.261,2.127-0.782s0.683-1.4,0.712-2.637v-0.325c0-1.348-0.229-2.317-0.686-2.909s-1.181-0.888-2.171-0.888
		c-0.855,0-1.51,0.333-1.964,0.997c-0.454,0.666-0.681,1.604-0.681,2.817s0.224,2.138,0.672,2.772
		C-21.895,77.762-21.231,78.079-20.353,78.079z"/>
	<path fill="#FFFFFF" d="M-11.59,69.492v6.249c0,0.785,0.179,1.371,0.536,1.758s0.917,0.58,1.679,0.58
		c1.008,0,1.745-0.275,2.21-0.826s0.699-1.45,0.699-2.698v-5.063h1.459v9.633h-1.204l-0.211-1.292h-0.079
		c-0.299,0.475-0.713,0.838-1.244,1.09s-1.135,0.378-1.815,0.378c-1.172,0-2.049-0.278-2.632-0.835s-0.875-1.447-0.875-2.672v-6.302
		H-11.59z"/>
	<path fill="#FFFFFF" d="M4.011,79.125l-0.29-1.371H3.65c-0.48,0.604-0.959,1.013-1.437,1.227c-0.478,0.213-1.074,0.32-1.789,0.32
		c-0.955,0-1.704-0.246-2.246-0.738s-0.813-1.192-0.813-2.101c0-1.945,1.556-2.965,4.667-3.059l1.635-0.053v-0.598
		c0-0.756-0.163-1.313-0.488-1.675c-0.325-0.359-0.845-0.54-1.56-0.54c-0.803,0-1.711,0.246-2.725,0.738l-0.448-1.116
		c0.475-0.258,0.995-0.46,1.56-0.606s1.132-0.22,1.701-0.22c1.148,0,2,0.255,2.553,0.765s0.831,1.327,0.831,2.452v6.574H4.011z
		 M0.715,78.097c0.908,0,1.622-0.249,2.14-0.747s0.778-1.195,0.778-2.092v-0.87l-1.459,0.062c-1.16,0.041-1.997,0.221-2.509,0.541
		c-0.513,0.318-0.769,0.815-0.769,1.489c0,0.527,0.16,0.929,0.479,1.204S0.141,78.097,0.715,78.097z"/>
	<path fill="#FFFFFF" d="M9.557,79.125H8.098V65.449h1.459V79.125z"/>
	<path fill="#FFFFFF" d="M12.527,66.882c0-0.334,0.082-0.579,0.246-0.733c0.164-0.156,0.369-0.233,0.615-0.233
		c0.234,0,0.437,0.079,0.606,0.237s0.255,0.401,0.255,0.729s-0.085,0.573-0.255,0.733c-0.17,0.162-0.372,0.242-0.606,0.242
		c-0.246,0-0.451-0.08-0.615-0.242C12.609,67.455,12.527,67.21,12.527,66.882z M14.109,79.125H12.65v-9.633h1.459V79.125z"/>
	<path fill="#FFFFFF" d="M20.314,78.097c0.258,0,0.507-0.019,0.747-0.058c0.24-0.037,0.431-0.077,0.571-0.118v1.116
		c-0.158,0.076-0.391,0.139-0.699,0.189c-0.308,0.049-0.584,0.074-0.831,0.074c-1.863,0-2.795-0.981-2.795-2.944v-5.73h-1.38v-0.703
		l1.38-0.606l0.615-2.057h0.844v2.232h2.795v1.134h-2.795v5.669c0,0.58,0.138,1.025,0.413,1.336S19.834,78.097,20.314,78.097z"/>
	<path fill="#FFFFFF" d="M22.028,69.492h1.564l2.109,5.493c0.463,1.254,0.75,2.159,0.861,2.716h0.07
		c0.076-0.299,0.236-0.811,0.479-1.533c0.243-0.725,1.039-2.949,2.386-6.676h1.564l-4.14,10.969
		c-0.41,1.084-0.889,1.853-1.437,2.307s-1.22,0.682-2.017,0.682c-0.445,0-0.885-0.05-1.318-0.149v-1.169
		c0.322,0.07,0.683,0.105,1.081,0.105c1.002,0,1.717-0.563,2.145-1.688l0.536-1.371L22.028,69.492z"/>
	<path fill="#FFFFFF" d="M41.153,79.301c-1.395,0-2.474-0.429-3.239-1.287c-0.765-0.859-1.147-2.073-1.147-3.644
		c0-1.611,0.388-2.856,1.165-3.735s1.882-1.318,3.318-1.318c0.463,0,0.926,0.05,1.389,0.149s0.826,0.217,1.09,0.352l-0.448,1.239
		c-0.322-0.129-0.674-0.236-1.055-0.32c-0.381-0.086-0.718-0.128-1.011-0.128c-1.957,0-2.936,1.248-2.936,3.744
		c0,1.184,0.239,2.092,0.716,2.725s1.185,0.949,2.123,0.949c0.803,0,1.626-0.173,2.47-0.519V78.8
		C42.943,79.134,42.132,79.301,41.153,79.301z"/>
	<path fill="#FFFFFF" d="M54.188,74.3c0,1.57-0.396,2.796-1.187,3.679c-0.791,0.882-1.884,1.322-3.278,1.322
		c-0.861,0-1.626-0.202-2.294-0.606s-1.184-0.984-1.547-1.74s-0.545-1.641-0.545-2.654c0-1.57,0.393-2.794,1.178-3.669
		c0.785-0.877,1.875-1.314,3.27-1.314c1.348,0,2.418,0.448,3.212,1.345S54.188,72.771,54.188,74.3z M46.849,74.3
		c0,1.23,0.246,2.168,0.738,2.813s1.216,0.967,2.171,0.967s1.68-0.321,2.175-0.962c0.495-0.643,0.743-1.581,0.743-2.817
		c0-1.225-0.248-2.155-0.743-2.79c-0.495-0.637-1.226-0.954-2.193-0.954c-0.955,0-1.676,0.313-2.162,0.94S46.849,73.058,46.849,74.3
		z"/>
	<path fill="#FFFFFF" d="M63.337,79.125v-6.231c0-0.785-0.179-1.371-0.536-1.758s-0.917-0.58-1.679-0.58
		c-1.008,0-1.746,0.272-2.215,0.817s-0.703,1.444-0.703,2.698v5.054h-1.459v-9.633h1.187l0.237,1.318h0.07
		c0.299-0.475,0.718-0.842,1.257-1.104c0.539-0.26,1.14-0.391,1.802-0.391c1.16,0,2.033,0.279,2.619,0.84
		c0.586,0.559,0.879,1.454,0.879,2.685v6.284H63.337z"/>
	<path fill="#FFFFFF" d="M70.904,78.097c0.258,0,0.507-0.019,0.747-0.058c0.24-0.037,0.431-0.077,0.571-0.118v1.116
		c-0.158,0.076-0.391,0.139-0.699,0.189c-0.308,0.049-0.584,0.074-0.831,0.074c-1.863,0-2.795-0.981-2.795-2.944v-5.73h-1.38v-0.703
		l1.38-0.606l0.615-2.057h0.844v2.232h2.795v1.134h-2.795v5.669c0,0.58,0.138,1.025,0.413,1.336S70.424,78.097,70.904,78.097z"/>
	<path fill="#FFFFFF" d="M78.542,69.316c0.428,0,0.812,0.035,1.151,0.105l-0.202,1.354c-0.398-0.088-0.75-0.132-1.055-0.132
		c-0.779,0-1.446,0.316-2,0.949s-0.831,1.421-0.831,2.364v5.168h-1.459v-9.633h1.204l0.167,1.784h0.07
		c0.357-0.627,0.788-1.11,1.292-1.45S77.938,69.316,78.542,69.316z"/>
	<path fill="#FFFFFF" d="M89.81,74.3c0,1.57-0.396,2.796-1.187,3.679c-0.791,0.882-1.884,1.322-3.278,1.322
		c-0.861,0-1.626-0.202-2.294-0.606s-1.184-0.984-1.547-1.74s-0.545-1.641-0.545-2.654c0-1.57,0.393-2.794,1.178-3.669
		c0.785-0.877,1.875-1.314,3.27-1.314c1.348,0,2.418,0.448,3.212,1.345S89.81,72.771,89.81,74.3z M82.471,74.3
		c0,1.23,0.246,2.168,0.738,2.813s1.216,0.967,2.171,0.967s1.68-0.321,2.175-0.962c0.495-0.643,0.743-1.581,0.743-2.817
		c0-1.225-0.248-2.155-0.743-2.79c-0.495-0.637-1.226-0.954-2.193-0.954c-0.955,0-1.676,0.313-2.162,0.94S82.471,73.058,82.471,74.3
		z"/>
	<path fill="#FFFFFF" d="M93.826,79.125h-1.459V65.449h1.459V79.125z"/>
	<path fill="#FFFFFF" d="M107.52,79.125l-0.29-1.371h-0.07c-0.48,0.604-0.959,1.013-1.437,1.227c-0.478,0.213-1.074,0.32-1.789,0.32
		c-0.955,0-1.704-0.246-2.246-0.738s-0.813-1.192-0.813-2.101c0-1.945,1.556-2.965,4.667-3.059l1.635-0.053v-0.598
		c0-0.756-0.163-1.313-0.488-1.675c-0.325-0.359-0.845-0.54-1.56-0.54c-0.803,0-1.711,0.246-2.725,0.738l-0.448-1.116
		c0.475-0.258,0.995-0.46,1.56-0.606s1.132-0.22,1.701-0.22c1.148,0,2,0.255,2.553,0.765s0.831,1.327,0.831,2.452v6.574H107.52z
		 M104.224,78.097c0.908,0,1.622-0.249,2.14-0.747s0.778-1.195,0.778-2.092v-0.87l-1.459,0.062c-1.16,0.041-1.997,0.221-2.509,0.541
		c-0.513,0.318-0.769,0.815-0.769,1.489c0,0.527,0.16,0.929,0.479,1.204S103.649,78.097,104.224,78.097z"/>
	<path fill="#FFFFFF" d="M113.065,79.125h-1.459V65.449h1.459V79.125z"/>
	<path fill="#FFFFFF" d="M120.229,79.301c-1.424,0-2.547-0.434-3.371-1.301s-1.235-2.071-1.235-3.612c0-1.553,0.382-2.786,1.147-3.7
		s1.792-1.371,3.081-1.371c1.207,0,2.162,0.396,2.865,1.191c0.703,0.793,1.055,1.841,1.055,3.142v0.923h-6.636
		c0.029,1.131,0.315,1.989,0.857,2.575s1.305,0.879,2.29,0.879c1.037,0,2.063-0.217,3.076-0.65v1.301
		c-0.516,0.223-1.003,0.382-1.463,0.479C121.434,79.252,120.879,79.301,120.229,79.301z M119.833,70.538
		c-0.773,0-1.39,0.252-1.85,0.756s-0.731,1.201-0.813,2.092h5.036c0-0.92-0.205-1.624-0.615-2.114
		C121.181,70.783,120.595,70.538,119.833,70.538z"/>
	<path fill="#FFFFFF" d="M130.652,69.316c0.428,0,0.812,0.035,1.151,0.105l-0.202,1.354c-0.398-0.088-0.75-0.132-1.055-0.132
		c-0.779,0-1.446,0.316-2,0.949s-0.831,1.421-0.831,2.364v5.168h-1.459v-9.633h1.204l0.167,1.784h0.07
		c0.357-0.627,0.788-1.11,1.292-1.45S130.049,69.316,130.652,69.316z"/>
	<path fill="#FFFFFF" d="M136.717,78.097c0.258,0,0.507-0.019,0.747-0.058c0.24-0.037,0.431-0.077,0.571-0.118v1.116
		c-0.158,0.076-0.391,0.139-0.699,0.189c-0.308,0.049-0.584,0.074-0.831,0.074c-1.863,0-2.795-0.981-2.795-2.944v-5.73h-1.38v-0.703
		l1.38-0.606l0.615-2.057h0.844v2.232h2.795v1.134h-2.795v5.669c0,0.58,0.138,1.025,0.413,1.336S136.236,78.097,136.717,78.097z"/>
	<path fill="#FFFFFF" d="M146.174,76.497c0,0.896-0.334,1.588-1.002,2.074s-1.605,0.729-2.813,0.729
		c-1.277,0-2.273-0.202-2.988-0.606v-1.354c0.463,0.234,0.959,0.419,1.49,0.554s1.042,0.202,1.534,0.202
		c0.762,0,1.348-0.122,1.758-0.364c0.41-0.244,0.615-0.614,0.615-1.112c0-0.375-0.163-0.696-0.488-0.962
		c-0.325-0.268-0.959-0.582-1.903-0.945c-0.896-0.334-1.534-0.625-1.912-0.875c-0.378-0.248-0.659-0.531-0.844-0.848
		s-0.277-0.694-0.277-1.134c0-0.785,0.319-1.405,0.958-1.858c0.639-0.455,1.515-0.682,2.628-0.682c1.037,0,2.051,0.211,3.041,0.633
		l-0.519,1.187c-0.967-0.398-1.843-0.598-2.628-0.598c-0.691,0-1.213,0.108-1.564,0.325s-0.527,0.516-0.527,0.896
		c0,0.258,0.066,0.478,0.198,0.659s0.344,0.354,0.637,0.519s0.855,0.401,1.688,0.712c1.143,0.416,1.915,0.835,2.316,1.257
		S146.174,75.858,146.174,76.497z"/>
	<path fill="#FFFFFF" d="M156.334,78.097c0.258,0,0.507-0.019,0.747-0.058c0.24-0.037,0.431-0.077,0.571-0.118v1.116
		c-0.158,0.076-0.391,0.139-0.699,0.189c-0.308,0.049-0.584,0.074-0.831,0.074c-1.863,0-2.795-0.981-2.795-2.944v-5.73h-1.38v-0.703
		l1.38-0.606l0.615-2.057h0.844v2.232h2.795v1.134h-2.795v5.669c0,0.58,0.138,1.025,0.413,1.336S155.854,78.097,156.334,78.097z"/>
	<path fill="#FFFFFF" d="M166.169,79.125v-6.231c0-0.785-0.179-1.371-0.536-1.758s-0.917-0.58-1.679-0.58
		c-1.014,0-1.753,0.275-2.219,0.826s-0.699,1.453-0.699,2.707v5.036h-1.459V65.449h1.459v4.14c0,0.498-0.023,0.911-0.07,1.239h0.088
		c0.287-0.463,0.696-0.828,1.226-1.094c0.53-0.268,1.135-0.4,1.815-0.4c1.178,0,2.062,0.279,2.649,0.84
		c0.59,0.559,0.884,1.448,0.884,2.667v6.284H166.169z"/>
	<path fill="#FFFFFF" d="M170.502,66.882c0-0.334,0.082-0.579,0.246-0.733c0.164-0.156,0.369-0.233,0.615-0.233
		c0.234,0,0.437,0.079,0.606,0.237s0.255,0.401,0.255,0.729s-0.085,0.573-0.255,0.733c-0.17,0.162-0.372,0.242-0.606,0.242
		c-0.246,0-0.451-0.08-0.615-0.242C170.584,67.455,170.502,67.21,170.502,66.882z M172.084,79.125h-1.459v-9.633h1.459V79.125z"/>
	<path fill="#FFFFFF" d="M181.392,76.497c0,0.896-0.334,1.588-1.002,2.074s-1.605,0.729-2.813,0.729
		c-1.277,0-2.273-0.202-2.988-0.606v-1.354c0.463,0.234,0.96,0.419,1.489,0.554c0.531,0.135,1.042,0.202,1.534,0.202
		c0.762,0,1.348-0.122,1.758-0.364c0.41-0.244,0.615-0.614,0.615-1.112c0-0.375-0.163-0.696-0.487-0.962
		c-0.326-0.268-0.96-0.582-1.903-0.945c-0.896-0.334-1.534-0.625-1.911-0.875c-0.379-0.248-0.66-0.531-0.844-0.848
		c-0.186-0.316-0.277-0.694-0.277-1.134c0-0.785,0.319-1.405,0.958-1.858c0.639-0.455,1.515-0.682,2.628-0.682
		c1.037,0,2.051,0.211,3.041,0.633l-0.519,1.187c-0.967-0.398-1.843-0.598-2.628-0.598c-0.691,0-1.213,0.108-1.564,0.325
		s-0.527,0.516-0.527,0.896c0,0.258,0.066,0.478,0.197,0.659c0.133,0.182,0.345,0.354,0.638,0.519s0.855,0.401,1.688,0.712
		c1.143,0.416,1.915,0.835,2.315,1.257C181.191,75.328,181.392,75.858,181.392,76.497z"/>
	<path fill="#FFFFFF" d="M196.307,79.125l-1.767-5.651c-0.111-0.346-0.319-1.131-0.624-2.355h-0.07
		c-0.234,1.025-0.439,1.816-0.615,2.373l-1.819,5.634h-1.688l-2.628-9.633h1.529c0.621,2.42,1.094,4.263,1.42,5.528
		c0.324,1.266,0.511,2.118,0.558,2.558h0.07c0.064-0.334,0.169-0.766,0.312-1.297c0.145-0.529,0.269-0.95,0.374-1.261l1.767-5.528
		h1.582l1.723,5.528c0.328,1.008,0.551,1.854,0.668,2.54h0.07c0.023-0.211,0.086-0.536,0.189-0.976
		c0.102-0.439,0.713-2.804,1.832-7.093h1.512l-2.663,9.633H196.307z"/>
	<path fill="#FFFFFF" d="M206.511,79.301c-1.424,0-2.548-0.434-3.37-1.301c-0.824-0.867-1.235-2.071-1.235-3.612
		c0-1.553,0.382-2.786,1.147-3.7c0.764-0.914,1.791-1.371,3.08-1.371c1.207,0,2.162,0.396,2.865,1.191
		c0.703,0.793,1.055,1.841,1.055,3.142v0.923h-6.636c0.029,1.131,0.315,1.989,0.856,2.575c0.543,0.586,1.306,0.879,2.29,0.879
		c1.037,0,2.063-0.217,3.076-0.65v1.301c-0.516,0.223-1.003,0.382-1.464,0.479C207.717,79.252,207.161,79.301,206.511,79.301z
		 M206.115,70.538c-0.773,0-1.391,0.252-1.85,0.756c-0.461,0.504-0.731,1.201-0.813,2.092h5.036c0-0.92-0.205-1.624-0.615-2.114
		C207.463,70.783,206.877,70.538,206.115,70.538z"/>
	<path fill="#FFFFFF" d="M216.609,79.301c-1.424,0-2.547-0.434-3.371-1.301c-0.822-0.867-1.234-2.071-1.234-3.612
		c0-1.553,0.383-2.786,1.146-3.7c0.766-0.914,1.792-1.371,3.081-1.371c1.207,0,2.162,0.396,2.865,1.191
		c0.703,0.793,1.055,1.841,1.055,3.142v0.923h-6.636c0.029,1.131,0.314,1.989,0.857,2.575c0.541,0.586,1.305,0.879,2.289,0.879
		c1.037,0,2.063-0.217,3.076-0.65v1.301c-0.516,0.223-1.004,0.382-1.463,0.479C217.814,79.252,217.26,79.301,216.609,79.301z
		 M216.214,70.538c-0.773,0-1.39,0.252-1.851,0.756c-0.459,0.504-0.73,1.201-0.813,2.092h5.036c0-0.92-0.205-1.624-0.615-2.114
		C217.562,70.783,216.976,70.538,216.214,70.538z"/>
	<path fill="#FFFFFF" d="M224.08,74.194c0.252-0.357,0.636-0.826,1.151-1.406l3.111-3.296h1.731l-3.902,4.104l4.175,5.528h-1.767
		l-3.401-4.553l-1.099,0.949v3.604h-1.441V65.449h1.441V72.7c0,0.322-0.023,0.82-0.07,1.494H224.08z"/>
	<path fill="#FFFFFF" d="M231.876,78.193c0-0.393,0.089-0.689,0.269-0.893c0.178-0.201,0.435-0.303,0.769-0.303
		c0.34,0,0.604,0.102,0.796,0.303c0.189,0.203,0.285,0.5,0.285,0.893c0,0.381-0.097,0.674-0.29,0.879s-0.457,0.308-0.791,0.308
		c-0.299,0-0.546-0.093-0.743-0.276C231.975,78.918,231.876,78.615,231.876,78.193z"/>
	<path fill="#FFFFFF" d="M247.274,67.427c-1.412,0-2.526,0.47-3.345,1.411c-0.816,0.939-1.226,2.228-1.226,3.862
		c0,1.682,0.394,2.981,1.183,3.897c0.787,0.918,1.911,1.376,3.37,1.376c0.896,0,1.919-0.161,3.067-0.483v1.31
		c-0.891,0.334-1.989,0.501-3.296,0.501c-1.893,0-3.353-0.574-4.382-1.723c-1.027-1.148-1.542-2.78-1.542-4.896
		c0-1.324,0.247-2.484,0.743-3.48c0.494-0.996,1.209-1.764,2.145-2.303c0.934-0.539,2.034-0.809,3.3-0.809
		c1.348,0,2.525,0.246,3.533,0.738l-0.633,1.283C249.22,67.655,248.247,67.427,247.274,67.427z"/>
	<path fill="#FFFFFF" d="M261.223,74.3c0,1.57-0.396,2.796-1.187,3.679c-0.791,0.882-1.884,1.322-3.278,1.322
		c-0.861,0-1.626-0.202-2.294-0.606s-1.184-0.984-1.547-1.74s-0.545-1.641-0.545-2.654c0-1.57,0.393-2.794,1.178-3.669
		c0.785-0.877,1.875-1.314,3.27-1.314c1.348,0,2.419,0.448,3.212,1.345C260.826,71.558,261.223,72.771,261.223,74.3z M253.884,74.3
		c0,1.23,0.246,2.168,0.738,2.813s1.216,0.967,2.171,0.967s1.68-0.321,2.176-0.962c0.494-0.643,0.742-1.581,0.742-2.817
		c0-1.225-0.248-2.155-0.742-2.79c-0.496-0.637-1.227-0.954-2.193-0.954c-0.955,0-1.676,0.313-2.162,0.94
		S253.884,73.058,253.884,74.3z"/>
	<path fill="#FFFFFF" d="M270.372,79.125v-6.231c0-0.785-0.179-1.371-0.536-1.758s-0.917-0.58-1.679-0.58
		c-1.008,0-1.746,0.272-2.215,0.817s-0.703,1.444-0.703,2.698v5.054h-1.459v-9.633h1.187l0.237,1.318h0.07
		c0.299-0.475,0.718-0.842,1.257-1.104c0.539-0.26,1.14-0.391,1.802-0.391c1.16,0,2.033,0.279,2.619,0.84
		c0.586,0.559,0.879,1.454,0.879,2.685v6.284H270.372z"/>
	<path fill="#FFFFFF" d="M282.712,69.492v0.923l-1.784,0.211c0.164,0.205,0.311,0.474,0.439,0.804
		c0.129,0.332,0.193,0.705,0.193,1.121c0,0.943-0.322,1.696-0.967,2.259s-1.529,0.844-2.654,0.844c-0.287,0-0.557-0.023-0.809-0.07
		c-0.621,0.328-0.932,0.741-0.932,1.239c0,0.264,0.108,0.459,0.325,0.584c0.217,0.127,0.589,0.189,1.116,0.189h1.705
		c1.043,0,1.844,0.22,2.404,0.659c0.559,0.439,0.839,1.078,0.839,1.916c0,1.066-0.428,1.879-1.283,2.438s-2.104,0.84-3.744,0.84
		c-1.26,0-2.231-0.234-2.913-0.703c-0.684-0.469-1.024-1.131-1.024-1.986c0-0.586,0.188-1.093,0.563-1.521s0.902-0.718,1.582-0.87
		c-0.246-0.111-0.452-0.284-0.62-0.519c-0.166-0.234-0.25-0.507-0.25-0.817c0-0.352,0.094-0.659,0.281-0.923
		s0.483-0.519,0.888-0.765c-0.498-0.205-0.903-0.554-1.218-1.046c-0.313-0.492-0.47-1.055-0.47-1.688
		c0-1.055,0.316-1.868,0.949-2.438c0.633-0.572,1.529-0.857,2.689-0.857c0.504,0,0.958,0.059,1.362,0.176H282.712z M275.03,80.742
		c0,0.521,0.22,0.917,0.659,1.187s1.069,0.404,1.89,0.404c1.225,0,2.132-0.184,2.72-0.55c0.59-0.366,0.884-0.862,0.884-1.489
		c0-0.521-0.161-0.884-0.483-1.085c-0.322-0.203-0.929-0.304-1.819-0.304h-1.749c-0.662,0-1.178,0.158-1.547,0.475
		S275.03,80.15,275.03,80.742z M275.821,72.577c0,0.674,0.19,1.184,0.571,1.529s0.911,0.519,1.591,0.519
		c1.424,0,2.136-0.691,2.136-2.074c0-1.447-0.721-2.171-2.162-2.171c-0.686,0-1.213,0.185-1.582,0.554
		S275.821,71.851,275.821,72.577z"/>
	<path fill="#FFFFFF" d="M289.084,69.316c0.428,0,0.812,0.035,1.151,0.105l-0.202,1.354c-0.398-0.088-0.75-0.132-1.055-0.132
		c-0.779,0-1.445,0.316-2,0.949c-0.553,0.633-0.83,1.421-0.83,2.364v5.168h-1.459v-9.633h1.204l0.167,1.784h0.07
		c0.357-0.627,0.788-1.11,1.292-1.45S288.48,69.316,289.084,69.316z"/>
	<path fill="#FFFFFF" d="M297.961,79.125l-0.29-1.371h-0.07c-0.48,0.604-0.96,1.013-1.437,1.227c-0.479,0.213-1.074,0.32-1.789,0.32
		c-0.955,0-1.703-0.246-2.246-0.738c-0.541-0.492-0.813-1.192-0.813-2.101c0-1.945,1.556-2.965,4.667-3.059l1.635-0.053v-0.598
		c0-0.756-0.163-1.313-0.487-1.675c-0.326-0.359-0.846-0.54-1.561-0.54c-0.803,0-1.711,0.246-2.725,0.738l-0.448-1.116
		c0.475-0.258,0.995-0.46,1.56-0.606c0.566-0.146,1.133-0.22,1.701-0.22c1.148,0,2,0.255,2.553,0.765
		c0.555,0.51,0.831,1.327,0.831,2.452v6.574H297.961z M294.665,78.097c0.908,0,1.622-0.249,2.14-0.747
		c0.52-0.498,0.778-1.195,0.778-2.092v-0.87l-1.459,0.062c-1.16,0.041-1.997,0.221-2.509,0.541c-0.514,0.318-0.77,0.815-0.77,1.489
		c0,0.527,0.16,0.929,0.479,1.204C293.645,77.959,294.091,78.097,294.665,78.097z"/>
	<path fill="#FFFFFF" d="M305.159,78.097c0.258,0,0.507-0.019,0.747-0.058c0.24-0.037,0.431-0.077,0.571-0.118v1.116
		c-0.158,0.076-0.392,0.139-0.698,0.189c-0.309,0.049-0.585,0.074-0.831,0.074c-1.863,0-2.795-0.981-2.795-2.944v-5.73h-1.38v-0.703
		l1.38-0.606l0.615-2.057h0.844v2.232h2.795v1.134h-2.795v5.669c0,0.58,0.138,1.025,0.413,1.336S304.679,78.097,305.159,78.097z"/>
	<path fill="#FFFFFF" d="M314.616,76.497c0,0.896-0.334,1.588-1.002,2.074s-1.605,0.729-2.813,0.729
		c-1.277,0-2.273-0.202-2.988-0.606v-1.354c0.463,0.234,0.96,0.419,1.489,0.554c0.531,0.135,1.042,0.202,1.534,0.202
		c0.762,0,1.348-0.122,1.758-0.364c0.41-0.244,0.615-0.614,0.615-1.112c0-0.375-0.163-0.696-0.487-0.962
		c-0.326-0.268-0.96-0.582-1.903-0.945c-0.896-0.334-1.534-0.625-1.911-0.875c-0.379-0.248-0.66-0.531-0.844-0.848
		c-0.186-0.316-0.277-0.694-0.277-1.134c0-0.785,0.319-1.405,0.958-1.858c0.639-0.455,1.515-0.682,2.628-0.682
		c1.037,0,2.051,0.211,3.041,0.633l-0.519,1.187c-0.967-0.398-1.843-0.598-2.628-0.598c-0.691,0-1.213,0.108-1.564,0.325
		s-0.527,0.516-0.527,0.896c0,0.258,0.066,0.478,0.197,0.659c0.133,0.182,0.345,0.354,0.638,0.519s0.855,0.401,1.688,0.712
		c1.143,0.416,1.915,0.835,2.315,1.257C314.416,75.328,314.616,75.858,314.616,76.497z"/>
	<path fill="#FFFFFF" d="M316.778,78.193c0-0.797,0.352-1.195,1.055-1.195c0.34,0,0.603,0.103,0.786,0.308
		c0.186,0.205,0.277,0.501,0.277,0.888c0,0.375-0.094,0.667-0.281,0.875c-0.188,0.207-0.448,0.312-0.782,0.312
		c-0.305,0-0.557-0.093-0.756-0.276C316.878,78.918,316.778,78.615,316.778,78.193z M318.308,75.583h-0.923l-0.448-9.308h1.819
		L318.308,75.583z"/>
</g>
</svg>
