<?xml version="1.0" encoding="utf-8"?>
<!-- Generator: Adobe Illustrator 16.0.0, SVG Export Plug-In . SVG Version: 6.00 Build 0)  -->
<!DOCTYPE svg PUBLIC "-//W3C//DTD SVG 1.1//EN" "http://www.w3.org/Graphics/SVG/1.1/DTD/svg11.dtd">
<svg version="1.1" id="Layer_1" xmlns="http://www.w3.org/2000/svg" xmlns:xlink="http://www.w3.org/1999/xlink" x="0px" y="0px"
	 width="457px" height="66.625px" viewBox="-3.5 0 457 66.625" enable-background="new -3.5 0 457 66.625" xml:space="preserve">
<rect x="-3.5" opacity="0.7" fill="#001F54" enable-background="new    " width="457" height="66.625"/>
<g enable-background="new    ">
	<path fill="#FFFFFF" d="M18.398,48.5h-1.494v-6.047h-6.768V48.5H8.642V35.65h1.494v5.467h6.768V35.65h1.494V48.5z"/>
	<path fill="#FFFFFF" d="M27.626,48.5l-0.29-1.371h-0.07c-0.48,0.604-0.959,1.013-1.437,1.227c-0.478,0.213-1.074,0.32-1.789,0.32
		c-0.955,0-1.704-0.246-2.246-0.738s-0.813-1.192-0.813-2.101c0-1.945,1.556-2.965,4.667-3.059l1.635-0.053v-0.598
		c0-0.756-0.163-1.313-0.488-1.675c-0.325-0.359-0.845-0.54-1.56-0.54c-0.803,0-1.711,0.246-2.725,0.738l-0.448-1.116
		c0.475-0.258,0.995-0.46,1.56-0.606s1.132-0.22,1.701-0.22c1.148,0,2,0.255,2.553,0.765s0.831,1.327,0.831,2.452V48.5H27.626z
		 M24.331,47.472c0.908,0,1.622-0.249,2.14-0.747s0.778-1.195,0.778-2.092v-0.87l-1.459,0.062c-1.16,0.041-1.997,0.222-2.509,0.541
		s-0.769,0.815-0.769,1.489c0,0.527,0.16,0.929,0.479,1.204S23.756,47.472,24.331,47.472z"/>
	<path fill="#FFFFFF" d="M38.305,48.5v-6.231c0-0.785-0.179-1.371-0.536-1.758s-0.917-0.58-1.679-0.58
		c-1.008,0-1.746,0.272-2.215,0.817s-0.703,1.444-0.703,2.698V48.5h-1.459v-9.633H32.9l0.237,1.318h0.07
		c0.299-0.475,0.718-0.842,1.257-1.104c0.539-0.26,1.14-0.391,1.802-0.391c1.16,0,2.033,0.28,2.619,0.84s0.879,1.454,0.879,2.685
		V48.5H38.305z"/>
	<path fill="#FFFFFF" d="M50.645,38.867v0.923l-1.784,0.211c0.164,0.205,0.311,0.474,0.439,0.804
		c0.129,0.332,0.193,0.705,0.193,1.121c0,0.943-0.322,1.696-0.967,2.259s-1.529,0.844-2.654,0.844c-0.287,0-0.557-0.023-0.809-0.07
		c-0.621,0.328-0.932,0.741-0.932,1.239c0,0.264,0.108,0.459,0.325,0.584c0.217,0.127,0.589,0.189,1.116,0.189h1.705
		c1.043,0,1.844,0.22,2.404,0.659s0.839,1.078,0.839,1.916c0,1.066-0.428,1.879-1.283,2.438s-2.104,0.84-3.744,0.84
		c-1.26,0-2.231-0.234-2.914-0.703s-1.024-1.131-1.024-1.986c0-0.586,0.188-1.093,0.563-1.521s0.902-0.718,1.582-0.87
		c-0.246-0.111-0.453-0.284-0.62-0.519s-0.25-0.507-0.25-0.817c0-0.352,0.094-0.659,0.281-0.923s0.483-0.519,0.888-0.765
		c-0.498-0.205-0.904-0.554-1.217-1.046s-0.47-1.055-0.47-1.688c0-1.055,0.316-1.868,0.949-2.438
		c0.633-0.572,1.529-0.857,2.689-0.857c0.504,0,0.958,0.059,1.362,0.176H50.645z M42.963,50.117c0,0.521,0.22,0.917,0.659,1.187
		s1.069,0.404,1.89,0.404c1.225,0,2.131-0.184,2.72-0.55s0.883-0.862,0.883-1.489c0-0.521-0.161-0.884-0.483-1.085
		c-0.322-0.203-0.929-0.304-1.819-0.304h-1.749c-0.662,0-1.178,0.158-1.547,0.475S42.963,49.525,42.963,50.117z M43.754,41.952
		c0,0.674,0.19,1.184,0.571,1.529S45.237,44,45.917,44c1.424,0,2.136-0.691,2.136-2.074c0-1.447-0.721-2.171-2.162-2.171
		c-0.686,0-1.213,0.185-1.582,0.554S43.754,41.226,43.754,41.952z"/>
	<path fill="#FFFFFF" d="M57.175,36.257c0-0.334,0.082-0.578,0.246-0.733s0.369-0.233,0.615-0.233c0.234,0,0.437,0.079,0.606,0.237
		s0.255,0.401,0.255,0.729s-0.085,0.573-0.255,0.733c-0.17,0.162-0.372,0.242-0.606,0.242c-0.246,0-0.451-0.08-0.615-0.242
		C57.257,36.83,57.175,36.585,57.175,36.257z M58.757,48.5h-1.459v-9.633h1.459V48.5z"/>
	<path fill="#FFFFFF" d="M68.443,48.5v-6.231c0-0.785-0.179-1.371-0.536-1.758s-0.917-0.58-1.679-0.58
		c-1.008,0-1.746,0.272-2.215,0.817s-0.703,1.444-0.703,2.698V48.5h-1.459v-9.633h1.187l0.237,1.318h0.07
		c0.299-0.475,0.718-0.842,1.257-1.104c0.539-0.26,1.14-0.391,1.802-0.391c1.16,0,2.033,0.28,2.619,0.84s0.879,1.454,0.879,2.685
		V48.5H68.443z"/>
	<path fill="#FFFFFF" d="M80.686,47.472c0.258,0,0.507-0.019,0.747-0.058c0.24-0.037,0.431-0.077,0.571-0.118v1.116
		c-0.158,0.076-0.391,0.139-0.699,0.189c-0.308,0.049-0.584,0.074-0.831,0.074c-1.863,0-2.795-0.981-2.795-2.944v-5.73H76.3v-0.703
		l1.38-0.606l0.615-2.057h0.844v2.232h2.795v1.134h-2.795v5.669c0,0.58,0.138,1.025,0.413,1.336S80.206,47.472,80.686,47.472z"/>
	<path fill="#FFFFFF" d="M90.521,48.5v-6.231c0-0.785-0.179-1.371-0.536-1.758s-0.917-0.58-1.679-0.58
		c-1.014,0-1.753,0.275-2.219,0.826s-0.699,1.453-0.699,2.707V48.5h-1.459V34.824h1.459v4.14c0,0.498-0.023,0.911-0.07,1.239h0.088
		c0.287-0.463,0.696-0.827,1.226-1.094s1.135-0.4,1.815-0.4c1.178,0,2.061,0.28,2.65,0.84s0.883,1.448,0.883,2.667V48.5H90.521z"/>
	<path fill="#FFFFFF" d="M99.046,48.676c-1.424,0-2.547-0.434-3.371-1.301s-1.235-2.071-1.235-3.612c0-1.553,0.382-2.786,1.147-3.7
		s1.792-1.371,3.081-1.371c1.207,0,2.162,0.397,2.865,1.191s1.055,1.841,1.055,3.142v0.923h-6.636
		c0.029,1.131,0.315,1.989,0.857,2.575s1.305,0.879,2.29,0.879c1.037,0,2.063-0.217,3.076-0.65v1.301
		c-0.516,0.223-1.003,0.382-1.463,0.479C100.252,48.627,99.697,48.676,99.046,48.676z M98.651,39.913
		c-0.773,0-1.39,0.252-1.85,0.756s-0.731,1.201-0.813,2.092h5.036c0-0.92-0.205-1.624-0.615-2.114
		C99.999,40.158,99.413,39.913,98.651,39.913z"/>
	<path fill="#FFFFFF" d="M109.47,38.691c0.428,0,0.812,0.035,1.151,0.105l-0.202,1.354c-0.398-0.088-0.75-0.132-1.055-0.132
		c-0.779,0-1.446,0.316-2,0.949s-0.831,1.421-0.831,2.364V48.5h-1.459v-9.633h1.204l0.167,1.784h0.07
		c0.357-0.627,0.788-1.11,1.292-1.45S108.867,38.691,109.47,38.691z"/>
	<path fill="#FFFFFF" d="M116.493,48.676c-1.424,0-2.547-0.434-3.371-1.301s-1.235-2.071-1.235-3.612c0-1.553,0.382-2.786,1.147-3.7
		s1.792-1.371,3.081-1.371c1.207,0,2.162,0.397,2.865,1.191s1.055,1.841,1.055,3.142v0.923h-6.636
		c0.029,1.131,0.315,1.989,0.857,2.575s1.305,0.879,2.29,0.879c1.037,0,2.063-0.217,3.076-0.65v1.301
		c-0.516,0.223-1.003,0.382-1.463,0.479C117.698,48.627,117.143,48.676,116.493,48.676z M116.097,39.913
		c-0.773,0-1.39,0.252-1.85,0.756s-0.731,1.201-0.813,2.092h5.036c0-0.92-0.205-1.624-0.615-2.114
		C117.445,40.158,116.859,39.913,116.097,39.913z"/>
	<path fill="#FFFFFF" d="M122.311,47.568c0-0.797,0.352-1.195,1.055-1.195c0.34,0,0.602,0.103,0.787,0.308s0.277,0.501,0.277,0.888
		c0,0.375-0.094,0.667-0.281,0.875c-0.188,0.207-0.448,0.312-0.782,0.312c-0.305,0-0.557-0.093-0.756-0.276
		C122.411,48.293,122.311,47.99,122.311,47.568z M123.84,44.958h-0.923l-0.448-9.308h1.819L123.84,44.958z"/>
	<path fill="#FFFFFF" d="M140.302,48.5l-1.6-4.087h-5.15L131.97,48.5h-1.512l5.08-12.902h1.257l5.054,12.902H140.302z
		 M138.237,43.068l-1.494-3.981c-0.193-0.504-0.393-1.122-0.598-1.854c-0.129,0.563-0.313,1.181-0.554,1.854l-1.512,3.981H138.237z"
		/>
	<path fill="#FFFFFF" d="M151.183,47.472c0.258,0,0.507-0.019,0.747-0.058c0.24-0.037,0.431-0.077,0.571-0.118v1.116
		c-0.158,0.076-0.391,0.139-0.699,0.189c-0.308,0.049-0.584,0.074-0.831,0.074c-1.863,0-2.795-0.981-2.795-2.944v-5.73h-1.38v-0.703
		l1.38-0.606l0.615-2.057h0.844v2.232h2.795v1.134h-2.795v5.669c0,0.58,0.138,1.025,0.413,1.336S150.703,47.472,151.183,47.472z"/>
	<path fill="#FFFFFF" d="M158.496,48.676c-1.424,0-2.547-0.434-3.371-1.301s-1.235-2.071-1.235-3.612c0-1.553,0.382-2.786,1.147-3.7
		s1.792-1.371,3.081-1.371c1.207,0,2.162,0.397,2.865,1.191s1.055,1.841,1.055,3.142v0.923h-6.636
		c0.029,1.131,0.315,1.989,0.857,2.575s1.305,0.879,2.29,0.879c1.037,0,2.063-0.217,3.076-0.65v1.301
		c-0.516,0.223-1.003,0.382-1.463,0.479C159.701,48.627,159.146,48.676,158.496,48.676z M158.1,39.913
		c-0.773,0-1.39,0.252-1.85,0.756s-0.731,1.201-0.813,2.092h5.036c0-0.92-0.205-1.624-0.615-2.114
		C159.448,40.158,158.862,39.913,158.1,39.913z"/>
	<path fill="#FFFFFF" d="M168.375,48.676c-1.395,0-2.474-0.429-3.239-1.287s-1.147-2.073-1.147-3.644
		c0-1.611,0.388-2.856,1.165-3.735s1.882-1.318,3.318-1.318c0.463,0,0.926,0.05,1.389,0.149s0.826,0.217,1.09,0.352l-0.448,1.239
		c-0.322-0.129-0.674-0.235-1.055-0.32s-0.718-0.128-1.011-0.128c-1.957,0-2.936,1.248-2.936,3.744c0,1.184,0.239,2.092,0.716,2.725
		s1.185,0.949,2.123,0.949c0.803,0,1.626-0.173,2.47-0.519v1.292C170.165,48.509,169.353,48.676,168.375,48.676z"/>
	<path fill="#FFFFFF" d="M179.686,48.5v-6.231c0-0.785-0.179-1.371-0.536-1.758s-0.917-0.58-1.679-0.58
		c-1.014,0-1.753,0.275-2.219,0.826s-0.699,1.453-0.699,2.707V48.5h-1.459V34.824h1.459v4.14c0,0.498-0.023,0.911-0.07,1.239h0.088
		c0.287-0.463,0.696-0.827,1.226-1.094s1.135-0.4,1.815-0.4c1.178,0,2.061,0.28,2.65,0.84s0.883,1.448,0.883,2.667V48.5H179.686z"/>
	<path fill="#FFFFFF" d="M190.734,48.5v-6.231c0-0.785-0.179-1.371-0.536-1.758s-0.917-0.58-1.679-0.58
		c-1.008,0-1.746,0.272-2.215,0.817s-0.703,1.444-0.703,2.698V48.5h-1.459v-9.633h1.187l0.237,1.318h0.07
		c0.299-0.475,0.718-0.842,1.257-1.104c0.539-0.26,1.14-0.391,1.802-0.391c1.16,0,2.033,0.28,2.619,0.84s0.879,1.454,0.879,2.685
		V48.5H190.734z"/>
	<path fill="#FFFFFF" d="M195.066,36.257c0-0.334,0.082-0.578,0.246-0.733s0.369-0.233,0.615-0.233c0.234,0,0.438,0.079,0.607,0.237
		s0.254,0.401,0.254,0.729s-0.084,0.573-0.254,0.733c-0.17,0.162-0.373,0.242-0.607,0.242c-0.246,0-0.451-0.08-0.615-0.242
		C195.148,36.83,195.066,36.585,195.066,36.257z M196.648,48.5h-1.459v-9.633h1.459V48.5z"/>
	<path fill="#FFFFFF" d="M203.592,48.676c-1.395,0-2.474-0.429-3.238-1.287s-1.146-2.073-1.146-3.644
		c0-1.611,0.388-2.856,1.164-3.735s1.883-1.318,3.318-1.318c0.463,0,0.926,0.05,1.389,0.149s0.826,0.217,1.09,0.352l-0.449,1.239
		c-0.322-0.129-0.674-0.235-1.055-0.32s-0.717-0.128-1.01-0.128c-1.957,0-2.936,1.248-2.936,3.744c0,1.184,0.238,2.092,0.716,2.725
		s1.185,0.949,2.122,0.949c0.803,0,1.627-0.173,2.471-0.519v1.292C205.383,48.509,204.57,48.676,203.592,48.676z"/>
	<path fill="#FFFFFF" d="M214.236,48.5l-0.291-1.371h-0.07c-0.48,0.604-0.959,1.013-1.437,1.227c-0.478,0.213-1.073,0.32-1.788,0.32
		c-0.955,0-1.704-0.246-2.246-0.738s-0.813-1.192-0.813-2.101c0-1.945,1.555-2.965,4.666-3.059l1.635-0.053v-0.598
		c0-0.756-0.162-1.313-0.487-1.675c-0.325-0.359-0.845-0.54-1.56-0.54c-0.803,0-1.711,0.246-2.725,0.738l-0.449-1.116
		c0.475-0.258,0.995-0.46,1.561-0.606s1.133-0.22,1.701-0.22c1.148,0,1.999,0.255,2.553,0.765s0.83,1.327,0.83,2.452V48.5H214.236z
		 M210.939,47.472c0.908,0,1.622-0.249,2.141-0.747s0.777-1.195,0.777-2.092v-0.87l-1.459,0.062
		c-1.16,0.041-1.996,0.222-2.509,0.541s-0.769,0.815-0.769,1.489c0,0.527,0.159,0.929,0.479,1.204S210.365,47.472,210.939,47.472z"
		/>
	<path fill="#FFFFFF" d="M219.781,48.5h-1.459V34.824h1.459V48.5z"/>
	<path fill="#FFFFFF" d="M231.621,48.676c-1.424,0-2.548-0.434-3.371-1.301s-1.234-2.071-1.234-3.612c0-1.553,0.382-2.786,1.146-3.7
		s1.791-1.371,3.08-1.371c1.207,0,2.162,0.397,2.865,1.191s1.055,1.841,1.055,3.142v0.923h-6.635
		c0.029,1.131,0.314,1.989,0.856,2.575s1.306,0.879,2.29,0.879c1.037,0,2.063-0.217,3.076-0.65v1.301
		c-0.516,0.223-1.004,0.382-1.464,0.479C232.826,48.627,232.271,48.676,231.621,48.676z M231.225,39.913
		c-0.773,0-1.39,0.252-1.85,0.756s-0.73,1.201-0.813,2.092h5.035c0-0.92-0.205-1.624-0.615-2.114
		C232.572,40.158,231.986,39.913,231.225,39.913z"/>
	<path fill="#FFFFFF" d="M239.971,43.569l-3.35-4.702h1.662l2.539,3.691l2.531-3.691h1.645l-3.35,4.702l3.525,4.931h-1.652
		l-2.699-3.902l-2.725,3.902h-1.652L239.971,43.569z"/>
	<path fill="#FFFFFF" d="M251.563,48.676c-0.627,0-1.199-0.116-1.718-0.348c-0.519-0.23-0.954-0.587-1.306-1.067h-0.105
		c0.07,0.563,0.105,1.096,0.105,1.6v3.964h-1.459V38.867h1.188l0.201,1.318h0.07c0.375-0.527,0.813-0.908,1.311-1.143
		s1.068-0.352,1.713-0.352c1.277,0,2.264,0.437,2.958,1.31s1.042,2.098,1.042,3.674c0,1.582-0.354,2.812-1.06,3.687
		C253.797,48.238,252.816,48.676,251.563,48.676z M251.352,39.931c-0.984,0-1.695,0.272-2.135,0.817s-0.666,1.412-0.678,2.602v0.325
		c0,1.354,0.227,2.322,0.678,2.905s1.174,0.874,2.17,0.874c0.832,0,1.484-0.337,1.956-1.011s0.708-1.603,0.708-2.786
		c0-1.201-0.236-2.122-0.708-2.765C252.871,40.252,252.207,39.931,251.352,39.931z"/>
	<path fill="#FFFFFF" d="M262.18,48.676c-1.424,0-2.547-0.434-3.37-1.301s-1.235-2.071-1.235-3.612c0-1.553,0.383-2.786,1.147-3.7
		s1.792-1.371,3.081-1.371c1.207,0,2.162,0.397,2.865,1.191s1.055,1.841,1.055,3.142v0.923h-6.637
		c0.029,1.131,0.315,1.989,0.857,2.575s1.305,0.879,2.289,0.879c1.037,0,2.063-0.217,3.076-0.65v1.301
		c-0.516,0.223-1.003,0.382-1.463,0.479C263.386,48.627,262.83,48.676,262.18,48.676z M261.785,39.913
		c-0.773,0-1.391,0.252-1.851,0.756s-0.731,1.201-0.813,2.092h5.037c0-0.92-0.205-1.624-0.615-2.114
		C263.133,40.158,262.547,39.913,261.785,39.913z"/>
	<path fill="#FFFFFF" d="M272.604,38.691c0.428,0,0.813,0.035,1.152,0.105l-0.203,1.354c-0.398-0.088-0.75-0.132-1.055-0.132
		c-0.779,0-1.445,0.316-1.999,0.949s-0.831,1.421-0.831,2.364V48.5h-1.459v-9.633h1.205l0.166,1.784h0.07
		c0.357-0.627,0.789-1.11,1.293-1.45S272,38.691,272.604,38.691z"/>
	<path fill="#FFFFFF" d="M278.668,47.472c0.258,0,0.508-0.019,0.748-0.058c0.24-0.037,0.43-0.077,0.57-0.118v1.116
		c-0.158,0.076-0.391,0.139-0.698,0.189c-0.308,0.049-0.585,0.074-0.831,0.074c-1.863,0-2.795-0.981-2.795-2.944v-5.73h-1.379
		v-0.703l1.379-0.606l0.615-2.057h0.844v2.232h2.795v1.134h-2.795v5.669c0,0.58,0.139,1.025,0.414,1.336
		S278.188,47.472,278.668,47.472z"/>
	<path fill="#FFFFFF" d="M294.453,48.5l-1.766-5.651c-0.111-0.346-0.32-1.131-0.625-2.355h-0.07
		c-0.234,1.025-0.439,1.816-0.615,2.373l-1.818,5.634h-1.688l-2.629-9.633h1.529c0.621,2.42,1.095,4.263,1.42,5.528
		s0.512,2.118,0.559,2.558h0.07c0.064-0.334,0.168-0.766,0.312-1.297c0.144-0.529,0.269-0.95,0.374-1.261l1.766-5.528h1.582
		l1.723,5.528c0.328,1.008,0.551,1.854,0.668,2.54h0.07c0.023-0.211,0.087-0.536,0.189-0.976s0.713-2.804,1.832-7.093h1.512
		l-2.662,9.633H294.453z"/>
	<path fill="#FFFFFF" d="M300.465,36.257c0-0.334,0.082-0.578,0.246-0.733s0.369-0.233,0.615-0.233c0.234,0,0.438,0.079,0.607,0.237
		s0.254,0.401,0.254,0.729s-0.084,0.573-0.254,0.733c-0.17,0.162-0.373,0.242-0.607,0.242c-0.246,0-0.451-0.08-0.615-0.242
		C300.547,36.83,300.465,36.585,300.465,36.257z M302.047,48.5h-1.459v-9.633h1.459V48.5z"/>
	<path fill="#FFFFFF" d="M306.6,48.5h-1.459V34.824h1.459V48.5z"/>
	<path fill="#FFFFFF" d="M311.152,48.5h-1.459V34.824h1.459V48.5z"/>
	<path fill="#FFFFFF" d="M322.771,48.676c-1.395,0-2.474-0.429-3.238-1.287s-1.146-2.073-1.146-3.644
		c0-1.611,0.388-2.856,1.164-3.735s1.883-1.318,3.318-1.318c0.463,0,0.926,0.05,1.389,0.149s0.826,0.217,1.09,0.352l-0.449,1.239
		c-0.322-0.129-0.674-0.235-1.055-0.32s-0.717-0.128-1.01-0.128c-1.957,0-2.936,1.248-2.936,3.744c0,1.184,0.238,2.092,0.716,2.725
		s1.185,0.949,2.122,0.949c0.803,0,1.627-0.173,2.471-0.519v1.292C324.563,48.509,323.75,48.676,322.771,48.676z"/>
	<path fill="#FFFFFF" d="M333.416,48.5l-0.291-1.371h-0.07c-0.48,0.604-0.959,1.013-1.437,1.227c-0.478,0.213-1.073,0.32-1.788,0.32
		c-0.955,0-1.704-0.246-2.246-0.738s-0.813-1.192-0.813-2.101c0-1.945,1.555-2.965,4.666-3.059l1.635-0.053v-0.598
		c0-0.756-0.162-1.313-0.487-1.675c-0.325-0.359-0.845-0.54-1.56-0.54c-0.803,0-1.711,0.246-2.725,0.738l-0.449-1.116
		c0.475-0.258,0.995-0.46,1.561-0.606s1.133-0.22,1.701-0.22c1.148,0,1.999,0.255,2.553,0.765s0.83,1.327,0.83,2.452V48.5H333.416z
		 M330.119,47.472c0.908,0,1.622-0.249,2.141-0.747s0.777-1.195,0.777-2.092v-0.87l-1.459,0.062
		c-1.16,0.041-1.996,0.222-2.509,0.541s-0.769,0.815-0.769,1.489c0,0.527,0.159,0.929,0.479,1.204S329.545,47.472,330.119,47.472z"
		/>
	<path fill="#FFFFFF" d="M338.961,48.5h-1.459V34.824h1.459V48.5z"/>
	<path fill="#FFFFFF" d="M343.514,48.5h-1.459V34.824h1.459V48.5z"/>
	<path fill="#FFFFFF" d="M349.754,38.867h1.564l2.109,5.493c0.463,1.254,0.75,2.159,0.861,2.716h0.07
		c0.076-0.299,0.236-0.81,0.479-1.533s1.038-2.949,2.386-6.676h1.564l-4.139,10.969c-0.41,1.084-0.89,1.853-1.438,2.307
		s-1.221,0.682-2.018,0.682c-0.445,0-0.885-0.05-1.318-0.149v-1.169c0.322,0.07,0.684,0.105,1.082,0.105
		c1.002,0,1.717-0.563,2.145-1.688l0.535-1.371L349.754,38.867z"/>
	<path fill="#FFFFFF" d="M368.668,43.675c0,1.57-0.395,2.797-1.186,3.679s-1.885,1.322-3.279,1.322
		c-0.861,0-1.625-0.202-2.293-0.606s-1.184-0.984-1.547-1.74s-0.545-1.641-0.545-2.654c0-1.57,0.393-2.793,1.178-3.669
		s1.875-1.314,3.27-1.314c1.348,0,2.418,0.448,3.212,1.345S368.668,42.146,368.668,43.675z M361.33,43.675
		c0,1.23,0.246,2.168,0.738,2.813s1.215,0.967,2.17,0.967s1.681-0.321,2.176-0.962c0.495-0.643,0.742-1.581,0.742-2.817
		c0-1.225-0.247-2.154-0.742-2.79s-1.227-0.954-2.193-0.954c-0.955,0-1.676,0.313-2.162,0.94S361.33,42.433,361.33,43.675z"/>
	<path fill="#FFFFFF" d="M372.598,38.867v6.249c0,0.785,0.178,1.371,0.535,1.758s0.918,0.58,1.68,0.58
		c1.008,0,1.744-0.275,2.21-0.826s0.698-1.45,0.698-2.698v-5.063h1.459V48.5h-1.203l-0.211-1.292h-0.08
		c-0.299,0.475-0.713,0.838-1.243,1.09s-1.136,0.378-1.815,0.378c-1.172,0-2.049-0.278-2.632-0.835s-0.874-1.447-0.874-2.672v-6.302
		H372.598z"/>
	<path fill="#FFFFFF" d="M393.164,45.872c0,0.896-0.334,1.588-1.002,2.074s-1.605,0.729-2.813,0.729
		c-1.277,0-2.273-0.202-2.988-0.606v-1.354c0.463,0.234,0.959,0.419,1.489,0.554s1.042,0.202,1.534,0.202
		c0.762,0,1.348-0.121,1.758-0.364s0.615-0.614,0.615-1.112c0-0.375-0.163-0.695-0.488-0.962s-0.959-0.582-1.902-0.945
		c-0.896-0.334-1.534-0.625-1.912-0.875c-0.378-0.248-0.659-0.531-0.844-0.848s-0.277-0.694-0.277-1.134
		c0-0.785,0.32-1.404,0.959-1.858s1.514-0.682,2.627-0.682c1.037,0,2.051,0.211,3.041,0.633l-0.518,1.187
		c-0.967-0.398-1.844-0.598-2.629-0.598c-0.691,0-1.213,0.108-1.564,0.325s-0.527,0.516-0.527,0.896
		c0,0.258,0.066,0.478,0.198,0.659s0.345,0.354,0.638,0.519s0.855,0.401,1.688,0.712c1.143,0.416,1.914,0.835,2.315,1.257
		S393.164,45.233,393.164,45.872z"/>
	<path fill="#FFFFFF" d="M402.129,48.5v-6.231c0-0.785-0.18-1.371-0.537-1.758s-0.916-0.58-1.678-0.58
		c-1.014,0-1.754,0.275-2.22,0.826s-0.698,1.453-0.698,2.707V48.5h-1.459V34.824h1.459v4.14c0,0.498-0.023,0.911-0.07,1.239h0.088
		c0.287-0.463,0.695-0.827,1.226-1.094s1.136-0.4,1.815-0.4c1.178,0,2.061,0.28,2.649,0.84s0.884,1.448,0.884,2.667V48.5H402.129z"
		/>
	<path fill="#FFFFFF" d="M414.898,43.675c0,1.57-0.395,2.797-1.186,3.679s-1.885,1.322-3.279,1.322
		c-0.861,0-1.625-0.202-2.293-0.606s-1.184-0.984-1.547-1.74s-0.545-1.641-0.545-2.654c0-1.57,0.393-2.793,1.178-3.669
		s1.875-1.314,3.27-1.314c1.348,0,2.418,0.448,3.211,1.345C414.502,40.933,414.898,42.146,414.898,43.675z M407.561,43.675
		c0,1.23,0.246,2.168,0.738,2.813s1.215,0.967,2.17,0.967s1.68-0.321,2.176-0.962c0.494-0.643,0.742-1.581,0.742-2.817
		c0-1.225-0.248-2.154-0.742-2.79c-0.496-0.636-1.227-0.954-2.193-0.954c-0.955,0-1.676,0.313-2.162,0.94
		S407.561,42.433,407.561,43.675z"/>
	<path fill="#FFFFFF" d="M421.852,38.691c0.428,0,0.811,0.035,1.15,0.105l-0.201,1.354c-0.398-0.088-0.75-0.132-1.055-0.132
		c-0.779,0-1.445,0.316-2,0.949c-0.553,0.633-0.83,1.421-0.83,2.364V48.5h-1.459v-9.633h1.203l0.168,1.784h0.07
		c0.357-0.627,0.787-1.11,1.291-1.45S421.248,38.691,421.852,38.691z"/>
	<path fill="#FFFFFF" d="M427.916,47.472c0.258,0,0.506-0.019,0.746-0.058c0.24-0.037,0.432-0.077,0.572-0.118v1.116
		c-0.158,0.076-0.391,0.139-0.699,0.189c-0.307,0.049-0.584,0.074-0.83,0.074c-1.863,0-2.795-0.981-2.795-2.944v-5.73h-1.381v-0.703
		l1.381-0.606l0.615-2.057h0.844v2.232h2.795v1.134h-2.795v5.669c0,0.58,0.137,1.025,0.412,1.336S427.436,47.472,427.916,47.472z"/>
	<path fill="#FFFFFF" d="M432.617,48.5h-1.459V34.824h1.459V48.5z"/>
	<path fill="#FFFFFF" d="M434.182,38.867h1.564l2.109,5.493c0.463,1.254,0.75,2.159,0.861,2.716h0.07
		c0.076-0.299,0.236-0.81,0.479-1.533c0.244-0.724,1.039-2.949,2.387-6.676h1.564l-4.139,10.969
		c-0.41,1.084-0.891,1.853-1.438,2.307c-0.549,0.454-1.221,0.682-2.018,0.682c-0.445,0-0.885-0.05-1.318-0.149v-1.169
		c0.322,0.07,0.684,0.105,1.082,0.105c1.002,0,1.717-0.563,2.145-1.688l0.535-1.371L434.182,38.867z"/>
	<path fill="#FFFFFF" d="M444.57,47.568c0-0.393,0.09-0.689,0.268-0.893c0.18-0.201,0.436-0.303,0.77-0.303
		c0.34,0,0.605,0.102,0.795,0.303c0.191,0.203,0.287,0.5,0.287,0.893c0,0.381-0.098,0.674-0.291,0.879s-0.457,0.308-0.791,0.308
		c-0.299,0-0.547-0.093-0.742-0.276C444.668,48.293,444.57,47.99,444.57,47.568z"/>
</g>
<g enable-background="new    ">
	<path fill="#FFFFFF" d="M272.814,19.33c-0.547,0.195-1.625,0.518-2.9,0.518c-1.429,0-2.605-0.364-3.529-1.246
		c-0.813-0.784-1.316-2.045-1.316-3.516c0.014-2.816,1.946-4.875,5.112-4.875c1.093,0,1.946,0.238,2.353,0.435l-0.293,0.994
		c-0.505-0.225-1.135-0.406-2.088-0.406c-2.297,0-3.796,1.429-3.796,3.796c0,2.396,1.442,3.811,3.642,3.811
		c0.799,0,1.346-0.112,1.625-0.253v-2.815h-1.919v-0.98h3.11V19.33z"/>
	<path fill="#FFFFFF" d="M278.496,19.75l-0.098-0.854h-0.043c-0.378,0.532-1.106,1.009-2.072,1.009
		c-1.373,0-2.074-0.967-2.074-1.947c0-1.639,1.457-2.535,4.076-2.521v-0.14c0-0.561-0.153-1.569-1.54-1.569
		c-0.63,0-1.289,0.196-1.765,0.505l-0.281-0.813c0.561-0.364,1.373-0.603,2.228-0.603c2.073,0,2.577,1.415,2.577,2.773v2.535
		c0,0.589,0.028,1.163,0.112,1.625H278.496z M278.313,16.29c-1.345-0.028-2.871,0.21-2.871,1.527c0,0.798,0.532,1.176,1.163,1.176
		c0.882,0,1.441-0.56,1.639-1.134c0.041-0.127,0.069-0.267,0.069-0.393V16.29z"/>
	<path fill="#FFFFFF" d="M281.322,18.489c0.363,0.238,1.008,0.49,1.625,0.49c0.896,0,1.316-0.448,1.316-1.009
		c0-0.588-0.351-0.91-1.262-1.246c-1.218-0.435-1.793-1.106-1.793-1.919c0-1.093,0.883-1.989,2.34-1.989
		c0.687,0,1.289,0.196,1.667,0.42l-0.308,0.896c-0.267-0.168-0.757-0.392-1.387-0.392c-0.729,0-1.135,0.42-1.135,0.924
		c0,0.561,0.406,0.813,1.288,1.148c1.177,0.448,1.779,1.037,1.779,2.046c0,1.19-0.925,2.03-2.536,2.03
		c-0.742,0-1.428-0.182-1.904-0.462L281.322,18.489z"/>
	<path fill="#FFFFFF" d="M288.519,11.023v1.947h1.765v0.938h-1.765v3.655c0,0.841,0.238,1.317,0.925,1.317
		c0.322,0,0.561-0.042,0.714-0.084l0.056,0.924c-0.237,0.099-0.615,0.168-1.092,0.168c-0.574,0-1.037-0.182-1.331-0.518
		c-0.351-0.364-0.476-0.967-0.476-1.766v-3.697h-1.051v-0.938h1.051v-1.625L288.519,11.023z"/>
	<path fill="#FFFFFF" d="M291.668,15.086c0-0.799-0.015-1.485-0.057-2.115h1.078l0.043,1.33h0.056
		c0.308-0.91,1.051-1.484,1.877-1.484c0.14,0,0.238,0.014,0.351,0.042v1.162c-0.127-0.027-0.252-0.042-0.42-0.042
		c-0.869,0-1.485,0.659-1.653,1.583c-0.028,0.168-0.056,0.364-0.056,0.574v3.614h-1.219V15.086z"/>
	<path fill="#FFFFFF" d="M302.24,16.304c0,2.508-1.736,3.601-3.375,3.601c-1.835,0-3.25-1.345-3.25-3.488
		c0-2.27,1.484-3.6,3.361-3.6C300.924,12.816,302.24,14.231,302.24,16.304z M296.861,16.374c0,1.485,0.855,2.605,2.06,2.605
		c1.177,0,2.06-1.106,2.06-2.634c0-1.148-0.574-2.604-2.031-2.604S296.861,15.086,296.861,16.374z"/>
	<path fill="#FFFFFF" d="M309.633,12.971c-0.028,0.49-0.057,1.036-0.057,1.862v3.937c0,1.555-0.308,2.507-0.966,3.096
		c-0.659,0.616-1.61,0.813-2.466,0.813c-0.813,0-1.709-0.196-2.255-0.561l0.308-0.938c0.449,0.28,1.149,0.532,1.99,0.532
		c1.26,0,2.185-0.658,2.185-2.367v-0.757h-0.028c-0.378,0.631-1.106,1.135-2.156,1.135c-1.682,0-2.887-1.429-2.887-3.306
		c0-2.297,1.5-3.6,3.055-3.6c1.176,0,1.82,0.616,2.115,1.177h0.027l0.057-1.022H309.633z M308.357,15.646
		c0-0.21-0.014-0.392-0.069-0.56c-0.224-0.715-0.827-1.303-1.724-1.303c-1.176,0-2.017,0.994-2.017,2.563
		c0,1.331,0.673,2.438,2.003,2.438c0.757,0,1.443-0.476,1.709-1.261c0.07-0.21,0.098-0.448,0.098-0.658V15.646z"/>
	<path fill="#FFFFFF" d="M311.533,15.086c0-0.799-0.014-1.485-0.056-2.115h1.079l0.041,1.33h0.057
		c0.309-0.91,1.051-1.484,1.877-1.484c0.141,0,0.238,0.014,0.351,0.042v1.162c-0.126-0.027-0.253-0.042-0.421-0.042
		c-0.868,0-1.484,0.659-1.652,1.583c-0.028,0.168-0.057,0.364-0.057,0.574v3.614h-1.219V15.086z"/>
	<path fill="#FFFFFF" d="M319.795,19.75l-0.098-0.854h-0.041c-0.379,0.532-1.107,1.009-2.074,1.009
		c-1.373,0-2.072-0.967-2.072-1.947c0-1.639,1.457-2.535,4.076-2.521v-0.14c0-0.561-0.154-1.569-1.541-1.569
		c-0.631,0-1.289,0.196-1.766,0.505L316,13.419c0.561-0.364,1.372-0.603,2.227-0.603c2.073,0,2.578,1.415,2.578,2.773v2.535
		c0,0.589,0.027,1.163,0.111,1.625H319.795z M319.613,16.29c-1.345-0.028-2.871,0.21-2.871,1.527c0,0.798,0.532,1.176,1.162,1.176
		c0.883,0,1.443-0.56,1.639-1.134c0.043-0.127,0.07-0.267,0.07-0.393V16.29z"/>
	<path fill="#FFFFFF" d="M322.789,15.184c0-0.868-0.027-1.569-0.056-2.213h1.106l0.057,1.162h0.027
		c0.505-0.826,1.303-1.316,2.41-1.316c1.639,0,2.871,1.387,2.871,3.445c0,2.438-1.484,3.643-3.082,3.643
		c-0.896,0-1.681-0.393-2.087-1.064h-0.028v3.684h-1.219V15.184z M324.008,16.99c0,0.183,0.028,0.351,0.057,0.505
		c0.225,0.854,0.967,1.442,1.849,1.442c1.303,0,2.06-1.064,2.06-2.619c0-1.359-0.715-2.521-2.018-2.521
		c-0.84,0-1.625,0.603-1.863,1.526c-0.041,0.154-0.084,0.337-0.084,0.505V16.99z"/>
	<path fill="#FFFFFF" d="M330.756,9.805h1.232v4.23h0.027c0.197-0.351,0.505-0.658,0.883-0.869c0.364-0.21,0.799-0.35,1.261-0.35
		c0.911,0,2.367,0.561,2.367,2.899v4.034h-1.232v-3.895c0-1.092-0.406-2.017-1.569-2.017c-0.798,0-1.428,0.561-1.652,1.232
		c-0.07,0.168-0.084,0.351-0.084,0.589v4.09h-1.232V9.805z"/>
	<path fill="#FFFFFF" d="M343.063,16.78l-0.98,2.97h-1.262l3.209-9.441h1.471l3.221,9.441h-1.303l-1.008-2.97H343.063z
		 M346.158,15.828l-0.925-2.718c-0.21-0.616-0.351-1.177-0.49-1.723h-0.028c-0.141,0.561-0.294,1.135-0.477,1.709l-0.924,2.731
		H346.158z"/>
	<path fill="#FFFFFF" d="M350.02,9.805h1.232v9.945h-1.232V9.805z"/>
	<path fill="#FFFFFF" d="M354.01,16.584c0.027,1.667,1.093,2.354,2.325,2.354c0.882,0,1.415-0.154,1.877-0.351l0.21,0.883
		c-0.434,0.196-1.176,0.42-2.255,0.42c-2.087,0-3.334-1.372-3.334-3.417c0-2.046,1.204-3.656,3.18-3.656
		c2.214,0,2.802,1.947,2.802,3.193c0,0.252-0.028,0.448-0.042,0.574H354.01z M357.623,15.702c0.015-0.785-0.322-2.003-1.709-2.003
		c-1.246,0-1.793,1.148-1.891,2.003H357.623z"/>
	<path fill="#FFFFFF" d="M360.337,15.086c0-0.799-0.014-1.485-0.056-2.115h1.078l0.042,1.33h0.056
		c0.309-0.91,1.051-1.484,1.877-1.484c0.141,0,0.238,0.014,0.351,0.042v1.162c-0.126-0.027-0.252-0.042-0.42-0.042
		c-0.868,0-1.485,0.659-1.653,1.583c-0.027,0.168-0.056,0.364-0.056,0.574v3.614h-1.219V15.086z"/>
	<path fill="#FFFFFF" d="M366.735,11.023v1.947h1.765v0.938h-1.765v3.655c0,0.841,0.238,1.317,0.925,1.317
		c0.322,0,0.561-0.042,0.714-0.084l0.056,0.924c-0.237,0.099-0.615,0.168-1.092,0.168c-0.574,0-1.037-0.182-1.331-0.518
		c-0.351-0.364-0.476-0.967-0.476-1.766v-3.697h-1.051v-0.938h1.051v-1.625L366.735,11.023z"/>
	<path fill="#FFFFFF" d="M369.717,18.489c0.364,0.238,1.008,0.49,1.625,0.49c0.896,0,1.316-0.448,1.316-1.009
		c0-0.588-0.35-0.91-1.261-1.246c-1.218-0.435-1.793-1.106-1.793-1.919c0-1.093,0.883-1.989,2.339-1.989
		c0.688,0,1.289,0.196,1.668,0.42l-0.309,0.896c-0.266-0.168-0.756-0.392-1.387-0.392c-0.729,0-1.135,0.42-1.135,0.924
		c0,0.561,0.406,0.813,1.289,1.148c1.176,0.448,1.779,1.037,1.779,2.046c0,1.19-0.926,2.03-2.536,2.03
		c-0.742,0-1.429-0.182-1.905-0.462L369.717,18.489z"/>
	<path fill="#FFFFFF" d="M377.359,20.311l3.908-10.155h0.953l-3.922,10.155H377.359z"/>
	<path fill="#FFFFFF" d="M382.162,20.311l3.908-10.155h0.952L383.1,20.311H382.162z"/>
	<path fill="#FFFFFF" d="M393.251,11.794h-0.028l-1.582,0.854l-0.238-0.938l1.988-1.064h1.051v9.104h-1.19V11.794z"/>
	<path fill="#FFFFFF" d="M403.809,15.1c0,3.096-1.148,4.805-3.165,4.805c-1.779,0-2.983-1.667-3.012-4.679
		c0-3.054,1.316-4.734,3.165-4.734C402.717,10.491,403.809,12.2,403.809,15.1z M398.864,15.239c0,2.367,0.729,3.712,1.849,3.712
		c1.262,0,1.863-1.471,1.863-3.796c0-2.241-0.574-3.712-1.849-3.712C399.648,11.443,398.864,12.76,398.864,15.239z"/>
	<path fill="#FFFFFF" d="M405.037,14.091c0-0.519,0.351-0.883,0.841-0.883s0.813,0.364,0.827,0.883c0,0.49-0.322,0.868-0.842,0.868
		C405.373,14.959,405.037,14.581,405.037,14.091z M405.037,19.035c0-0.518,0.351-0.882,0.841-0.882s0.813,0.364,0.827,0.882
		c0,0.49-0.322,0.869-0.842,0.869C405.373,19.904,405.037,19.525,405.037,19.035z"/>
	<path fill="#FFFFFF" d="M407.838,19.75v-0.757l0.966-0.938c2.325-2.213,3.376-3.39,3.39-4.762c0-0.925-0.447-1.779-1.807-1.779
		c-0.826,0-1.513,0.42-1.934,0.771l-0.392-0.869c0.63-0.532,1.526-0.924,2.577-0.924c1.961,0,2.787,1.345,2.787,2.647
		c0,1.681-1.219,3.039-3.137,4.889l-0.729,0.672v0.028h4.09v1.022H407.838z"/>
	<path fill="#FFFFFF" d="M420.216,11.514c-0.252-0.014-0.574,0-0.925,0.056c-1.933,0.322-2.955,1.737-3.166,3.236h0.043
		c0.434-0.574,1.19-1.051,2.199-1.051c1.61,0,2.745,1.162,2.745,2.941c0,1.667-1.135,3.208-3.025,3.208
		c-1.947,0-3.222-1.513-3.222-3.88c0-1.793,0.645-3.208,1.541-4.104c0.756-0.742,1.765-1.205,2.913-1.345
		c0.364-0.057,0.673-0.07,0.896-0.07V11.514z M419.865,16.767c0-1.303-0.742-2.087-1.877-2.087c-0.742,0-1.428,0.462-1.765,1.12
		c-0.084,0.14-0.14,0.322-0.14,0.546c0.027,1.499,0.714,2.605,2.003,2.605C419.151,18.951,419.865,18.069,419.865,16.767z"/>
	<path fill="#FFFFFF" d="M427.129,16.78l-0.98,2.97h-1.26l3.207-9.441h1.471l3.223,9.441h-1.303l-1.009-2.97H427.129z
		 M430.225,15.828l-0.924-2.718c-0.211-0.616-0.35-1.177-0.49-1.723h-0.028c-0.14,0.561-0.294,1.135-0.476,1.709l-0.925,2.731
		H430.225z"/>
	<path fill="#FFFFFF" d="M442.071,15.604c-0.07-1.316-0.154-2.899-0.14-4.076h-0.043c-0.322,1.106-0.714,2.283-1.19,3.586
		l-1.667,4.581h-0.924l-1.527-4.497c-0.448-1.33-0.826-2.549-1.092-3.67h-0.029c-0.027,1.177-0.098,2.76-0.182,4.175l-0.252,4.048
		h-1.162l0.658-9.441h1.555l1.611,4.566c0.392,1.163,0.714,2.199,0.951,3.18h0.043c0.238-0.952,0.574-1.988,0.994-3.18l1.682-4.566
		h1.555l0.588,9.441h-1.191L442.071,15.604z"/>
</g>
</svg>
