<?xml version="1.0" encoding="utf-8"?>
<!-- Generator: Adobe Illustrator 16.0.0, SVG Export Plug-In . SVG Version: 6.00 Build 0)  -->
<!DOCTYPE svg PUBLIC "-//W3C//DTD SVG 1.1//EN" "http://www.w3.org/Graphics/SVG/1.1/DTD/svg11.dtd">
<svg version="1.1" id="Layer_1" xmlns="http://www.w3.org/2000/svg" xmlns:xlink="http://www.w3.org/1999/xlink" x="0px" y="0px"
	 width="185.375px" height="63.087px" viewBox="0 -4.962 185.375 63.087" enable-background="new 0 -4.962 185.375 63.087"
	 xml:space="preserve">
<rect y="-4.962" opacity="0.7" fill="#25C600" enable-background="new    " width="185.375" height="63.087"/>
<g enable-background="new    ">
	<path fill="#FFFFFF" d="M35.572,43.5h-1.417v-6.047h-6.417V43.5h-1.417V30.65h1.417v5.467h6.417V30.65h1.417V43.5z"/>
	<path fill="#FFFFFF" d="M45.706,43.5h-6.792V30.65h6.792v1.327H40.33v4.14h5.05v1.318h-5.05v4.729h5.375V43.5z"/>
	<path fill="#FFFFFF" d="M48.406,43.5V30.65h1.417v11.496h5.375V43.5H48.406z"/>
	<path fill="#FFFFFF" d="M64.99,34.395c0,1.301-0.421,2.301-1.262,3.002c-0.842,0.699-2.046,1.05-3.613,1.05h-1.434V43.5h-1.417
		V30.65h3.158C63.467,30.65,64.99,31.898,64.99,34.395z M58.681,37.163h1.275c1.256,0,2.164-0.214,2.726-0.642
		c0.561-0.428,0.841-1.113,0.841-2.057c0-0.85-0.264-1.482-0.792-1.898s-1.35-0.624-2.467-0.624h-1.583V37.163z"/>
</g>
<g enable-background="new    ">
	<path fill="#FFFFFF" d="M19.146,14.75v-4.006l-2.828-5.435h1.314l1.261,2.605c0.345,0.715,0.61,1.289,0.889,1.947h0.027
		c0.252-0.616,0.558-1.232,0.903-1.947L22,5.309h1.314l-3,5.421v4.02H19.146z"/>
	<path fill="#FFFFFF" d="M29.103,11.304c0,2.507-1.646,3.6-3.199,3.6c-1.739,0-3.08-1.345-3.08-3.488c0-2.269,1.407-3.6,3.186-3.6
		C27.854,7.816,29.103,9.231,29.103,11.304z M24.005,11.374c0,1.485,0.81,2.605,1.951,2.605c1.115,0,1.952-1.106,1.952-2.633
		c0-1.148-0.544-2.605-1.925-2.605C24.602,8.741,24.005,10.085,24.005,11.374z"/>
	<path fill="#FFFFFF" d="M35.952,12.901c0,0.701,0.013,1.317,0.053,1.849H34.97l-0.066-1.106h-0.027
		c-0.305,0.546-0.982,1.261-2.124,1.261c-1.009,0-2.217-0.588-2.217-2.97V7.97h1.168v3.754c0,1.289,0.372,2.157,1.434,2.157
		c0.783,0,1.328-0.574,1.54-1.121c0.066-0.182,0.106-0.406,0.106-0.63V7.97h1.168V12.901z"/>
	<path fill="#FFFFFF" d="M39.722,15.311l3.704-10.156h0.903l-3.717,10.156H39.722z"/>
	<path fill="#FFFFFF" d="M44.275,15.311l3.704-10.156h0.903l-3.717,10.156H44.275z"/>
	<path fill="#FFFFFF" d="M54.788,6.794h-0.026l-1.5,0.854l-0.226-0.938l1.885-1.064h0.996v9.105h-1.128V6.794z"/>
	<path fill="#FFFFFF" d="M64.797,10.1c0,3.096-1.088,4.805-3,4.805c-1.686,0-2.828-1.667-2.854-4.679c0-3.054,1.248-4.734,3-4.734
		C63.762,5.491,64.797,7.2,64.797,10.1z M60.111,10.24c0,2.367,0.69,3.712,1.752,3.712c1.195,0,1.766-1.471,1.766-3.796
		c0-2.241-0.544-3.712-1.752-3.712C60.854,6.443,60.111,7.76,60.111,10.24z"/>
	<path fill="#FFFFFF" d="M65.965,9.091c0-0.518,0.332-0.882,0.796-0.882s0.77,0.364,0.783,0.882c0,0.49-0.305,0.869-0.796,0.869
		C66.284,9.959,65.965,9.581,65.965,9.091z M65.965,14.036c0-0.518,0.332-0.882,0.796-0.882s0.77,0.364,0.783,0.882
		c0,0.49-0.305,0.869-0.796,0.869C66.284,14.904,65.965,14.526,65.965,14.036z"/>
	<path fill="#FFFFFF" d="M68.62,14.75v-0.756l0.916-0.938c2.204-2.213,3.2-3.39,3.212-4.763c0-0.924-0.424-1.779-1.712-1.779
		c-0.783,0-1.434,0.42-1.832,0.771l-0.372-0.869c0.598-0.532,1.447-0.924,2.443-0.924c1.858,0,2.641,1.345,2.641,2.647
		c0,1.681-1.154,3.04-2.973,4.888l-0.69,0.672v0.028h3.876v1.022H68.62z"/>
	<path fill="#FFFFFF" d="M80.58,6.682h-3.292l-0.332,2.339c0.199-0.028,0.385-0.056,0.704-0.056c0.663,0,1.327,0.154,1.857,0.49
		c0.678,0.406,1.235,1.191,1.235,2.339c0,1.779-1.341,3.11-3.213,3.11c-0.942,0-1.739-0.28-2.15-0.561l0.292-0.938
		c0.358,0.224,1.063,0.504,1.846,0.504c1.102,0,2.044-0.756,2.044-1.975c-0.013-1.177-0.757-2.017-2.482-2.017
		c-0.491,0-0.876,0.056-1.194,0.098l0.557-4.371h4.129V6.682z"/>
	<path fill="#FFFFFF" d="M86.912,11.78l-0.93,2.97h-1.194l3.04-9.441h1.394l3.054,9.441h-1.234l-0.956-2.97H86.912z M89.846,10.828
		L88.97,8.11c-0.199-0.616-0.332-1.177-0.465-1.723h-0.026c-0.133,0.56-0.279,1.134-0.451,1.708l-0.877,2.732H89.846z"/>
	<path fill="#FFFFFF" d="M101.076,10.604c-0.066-1.316-0.146-2.899-0.133-4.076h-0.039c-0.306,1.107-0.678,2.283-1.129,3.586
		l-1.58,4.581H97.32l-1.447-4.496c-0.426-1.331-0.783-2.55-1.035-3.67h-0.027c-0.026,1.177-0.093,2.76-0.172,4.174l-0.24,4.048
		h-1.102l0.625-9.441h1.473l1.527,4.566c0.371,1.163,0.677,2.199,0.902,3.18h0.039c0.227-0.953,0.545-1.989,0.943-3.18l1.593-4.566
		h1.474l0.558,9.441h-1.128L101.076,10.604z"/>
</g>
</svg>
