<?xml version="1.0" encoding="utf-8"?>
<!-- Generator: Adobe Illustrator 16.0.0, SVG Export Plug-In . SVG Version: 6.00 Build 0)  -->
<!DOCTYPE svg PUBLIC "-//W3C//DTD SVG 1.1//EN" "http://www.w3.org/Graphics/SVG/1.1/DTD/svg11.dtd">
<svg version="1.1" id="Layer_1" xmlns="http://www.w3.org/2000/svg" xmlns:xlink="http://www.w3.org/1999/xlink" x="0px" y="0px"
	 width="653.438px" height="107.375px" viewBox="0 -5.625 653.438 107.375" enable-background="new 0 -5.625 653.438 107.375"
	 xml:space="preserve">
<rect y="-5.625" opacity="0.7" fill="#001F54" enable-background="new    " width="653.438" height="107.375"/>
<g enable-background="new    ">
	<path fill="#FFFFFF" d="M457.189,14.58c-0.547,0.195-1.625,0.518-2.9,0.518c-1.429,0-2.605-0.364-3.529-1.246
		c-0.813-0.784-1.316-2.045-1.316-3.516c0.014-2.816,1.946-4.875,5.112-4.875c1.093,0,1.946,0.238,2.353,0.435l-0.293,0.994
		c-0.505-0.225-1.135-0.406-2.088-0.406c-2.297,0-3.796,1.429-3.796,3.796c0,2.396,1.442,3.811,3.642,3.811
		c0.799,0,1.346-0.112,1.625-0.253v-2.815h-1.919v-0.98h3.11V14.58z"/>
	<path fill="#FFFFFF" d="M462.871,15l-0.098-0.854h-0.043c-0.378,0.532-1.106,1.009-2.072,1.009c-1.373,0-2.074-0.967-2.074-1.947
		c0-1.639,1.457-2.535,4.076-2.521v-0.14c0-0.561-0.153-1.569-1.54-1.569c-0.63,0-1.289,0.196-1.765,0.505l-0.281-0.813
		c0.561-0.364,1.373-0.603,2.228-0.603c2.073,0,2.577,1.415,2.577,2.773v2.535c0,0.589,0.028,1.163,0.112,1.625H462.871z
		 M462.688,11.54c-1.345-0.028-2.871,0.21-2.871,1.527c0,0.798,0.532,1.176,1.163,1.176c0.882,0,1.441-0.56,1.639-1.134
		c0.041-0.127,0.069-0.267,0.069-0.393V11.54z"/>
	<path fill="#FFFFFF" d="M465.697,13.739c0.363,0.238,1.008,0.49,1.625,0.49c0.896,0,1.316-0.448,1.316-1.009
		c0-0.588-0.351-0.91-1.262-1.246c-1.218-0.435-1.793-1.106-1.793-1.919c0-1.093,0.883-1.989,2.34-1.989
		c0.687,0,1.289,0.196,1.667,0.42l-0.308,0.896c-0.267-0.168-0.757-0.392-1.387-0.392c-0.729,0-1.135,0.42-1.135,0.924
		c0,0.561,0.406,0.813,1.288,1.148c1.177,0.448,1.779,1.037,1.779,2.046c0,1.19-0.925,2.03-2.536,2.03
		c-0.742,0-1.428-0.182-1.904-0.462L465.697,13.739z"/>
	<path fill="#FFFFFF" d="M472.894,6.273v1.947h1.765v0.938h-1.765v3.655c0,0.841,0.238,1.317,0.925,1.317
		c0.322,0,0.561-0.042,0.714-0.084l0.056,0.924c-0.237,0.099-0.615,0.168-1.092,0.168c-0.574,0-1.037-0.182-1.331-0.518
		c-0.351-0.364-0.476-0.967-0.476-1.766V9.159h-1.051V8.221h1.051V6.596L472.894,6.273z"/>
	<path fill="#FFFFFF" d="M476.043,10.336c0-0.799-0.015-1.485-0.057-2.115h1.078l0.043,1.33h0.056
		c0.308-0.91,1.051-1.484,1.877-1.484c0.14,0,0.238,0.014,0.351,0.042v1.162c-0.127-0.027-0.252-0.042-0.42-0.042
		c-0.869,0-1.485,0.659-1.653,1.583c-0.028,0.168-0.056,0.364-0.056,0.574V15h-1.219V10.336z"/>
	<path fill="#FFFFFF" d="M486.615,11.554c0,2.508-1.736,3.601-3.375,3.601c-1.835,0-3.25-1.345-3.25-3.488
		c0-2.27,1.484-3.6,3.361-3.6C485.299,8.066,486.615,9.481,486.615,11.554z M481.236,11.624c0,1.485,0.855,2.605,2.06,2.605
		c1.177,0,2.06-1.106,2.06-2.634c0-1.148-0.574-2.604-2.031-2.604S481.236,10.336,481.236,11.624z"/>
	<path fill="#FFFFFF" d="M494.008,8.221c-0.028,0.49-0.057,1.036-0.057,1.862v3.937c0,1.555-0.308,2.507-0.966,3.096
		c-0.659,0.616-1.61,0.813-2.466,0.813c-0.813,0-1.709-0.196-2.255-0.561l0.308-0.938c0.449,0.28,1.149,0.532,1.99,0.532
		c1.26,0,2.185-0.658,2.185-2.367v-0.757h-0.028c-0.378,0.631-1.106,1.135-2.156,1.135c-1.682,0-2.887-1.429-2.887-3.306
		c0-2.297,1.5-3.6,3.055-3.6c1.176,0,1.82,0.616,2.115,1.177h0.027l0.057-1.022H494.008z M492.732,10.896
		c0-0.21-0.014-0.392-0.069-0.56c-0.224-0.715-0.827-1.303-1.724-1.303c-1.176,0-2.017,0.994-2.017,2.563
		c0,1.331,0.673,2.438,2.003,2.438c0.757,0,1.443-0.476,1.709-1.261c0.07-0.21,0.098-0.448,0.098-0.658V10.896z"/>
	<path fill="#FFFFFF" d="M495.908,10.336c0-0.799-0.014-1.485-0.056-2.115h1.079l0.041,1.33h0.057
		c0.309-0.91,1.051-1.484,1.877-1.484c0.141,0,0.238,0.014,0.351,0.042v1.162c-0.126-0.027-0.253-0.042-0.421-0.042
		c-0.868,0-1.484,0.659-1.652,1.583c-0.028,0.168-0.057,0.364-0.057,0.574V15h-1.219V10.336z"/>
	<path fill="#FFFFFF" d="M504.17,15l-0.098-0.854h-0.041c-0.379,0.532-1.107,1.009-2.074,1.009c-1.373,0-2.072-0.967-2.072-1.947
		c0-1.639,1.457-2.535,4.076-2.521v-0.14c0-0.561-0.154-1.569-1.541-1.569c-0.631,0-1.289,0.196-1.766,0.505l-0.279-0.813
		c0.561-0.364,1.372-0.603,2.227-0.603c2.073,0,2.578,1.415,2.578,2.773v2.535c0,0.589,0.027,1.163,0.111,1.625H504.17z
		 M503.988,11.54c-1.345-0.028-2.871,0.21-2.871,1.527c0,0.798,0.532,1.176,1.162,1.176c0.883,0,1.443-0.56,1.639-1.134
		c0.043-0.127,0.07-0.267,0.07-0.393V11.54z"/>
	<path fill="#FFFFFF" d="M507.164,10.434c0-0.868-0.027-1.569-0.056-2.213h1.106l0.057,1.162h0.027
		c0.505-0.826,1.303-1.316,2.41-1.316c1.639,0,2.871,1.387,2.871,3.445c0,2.438-1.484,3.643-3.082,3.643
		c-0.896,0-1.681-0.393-2.087-1.064h-0.028v3.684h-1.219V10.434z M508.383,12.24c0,0.183,0.028,0.351,0.057,0.505
		c0.225,0.854,0.967,1.442,1.849,1.442c1.303,0,2.06-1.064,2.06-2.619c0-1.359-0.715-2.521-2.018-2.521
		c-0.84,0-1.625,0.603-1.863,1.526c-0.041,0.154-0.084,0.337-0.084,0.505V12.24z"/>
	<path fill="#FFFFFF" d="M515.131,5.055h1.232v4.23h0.027c0.197-0.351,0.505-0.658,0.883-0.869c0.364-0.21,0.799-0.35,1.261-0.35
		c0.911,0,2.367,0.561,2.367,2.899V15h-1.232v-3.895c0-1.092-0.406-2.017-1.569-2.017c-0.798,0-1.428,0.561-1.652,1.232
		c-0.07,0.168-0.084,0.351-0.084,0.589V15h-1.232V5.055z"/>
	<path fill="#FFFFFF" d="M527.438,12.03l-0.98,2.97h-1.262l3.209-9.441h1.471L533.096,15h-1.303l-1.008-2.97H527.438z
		 M530.533,11.078l-0.925-2.718c-0.21-0.616-0.351-1.177-0.49-1.723h-0.028c-0.141,0.561-0.294,1.135-0.477,1.709l-0.924,2.731
		H530.533z"/>
	<path fill="#FFFFFF" d="M534.395,5.055h1.232V15h-1.232V5.055z"/>
	<path fill="#FFFFFF" d="M538.385,11.834c0.027,1.667,1.093,2.354,2.325,2.354c0.882,0,1.415-0.154,1.877-0.351l0.21,0.883
		c-0.434,0.196-1.176,0.42-2.255,0.42c-2.087,0-3.334-1.372-3.334-3.417c0-2.046,1.204-3.656,3.18-3.656
		c2.214,0,2.802,1.947,2.802,3.193c0,0.252-0.028,0.448-0.042,0.574H538.385z M541.998,10.952c0.015-0.785-0.322-2.003-1.709-2.003
		c-1.246,0-1.793,1.148-1.891,2.003H541.998z"/>
	<path fill="#FFFFFF" d="M544.712,10.336c0-0.799-0.014-1.485-0.056-2.115h1.078l0.042,1.33h0.056
		c0.309-0.91,1.051-1.484,1.877-1.484c0.141,0,0.238,0.014,0.351,0.042v1.162c-0.126-0.027-0.252-0.042-0.42-0.042
		c-0.868,0-1.485,0.659-1.653,1.583c-0.027,0.168-0.056,0.364-0.056,0.574V15h-1.219V10.336z"/>
	<path fill="#FFFFFF" d="M551.11,6.273v1.947h1.765v0.938h-1.765v3.655c0,0.841,0.238,1.317,0.925,1.317
		c0.322,0,0.561-0.042,0.714-0.084l0.056,0.924c-0.237,0.099-0.615,0.168-1.092,0.168c-0.574,0-1.037-0.182-1.331-0.518
		c-0.351-0.364-0.476-0.967-0.476-1.766V9.159h-1.051V8.221h1.051V6.596L551.11,6.273z"/>
	<path fill="#FFFFFF" d="M554.092,13.739c0.364,0.238,1.008,0.49,1.625,0.49c0.896,0,1.316-0.448,1.316-1.009
		c0-0.588-0.35-0.91-1.261-1.246c-1.218-0.435-1.793-1.106-1.793-1.919c0-1.093,0.883-1.989,2.339-1.989
		c0.688,0,1.289,0.196,1.668,0.42l-0.309,0.896c-0.266-0.168-0.756-0.392-1.387-0.392c-0.729,0-1.135,0.42-1.135,0.924
		c0,0.561,0.406,0.813,1.289,1.148c1.176,0.448,1.779,1.037,1.779,2.046c0,1.19-0.926,2.03-2.536,2.03
		c-0.742,0-1.429-0.182-1.905-0.462L554.092,13.739z"/>
	<path fill="#FFFFFF" d="M561.734,15.561l3.908-10.155h0.953l-3.922,10.155H561.734z"/>
	<path fill="#FFFFFF" d="M566.537,15.561l3.908-10.155h0.952l-3.923,10.155H566.537z"/>
	<path fill="#FFFFFF" d="M577.626,7.044h-0.028l-1.582,0.854l-0.238-0.938l1.988-1.064h1.051V15h-1.19V7.044z"/>
	<path fill="#FFFFFF" d="M588.184,10.35c0,3.096-1.148,4.805-3.165,4.805c-1.779,0-2.983-1.667-3.012-4.679
		c0-3.054,1.316-4.734,3.165-4.734C587.092,5.741,588.184,7.45,588.184,10.35z M583.239,10.489c0,2.367,0.729,3.712,1.849,3.712
		c1.262,0,1.863-1.471,1.863-3.796c0-2.241-0.574-3.712-1.849-3.712C584.023,6.693,583.239,8.01,583.239,10.489z"/>
	<path fill="#FFFFFF" d="M589.412,9.341c0-0.519,0.351-0.883,0.841-0.883s0.813,0.364,0.827,0.883c0,0.49-0.322,0.868-0.842,0.868
		C589.748,10.209,589.412,9.831,589.412,9.341z M589.412,14.285c0-0.518,0.351-0.882,0.841-0.882s0.813,0.364,0.827,0.882
		c0,0.49-0.322,0.869-0.842,0.869C589.748,15.154,589.412,14.775,589.412,14.285z"/>
	<path fill="#FFFFFF" d="M592.213,15v-0.757l0.966-0.938c2.325-2.213,3.376-3.39,3.39-4.762c0-0.925-0.447-1.779-1.807-1.779
		c-0.826,0-1.513,0.42-1.934,0.771l-0.392-0.869c0.63-0.532,1.526-0.924,2.577-0.924c1.961,0,2.787,1.345,2.787,2.647
		c0,1.681-1.219,3.039-3.137,4.889l-0.729,0.672v0.028h4.09V15H592.213z"/>
	<path fill="#FFFFFF" d="M602.069,7.044h-0.028l-1.582,0.854l-0.238-0.938l1.988-1.064h1.051V15h-1.19V7.044z"/>
	<path fill="#FFFFFF" d="M611.504,12.03l-0.98,2.97h-1.26l3.207-9.441h1.471L617.164,15h-1.303l-1.009-2.97H611.504z M614.6,11.078
		l-0.924-2.718c-0.211-0.616-0.35-1.177-0.49-1.723h-0.028c-0.14,0.561-0.294,1.135-0.476,1.709l-0.925,2.731H614.6z"/>
	<path fill="#FFFFFF" d="M626.446,10.854c-0.07-1.316-0.154-2.899-0.14-4.076h-0.043c-0.322,1.106-0.714,2.283-1.19,3.586
		l-1.667,4.581h-0.924l-1.527-4.497c-0.448-1.33-0.826-2.549-1.092-3.67h-0.029c-0.027,1.177-0.098,2.76-0.182,4.175L619.4,15
		h-1.162l0.658-9.441h1.555l1.611,4.566c0.392,1.163,0.714,2.199,0.951,3.18h0.043c0.238-0.952,0.574-1.988,0.994-3.18l1.682-4.566
		h1.555L627.875,15h-1.191L626.446,10.854z"/>
</g>
<g>
	<path fill="#FFFFFF" d="M26.083,43.875h-1.477l-2.593-8.604c-0.123-0.381-0.261-0.861-0.413-1.441s-0.231-0.929-0.237-1.046
		c-0.129,0.773-0.334,1.62-0.615,2.54l-2.514,8.552h-1.477l-3.419-12.85h1.582l2.03,7.937c0.281,1.113,0.486,2.121,0.615,3.023
		c0.158-1.072,0.393-2.121,0.703-3.146l2.303-7.813h1.582l2.417,7.884c0.281,0.908,0.519,1.934,0.712,3.076
		c0.111-0.832,0.322-1.846,0.633-3.041l2.021-7.919h1.582L26.083,43.875z"/>
	<path fill="#FFFFFF" d="M39.609,43.875l-1.6-4.087h-5.15l-1.582,4.087h-1.512l5.08-12.902h1.257l5.054,12.902H39.609z
		 M37.544,38.443l-1.494-3.981c-0.193-0.504-0.393-1.122-0.598-1.854c-0.129,0.563-0.313,1.181-0.554,1.854l-1.512,3.981H37.544z"/>
	<path fill="#FFFFFF" d="M44.417,38.531v5.344h-1.494v-12.85h3.524c1.576,0,2.741,0.302,3.494,0.905s1.129,1.512,1.129,2.725
		c0,1.699-0.861,2.848-2.584,3.445l3.489,5.774h-1.767l-3.111-5.344H44.417z M44.417,37.248h2.048c1.055,0,1.828-0.209,2.32-0.628
		s0.738-1.047,0.738-1.885c0-0.85-0.25-1.462-0.751-1.837s-1.305-0.563-2.413-0.563h-1.942V37.248z"/>
	<path fill="#FFFFFF" d="M64.087,43.875h-1.705l-7.022-10.784h-0.07c0.094,1.266,0.141,2.426,0.141,3.48v7.304h-1.38v-12.85h1.688
		l7.005,10.74h0.07c-0.012-0.158-0.038-0.667-0.079-1.525s-0.056-1.472-0.044-1.841v-7.374h1.397V43.875z"/>
	<path fill="#FFFFFF" d="M67.62,43.875v-12.85h1.494v12.85H67.62z"/>
	<path fill="#FFFFFF" d="M82.676,43.875h-1.705l-7.022-10.784h-0.07c0.094,1.266,0.141,2.426,0.141,3.48v7.304h-1.38v-12.85h1.688
		l7.005,10.74h0.07c-0.012-0.158-0.038-0.667-0.079-1.525s-0.056-1.472-0.044-1.841v-7.374h1.397V43.875z"/>
	<path fill="#FFFFFF" d="M91.86,37.143h4.368v6.249c-0.68,0.217-1.371,0.381-2.074,0.492s-1.518,0.167-2.443,0.167
		c-1.945,0-3.46-0.579-4.544-1.736s-1.626-2.779-1.626-4.865c0-1.336,0.268-2.506,0.804-3.511s1.308-1.772,2.316-2.303
		s2.188-0.795,3.542-0.795c1.371,0,2.648,0.252,3.832,0.756l-0.58,1.318c-1.16-0.492-2.276-0.738-3.349-0.738
		c-1.564,0-2.786,0.466-3.665,1.397s-1.318,2.224-1.318,3.876c0,1.734,0.423,3.05,1.27,3.946s2.09,1.345,3.731,1.345
		c0.891,0,1.761-0.103,2.61-0.308v-3.955H91.86V37.143z"/>
	<path fill="#FFFFFF" d="M98.883,35.183c0-0.791,0.346-1.187,1.037-1.187c0.721,0,1.081,0.396,1.081,1.187
		c0,0.381-0.097,0.674-0.29,0.879s-0.457,0.308-0.791,0.308c-0.299,0-0.546-0.092-0.743-0.277S98.883,35.604,98.883,35.183z
		 M98.883,42.943c0-0.393,0.089-0.69,0.268-0.892s0.435-0.303,0.769-0.303c0.34,0,0.605,0.101,0.795,0.303s0.286,0.5,0.286,0.892
		c0,0.381-0.097,0.674-0.29,0.879s-0.457,0.308-0.791,0.308c-0.299,0-0.546-0.092-0.743-0.277S98.883,43.365,98.883,42.943z"/>
	<path fill="#FFFFFF" d="M119.994,43.875h-1.477l-2.593-8.604c-0.123-0.381-0.261-0.861-0.413-1.441s-0.231-0.929-0.237-1.046
		c-0.129,0.773-0.334,1.62-0.615,2.54l-2.514,8.552h-1.477l-3.419-12.85h1.582l2.03,7.937c0.281,1.113,0.486,2.121,0.615,3.023
		c0.158-1.072,0.393-2.121,0.703-3.146l2.303-7.813h1.582l2.417,7.884c0.281,0.908,0.519,1.934,0.712,3.076
		c0.111-0.832,0.322-1.846,0.633-3.041l2.021-7.919h1.582L119.994,43.875z"/>
	<path fill="#FFFFFF" d="M129.293,44.051c-1.424,0-2.547-0.434-3.371-1.301s-1.235-2.071-1.235-3.612c0-1.553,0.382-2.786,1.147-3.7
		s1.792-1.371,3.081-1.371c1.207,0,2.162,0.397,2.865,1.191s1.055,1.841,1.055,3.142v0.923h-6.636
		c0.029,1.131,0.315,1.989,0.857,2.575s1.305,0.879,2.29,0.879c1.037,0,2.063-0.217,3.076-0.65v1.301
		c-0.516,0.223-1.003,0.382-1.463,0.479S129.943,44.051,129.293,44.051z M128.897,35.288c-0.773,0-1.39,0.252-1.85,0.756
		s-0.731,1.201-0.813,2.092h5.036c0-0.92-0.205-1.625-0.615-2.114S129.659,35.288,128.897,35.288z"/>
	<path fill="#FFFFFF" d="M144.34,35.376h-2.452v8.499h-1.459v-8.499h-1.723v-0.659l1.723-0.527v-0.536
		c0-2.367,1.034-3.551,3.103-3.551c0.51,0,1.107,0.103,1.793,0.308l-0.378,1.169c-0.563-0.182-1.043-0.272-1.441-0.272
		c-0.551,0-0.958,0.183-1.222,0.549s-0.396,0.954-0.396,1.762v0.624h2.452V35.376z"/>
	<path fill="#FFFFFF" d="M154.412,39.05c0,1.57-0.396,2.796-1.187,3.678s-1.884,1.323-3.278,1.323c-0.861,0-1.626-0.202-2.294-0.606
		s-1.184-0.984-1.547-1.74s-0.545-1.641-0.545-2.654c0-1.57,0.393-2.793,1.178-3.669s1.875-1.314,3.27-1.314
		c1.348,0,2.418,0.448,3.212,1.345S154.412,37.521,154.412,39.05z M147.073,39.05c0,1.23,0.246,2.168,0.738,2.813
		s1.216,0.967,2.171,0.967s1.68-0.321,2.175-0.962s0.743-1.581,0.743-2.817c0-1.225-0.248-2.155-0.743-2.791
		s-1.226-0.954-2.193-0.954c-0.955,0-1.676,0.313-2.162,0.94S147.073,37.808,147.073,39.05z"/>
	<path fill="#FFFFFF" d="M158.341,34.242v6.249c0,0.785,0.179,1.371,0.536,1.758s0.917,0.58,1.679,0.58
		c1.008,0,1.745-0.275,2.21-0.826s0.699-1.45,0.699-2.698v-5.063h1.459v9.633h-1.204l-0.211-1.292h-0.079
		c-0.299,0.475-0.713,0.838-1.244,1.09s-1.135,0.378-1.815,0.378c-1.172,0-2.049-0.278-2.632-0.835s-0.875-1.447-0.875-2.672v-6.302
		H158.341z"/>
	<path fill="#FFFFFF" d="M174.609,43.875v-6.231c0-0.785-0.179-1.371-0.536-1.758s-0.917-0.58-1.679-0.58
		c-1.008,0-1.746,0.272-2.215,0.817s-0.703,1.444-0.703,2.698v5.054h-1.459v-9.633h1.187l0.237,1.318h0.07
		c0.299-0.475,0.718-0.842,1.257-1.103s1.14-0.391,1.802-0.391c1.16,0,2.033,0.28,2.619,0.839s0.879,1.455,0.879,2.685v6.284
		H174.609z"/>
	<path fill="#FFFFFF" d="M185.622,42.583h-0.079c-0.674,0.979-1.682,1.468-3.023,1.468c-1.26,0-2.24-0.431-2.94-1.292
		s-1.05-2.086-1.05-3.674s0.352-2.821,1.055-3.7s1.682-1.318,2.936-1.318c1.307,0,2.309,0.475,3.006,1.424h0.114l-0.062-0.694
		l-0.035-0.677v-3.92h1.459v13.676h-1.187L185.622,42.583z M182.704,42.829c0.996,0,1.718-0.271,2.167-0.813
		s0.672-1.417,0.672-2.624v-0.308c0-1.365-0.227-2.339-0.681-2.922s-1.179-0.875-2.175-0.875c-0.855,0-1.51,0.333-1.964,0.998
		s-0.681,1.604-0.681,2.817c0,1.23,0.226,2.159,0.677,2.786S181.831,42.829,182.704,42.829z"/>
	<path fill="#FFFFFF" d="M200.695,43.875l-0.29-1.371h-0.07c-0.48,0.604-0.959,1.012-1.437,1.226s-1.074,0.321-1.789,0.321
		c-0.955,0-1.704-0.246-2.246-0.738s-0.813-1.192-0.813-2.101c0-1.945,1.556-2.965,4.667-3.059l1.635-0.053v-0.598
		c0-0.756-0.163-1.314-0.488-1.674s-0.845-0.541-1.56-0.541c-0.803,0-1.711,0.246-2.725,0.738l-0.448-1.116
		c0.475-0.258,0.995-0.46,1.56-0.606s1.132-0.22,1.701-0.22c1.148,0,2,0.255,2.553,0.765s0.831,1.327,0.831,2.452v6.574H200.695z
		 M197.399,42.847c0.908,0,1.622-0.249,2.14-0.747s0.778-1.195,0.778-2.092v-0.87l-1.459,0.062c-1.16,0.041-1.997,0.221-2.509,0.541
		s-0.769,0.816-0.769,1.49c0,0.527,0.16,0.929,0.479,1.204S196.825,42.847,197.399,42.847z"/>
	<path fill="#FFFFFF" d="M219.935,37.327c0,2.121-0.576,3.743-1.727,4.865s-2.808,1.683-4.97,1.683h-3.56v-12.85h3.938
		c1.998,0,3.551,0.554,4.658,1.661S219.935,35.341,219.935,37.327z M218.353,37.38c0-1.676-0.42-2.938-1.261-3.788
		s-2.09-1.274-3.749-1.274h-2.171v10.266h1.819c1.781,0,3.12-0.438,4.017-1.314S218.353,39.097,218.353,37.38z"/>
	<path fill="#FFFFFF" d="M228.486,43.875l-4.359-11.391h-0.07c0.082,0.902,0.123,1.975,0.123,3.217v8.174h-1.38v-12.85h2.25
		l4.069,10.6h0.07l4.104-10.6h2.232v12.85h-1.494v-8.279c0-0.949,0.041-1.98,0.123-3.094h-0.07l-4.395,11.373H228.486z"/>
	<path fill="#FFFFFF" d="M246.302,40.456c0,1.131-0.41,2.013-1.23,2.646s-1.934,0.949-3.34,0.949c-1.523,0-2.695-0.196-3.516-0.589
		v-1.441c0.527,0.223,1.102,0.398,1.723,0.527s1.236,0.193,1.846,0.193c0.996,0,1.746-0.189,2.25-0.567s0.756-0.904,0.756-1.578
		c0-0.445-0.089-0.81-0.268-1.094s-0.478-0.546-0.896-0.787s-1.056-0.513-1.912-0.817c-1.195-0.428-2.049-0.935-2.562-1.521
		s-0.769-1.351-0.769-2.294c0-0.99,0.372-1.778,1.116-2.364s1.729-0.879,2.953-0.879c1.277,0,2.452,0.234,3.524,0.703l-0.466,1.301
		c-1.061-0.445-2.092-0.668-3.094-0.668c-0.791,0-1.409,0.17-1.854,0.51s-0.668,0.812-0.668,1.415c0,0.445,0.082,0.81,0.246,1.094
		s0.441,0.545,0.831,0.782s0.986,0.5,1.789,0.787c1.348,0.48,2.275,0.996,2.782,1.547S246.302,39.577,246.302,40.456z"/>
	<path fill="#FFFFFF" d="M257.235,44.051c-1.395,0-2.474-0.429-3.239-1.288s-1.147-2.073-1.147-3.643
		c0-1.611,0.388-2.856,1.165-3.735s1.882-1.318,3.318-1.318c0.463,0,0.926,0.05,1.389,0.149s0.826,0.217,1.09,0.352l-0.448,1.239
		c-0.322-0.129-0.674-0.236-1.055-0.321s-0.718-0.127-1.011-0.127c-1.957,0-2.936,1.248-2.936,3.744
		c0,1.184,0.239,2.092,0.716,2.725s1.185,0.949,2.123,0.949c0.803,0,1.626-0.173,2.47-0.519v1.292
		C259.025,43.884,258.214,44.051,257.235,44.051z"/>
	<path fill="#FFFFFF" d="M270.27,39.05c0,1.57-0.396,2.796-1.187,3.678s-1.884,1.323-3.278,1.323c-0.861,0-1.626-0.202-2.294-0.606
		s-1.184-0.984-1.547-1.74s-0.545-1.641-0.545-2.654c0-1.57,0.393-2.793,1.178-3.669s1.875-1.314,3.27-1.314
		c1.348,0,2.418,0.448,3.212,1.345S270.27,37.521,270.27,39.05z M262.931,39.05c0,1.23,0.246,2.168,0.738,2.813
		s1.216,0.967,2.171,0.967s1.68-0.321,2.175-0.962s0.743-1.581,0.743-2.817c0-1.225-0.248-2.155-0.743-2.791
		s-1.226-0.954-2.193-0.954c-0.955,0-1.676,0.313-2.162,0.94S262.931,37.808,262.931,39.05z"/>
	<path fill="#FFFFFF" d="M279.419,43.875v-6.231c0-0.785-0.179-1.371-0.536-1.758s-0.917-0.58-1.679-0.58
		c-1.008,0-1.746,0.272-2.215,0.817s-0.703,1.444-0.703,2.698v5.054h-1.459v-9.633h1.187l0.237,1.318h0.07
		c0.299-0.475,0.718-0.842,1.257-1.103s1.14-0.391,1.802-0.391c1.16,0,2.033,0.28,2.619,0.839s0.879,1.455,0.879,2.685v6.284
		H279.419z"/>
	<path fill="#FFFFFF" d="M286.986,42.847c0.258,0,0.507-0.019,0.747-0.057s0.431-0.078,0.571-0.119v1.116
		c-0.158,0.076-0.391,0.139-0.699,0.189c-0.307,0.05-0.584,0.075-0.83,0.075c-1.863,0-2.795-0.981-2.795-2.944v-5.73h-1.38v-0.703
		l1.38-0.606l0.615-2.057h0.844v2.232h2.795v1.134h-2.795v5.669c0,0.58,0.138,1.025,0.413,1.336S286.506,42.847,286.986,42.847z"/>
	<path fill="#FFFFFF" d="M296.153,43.875l-0.29-1.371h-0.07c-0.48,0.604-0.959,1.012-1.438,1.226
		c-0.477,0.214-1.073,0.321-1.788,0.321c-0.955,0-1.704-0.246-2.245-0.738c-0.543-0.492-0.813-1.192-0.813-2.101
		c0-1.945,1.556-2.965,4.667-3.059l1.635-0.053v-0.598c0-0.756-0.162-1.314-0.488-1.674c-0.324-0.36-0.845-0.541-1.56-0.541
		c-0.803,0-1.711,0.246-2.725,0.738l-0.448-1.116c0.475-0.258,0.994-0.46,1.561-0.606c0.564-0.146,1.132-0.22,1.7-0.22
		c1.148,0,1.999,0.255,2.554,0.765c0.553,0.51,0.83,1.327,0.83,2.452v6.574H296.153z M292.857,42.847
		c0.908,0,1.621-0.249,2.141-0.747c0.518-0.498,0.777-1.195,0.777-2.092v-0.87l-1.459,0.062c-1.16,0.041-1.996,0.221-2.51,0.541
		c-0.512,0.319-0.769,0.816-0.769,1.49c0,0.527,0.159,0.929,0.479,1.204C291.836,42.709,292.283,42.847,292.857,42.847z"/>
	<path fill="#FFFFFF" d="M312.519,43.875v-6.267c0-0.768-0.164-1.343-0.492-1.727s-0.838-0.576-1.529-0.576
		c-0.908,0-1.579,0.261-2.013,0.782s-0.65,1.324-0.65,2.408v5.379h-1.459v-6.267c0-0.768-0.164-1.343-0.492-1.727
		s-0.841-0.576-1.538-0.576c-0.914,0-1.583,0.274-2.009,0.822c-0.424,0.548-0.637,1.446-0.637,2.694v5.054h-1.459v-9.633h1.187
		l0.237,1.318h0.07c0.275-0.469,0.664-0.835,1.164-1.099c0.502-0.264,1.063-0.396,1.684-0.396c1.506,0,2.49,0.545,2.953,1.635h0.07
		c0.287-0.504,0.703-0.902,1.248-1.195s1.166-0.439,1.863-0.439c1.09,0,1.906,0.28,2.447,0.839c0.543,0.56,0.813,1.455,0.813,2.685
		v6.284H312.519z"/>
	<path fill="#FFFFFF" d="M316.86,31.632c0-0.334,0.082-0.579,0.246-0.734s0.369-0.233,0.615-0.233c0.234,0,0.437,0.079,0.606,0.237
		s0.255,0.401,0.255,0.729s-0.085,0.573-0.255,0.734s-0.372,0.242-0.606,0.242c-0.246,0-0.451-0.081-0.615-0.242
		S316.86,31.96,316.86,31.632z M318.442,43.875h-1.459v-9.633h1.459V43.875z"/>
	<path fill="#FFFFFF" d="M328.128,43.875v-6.231c0-0.785-0.179-1.371-0.536-1.758s-0.917-0.58-1.679-0.58
		c-1.008,0-1.746,0.272-2.215,0.817s-0.703,1.444-0.703,2.698v5.054h-1.459v-9.633h1.187l0.237,1.318h0.07
		c0.299-0.475,0.718-0.842,1.257-1.103s1.14-0.391,1.802-0.391c1.16,0,2.033,0.28,2.619,0.839s0.879,1.455,0.879,2.685v6.284
		H328.128z"/>
	<path fill="#FFFFFF" d="M338.508,43.875l-0.29-1.371h-0.07c-0.48,0.604-0.96,1.012-1.437,1.226
		c-0.479,0.214-1.074,0.321-1.789,0.321c-0.955,0-1.703-0.246-2.246-0.738c-0.541-0.492-0.813-1.192-0.813-2.101
		c0-1.945,1.556-2.965,4.667-3.059l1.635-0.053v-0.598c0-0.756-0.163-1.314-0.487-1.674c-0.326-0.36-0.846-0.541-1.561-0.541
		c-0.803,0-1.711,0.246-2.725,0.738l-0.448-1.116c0.475-0.258,0.995-0.46,1.56-0.606c0.566-0.146,1.133-0.22,1.701-0.22
		c1.148,0,2,0.255,2.553,0.765c0.555,0.51,0.831,1.327,0.831,2.452v6.574H338.508z M335.212,42.847c0.908,0,1.622-0.249,2.14-0.747
		c0.52-0.498,0.778-1.195,0.778-2.092v-0.87l-1.459,0.062c-1.16,0.041-1.997,0.221-2.509,0.541c-0.514,0.319-0.77,0.816-0.77,1.49
		c0,0.527,0.16,0.929,0.479,1.204C334.191,42.709,334.638,42.847,335.212,42.847z"/>
	<path fill="#FFFFFF" d="M345.706,42.847c0.258,0,0.507-0.019,0.747-0.057s0.431-0.078,0.571-0.119v1.116
		c-0.158,0.076-0.392,0.139-0.698,0.189c-0.309,0.05-0.585,0.075-0.831,0.075c-1.863,0-2.795-0.981-2.795-2.944v-5.73h-1.38v-0.703
		l1.38-0.606l0.615-2.057h0.844v2.232h2.795v1.134h-2.795v5.669c0,0.58,0.138,1.025,0.413,1.336S345.226,42.847,345.706,42.847z"/>
	<path fill="#FFFFFF" d="M348.826,31.632c0-0.334,0.082-0.579,0.246-0.734s0.369-0.233,0.615-0.233c0.234,0,0.437,0.079,0.606,0.237
		s0.255,0.401,0.255,0.729s-0.085,0.573-0.255,0.734s-0.372,0.242-0.606,0.242c-0.246,0-0.451-0.081-0.615-0.242
		S348.826,31.96,348.826,31.632z M350.408,43.875h-1.459v-9.633h1.459V43.875z"/>
	<path fill="#FFFFFF" d="M361.816,39.05c0,1.57-0.396,2.796-1.187,3.678s-1.884,1.323-3.278,1.323c-0.861,0-1.626-0.202-2.294-0.606
		s-1.184-0.984-1.547-1.74s-0.545-1.641-0.545-2.654c0-1.57,0.393-2.793,1.178-3.669s1.875-1.314,3.27-1.314
		c1.348,0,2.419,0.448,3.212,1.345C361.42,36.308,361.816,37.521,361.816,39.05z M354.478,39.05c0,1.23,0.246,2.168,0.738,2.813
		s1.216,0.967,2.171,0.967s1.68-0.321,2.176-0.962c0.494-0.642,0.742-1.581,0.742-2.817c0-1.225-0.248-2.155-0.742-2.791
		c-0.496-0.636-1.227-0.954-2.193-0.954c-0.955,0-1.676,0.313-2.162,0.94S354.478,37.808,354.478,39.05z"/>
	<path fill="#FFFFFF" d="M370.966,43.875v-6.231c0-0.785-0.179-1.371-0.536-1.758s-0.917-0.58-1.679-0.58
		c-1.008,0-1.746,0.272-2.215,0.817s-0.703,1.444-0.703,2.698v5.054h-1.459v-9.633h1.187l0.237,1.318h0.07
		c0.299-0.475,0.718-0.842,1.257-1.103s1.14-0.391,1.802-0.391c1.16,0,2.033,0.28,2.619,0.839s0.879,1.455,0.879,2.685v6.284
		H370.966z"/>
	<path fill="#FFFFFF" d="M379.975,31.632c0-0.334,0.082-0.579,0.246-0.734s0.369-0.233,0.615-0.233c0.234,0,0.437,0.079,0.606,0.237
		s0.255,0.401,0.255,0.729s-0.085,0.573-0.255,0.734s-0.372,0.242-0.606,0.242c-0.246,0-0.451-0.081-0.615-0.242
		S379.975,31.96,379.975,31.632z M381.557,43.875h-1.459v-9.633h1.459V43.875z"/>
	<path fill="#FFFFFF" d="M391.242,43.875v-6.231c0-0.785-0.179-1.371-0.536-1.758s-0.917-0.58-1.679-0.58
		c-1.008,0-1.746,0.272-2.215,0.817s-0.703,1.444-0.703,2.698v5.054h-1.459v-9.633h1.187l0.237,1.318h0.07
		c0.299-0.475,0.718-0.842,1.257-1.103s1.14-0.391,1.802-0.391c1.16,0,2.033,0.28,2.619,0.839s0.879,1.455,0.879,2.685v6.284
		H391.242z"/>
	<path fill="#FFFFFF" d="M398.845,34.242h1.564l2.109,5.493c0.463,1.254,0.75,2.159,0.861,2.716h0.07
		c0.076-0.299,0.235-0.81,0.479-1.534c0.242-0.724,1.038-2.949,2.386-6.675h1.564l-4.14,10.969c-0.41,1.084-0.889,1.853-1.438,2.307
		c-0.547,0.454-1.22,0.681-2.017,0.681c-0.445,0-0.885-0.05-1.318-0.149v-1.169c0.322,0.07,0.683,0.105,1.081,0.105
		c1.002,0,1.717-0.563,2.145-1.688l0.536-1.371L398.845,34.242z"/>
	<path fill="#FFFFFF" d="M417.759,39.05c0,1.57-0.396,2.796-1.187,3.678s-1.884,1.323-3.278,1.323c-0.861,0-1.626-0.202-2.294-0.606
		s-1.184-0.984-1.547-1.74s-0.545-1.641-0.545-2.654c0-1.57,0.393-2.793,1.178-3.669s1.875-1.314,3.27-1.314
		c1.348,0,2.418,0.448,3.213,1.345C417.361,36.308,417.759,37.521,417.759,39.05z M410.42,39.05c0,1.23,0.246,2.168,0.738,2.813
		s1.216,0.967,2.171,0.967s1.681-0.321,2.175-0.962c0.496-0.642,0.743-1.581,0.743-2.817c0-1.225-0.247-2.155-0.743-2.791
		c-0.494-0.636-1.226-0.954-2.192-0.954c-0.955,0-1.676,0.313-2.162,0.94S410.42,37.808,410.42,39.05z"/>
	<path fill="#FFFFFF" d="M421.688,34.242v6.249c0,0.785,0.179,1.371,0.536,1.758s0.917,0.58,1.679,0.58
		c1.008,0,1.744-0.275,2.211-0.826c0.465-0.551,0.698-1.45,0.698-2.698v-5.063h1.459v9.633h-1.204l-0.211-1.292h-0.079
		c-0.299,0.475-0.714,0.838-1.243,1.09c-0.531,0.252-1.136,0.378-1.815,0.378c-1.172,0-2.05-0.278-2.632-0.835
		c-0.584-0.557-0.875-1.447-0.875-2.672v-6.302H421.688z"/>
	<path fill="#FFFFFF" d="M435.759,34.066c0.428,0,0.812,0.035,1.151,0.105l-0.202,1.354c-0.398-0.088-0.75-0.132-1.055-0.132
		c-0.779,0-1.446,0.316-1.999,0.949c-0.555,0.633-0.831,1.421-0.831,2.364v5.168h-1.459v-9.633h1.204l0.167,1.784h0.07
		c0.357-0.627,0.788-1.11,1.292-1.45S435.155,34.066,435.759,34.066z"/>
	<path fill="#FFFFFF" d="M447.87,34.084c1.266,0,2.249,0.432,2.948,1.296c0.701,0.864,1.051,2.087,1.051,3.669
		s-0.354,2.811-1.059,3.687c-0.707,0.876-1.687,1.314-2.94,1.314c-0.627,0-1.2-0.116-1.718-0.347
		c-0.52-0.231-0.954-0.587-1.306-1.068h-0.105l-0.308,1.239h-1.046V30.199h1.459v3.322c0,0.744-0.023,1.412-0.07,2.004h0.07
		C445.526,34.564,446.534,34.084,447.87,34.084z M447.659,35.306c-0.996,0-1.714,0.286-2.153,0.857s-0.659,1.534-0.659,2.887
		s0.226,2.322,0.677,2.905s1.175,0.875,2.171,0.875c0.896,0,1.564-0.327,2.004-0.98s0.659-1.592,0.659-2.817
		c0-1.254-0.22-2.188-0.659-2.804S448.579,35.306,447.659,35.306z"/>
	<path fill="#FFFFFF" d="M458.487,44.051c-1.424,0-2.548-0.434-3.37-1.301c-0.824-0.867-1.235-2.071-1.235-3.612
		c0-1.553,0.382-2.786,1.147-3.7c0.764-0.914,1.791-1.371,3.08-1.371c1.207,0,2.162,0.397,2.865,1.191s1.055,1.841,1.055,3.142
		v0.923h-6.636c0.029,1.131,0.315,1.989,0.856,2.575c0.543,0.586,1.306,0.879,2.29,0.879c1.037,0,2.063-0.217,3.076-0.65v1.301
		c-0.516,0.223-1.003,0.382-1.464,0.479C459.693,44.002,459.138,44.051,458.487,44.051z M458.092,35.288
		c-0.773,0-1.391,0.252-1.85,0.756c-0.461,0.504-0.731,1.201-0.813,2.092h5.036c0-0.92-0.205-1.625-0.615-2.114
		S458.854,35.288,458.092,35.288z"/>
	<path fill="#FFFFFF" d="M468.586,44.051c-1.424,0-2.547-0.434-3.371-1.301c-0.822-0.867-1.234-2.071-1.234-3.612
		c0-1.553,0.383-2.786,1.146-3.7c0.766-0.914,1.792-1.371,3.081-1.371c1.207,0,2.162,0.397,2.865,1.191s1.055,1.841,1.055,3.142
		v0.923h-6.636c0.029,1.131,0.314,1.989,0.857,2.575c0.541,0.586,1.305,0.879,2.289,0.879c1.037,0,2.063-0.217,3.076-0.65v1.301
		c-0.516,0.223-1.004,0.382-1.463,0.479C469.791,44.002,469.236,44.051,468.586,44.051z M468.19,35.288
		c-0.773,0-1.39,0.252-1.851,0.756c-0.459,0.504-0.73,1.201-0.813,2.092h5.036c0-0.92-0.205-1.625-0.615-2.114
		S468.952,35.288,468.19,35.288z"/>
	<path fill="#FFFFFF" d="M479.01,34.066c0.428,0,0.812,0.035,1.151,0.105l-0.202,1.354c-0.398-0.088-0.75-0.132-1.055-0.132
		c-0.779,0-1.445,0.316-2,0.949c-0.553,0.633-0.83,1.421-0.83,2.364v5.168h-1.459v-9.633h1.204l0.167,1.784h0.07
		c0.357-0.627,0.788-1.11,1.292-1.45S478.406,34.066,479.01,34.066z"/>
	<path fill="#FFFFFF" d="M496.614,43.875h-1.494v-6.047h-6.768v6.047h-1.494v-12.85h1.494v5.467h6.768v-5.467h1.494V43.875z"/>
	<path fill="#FFFFFF" d="M508.233,39.05c0,1.57-0.396,2.796-1.187,3.678s-1.884,1.323-3.278,1.323c-0.861,0-1.626-0.202-2.294-0.606
		s-1.184-0.984-1.547-1.74s-0.545-1.641-0.545-2.654c0-1.57,0.393-2.793,1.178-3.669s1.875-1.314,3.27-1.314
		c1.348,0,2.418,0.448,3.213,1.345C507.836,36.308,508.233,37.521,508.233,39.05z M500.895,39.05c0,1.23,0.246,2.168,0.738,2.813
		s1.216,0.967,2.171,0.967s1.681-0.321,2.175-0.962c0.496-0.642,0.743-1.581,0.743-2.817c0-1.225-0.247-2.155-0.743-2.791
		c-0.494-0.636-1.226-0.954-2.192-0.954c-0.955,0-1.676,0.313-2.162,0.94S500.895,37.808,500.895,39.05z"/>
	<path fill="#FFFFFF" d="M515.273,44.051c-0.627,0-1.199-0.116-1.719-0.347c-0.518-0.231-0.953-0.587-1.305-1.068h-0.105
		c0.07,0.563,0.105,1.096,0.105,1.6v3.964h-1.459V34.242h1.187l0.202,1.318h0.07c0.375-0.527,0.812-0.908,1.31-1.143
		s1.069-0.352,1.714-0.352c1.277,0,2.264,0.437,2.957,1.31c0.695,0.873,1.042,2.098,1.042,3.674c0,1.582-0.353,2.811-1.06,3.687
		C517.508,43.613,516.527,44.051,515.273,44.051z M515.063,35.306c-0.984,0-1.696,0.272-2.136,0.817s-0.665,1.412-0.677,2.602v0.325
		c0,1.354,0.226,2.322,0.677,2.905s1.175,0.875,2.171,0.875c0.832,0,1.484-0.337,1.955-1.011c0.473-0.674,0.708-1.603,0.708-2.786
		c0-1.201-0.235-2.123-0.708-2.764C516.582,35.626,515.918,35.306,515.063,35.306z"/>
	<path fill="#FFFFFF" d="M526.304,44.051c-0.627,0-1.2-0.116-1.718-0.347c-0.52-0.231-0.954-0.587-1.306-1.068h-0.105
		c0.07,0.563,0.105,1.096,0.105,1.6v3.964h-1.459V34.242h1.187l0.202,1.318h0.07c0.375-0.527,0.812-0.908,1.31-1.143
		s1.069-0.352,1.714-0.352c1.277,0,2.263,0.437,2.958,1.31c0.693,0.873,1.041,2.098,1.041,3.674c0,1.582-0.354,2.811-1.059,3.687
		C528.537,43.613,527.558,44.051,526.304,44.051z M526.093,35.306c-0.984,0-1.696,0.272-2.136,0.817s-0.665,1.412-0.677,2.602v0.325
		c0,1.354,0.226,2.322,0.677,2.905s1.175,0.875,2.171,0.875c0.832,0,1.483-0.337,1.956-1.011c0.471-0.674,0.707-1.603,0.707-2.786
		c0-1.201-0.236-2.123-0.707-2.764C527.611,35.626,526.948,35.306,526.093,35.306z"/>
	<path fill="#FFFFFF" d="M531.322,34.242h1.564l2.109,5.493c0.463,1.254,0.75,2.159,0.861,2.716h0.07
		c0.076-0.299,0.236-0.81,0.479-1.534c0.244-0.724,1.039-2.949,2.387-6.675h1.564l-4.14,10.969c-0.41,1.084-0.89,1.853-1.437,2.307
		c-0.549,0.454-1.221,0.681-2.018,0.681c-0.445,0-0.885-0.05-1.318-0.149v-1.169c0.322,0.07,0.683,0.105,1.081,0.105
		c1.002,0,1.717-0.563,2.145-1.688l0.536-1.371L531.322,34.242z"/>
	<path fill="#FFFFFF" d="M546.817,31.025h3.63c1.705,0,2.938,0.255,3.7,0.765s1.143,1.315,1.143,2.417
		c0,0.762-0.212,1.39-0.638,1.885c-0.424,0.495-1.044,0.816-1.858,0.962v0.088c1.951,0.334,2.927,1.359,2.927,3.076
		c0,1.148-0.389,2.045-1.164,2.689c-0.777,0.645-1.862,0.967-3.257,0.967h-4.482V31.025z M548.312,36.527h2.461
		c1.055,0,1.813-0.166,2.276-0.497s0.694-0.889,0.694-1.674c0-0.721-0.258-1.241-0.773-1.56s-1.336-0.479-2.461-0.479h-2.197V36.527
		z M548.312,37.793v4.808h2.681c1.037,0,1.818-0.201,2.342-0.602c0.525-0.401,0.787-1.03,0.787-1.885
		c0-0.797-0.268-1.383-0.805-1.758c-0.535-0.375-1.352-0.563-2.447-0.563H548.312z"/>
	<path fill="#FFFFFF" d="M559.632,34.242v6.249c0,0.785,0.179,1.371,0.536,1.758s0.917,0.58,1.679,0.58
		c1.008,0,1.745-0.275,2.21-0.826c0.467-0.551,0.699-1.45,0.699-2.698v-5.063h1.459v9.633h-1.204l-0.211-1.292h-0.079
		c-0.299,0.475-0.713,0.838-1.244,1.09c-0.529,0.252-1.135,0.378-1.814,0.378c-1.172,0-2.049-0.278-2.633-0.835
		c-0.582-0.557-0.874-1.447-0.874-2.672v-6.302H559.632z"/>
	<path fill="#FFFFFF" d="M575.9,43.875v-6.231c0-0.785-0.179-1.371-0.536-1.758s-0.917-0.58-1.679-0.58
		c-1.008,0-1.746,0.272-2.215,0.817s-0.703,1.444-0.703,2.698v5.054h-1.459v-9.633h1.187l0.237,1.318h0.07
		c0.299-0.475,0.718-0.842,1.257-1.103s1.14-0.391,1.802-0.391c1.16,0,2.033,0.28,2.619,0.839s0.879,1.455,0.879,2.685v6.284H575.9z
		"/>
	<path fill="#FFFFFF" d="M586.948,43.875v-6.231c0-0.785-0.179-1.371-0.536-1.758s-0.917-0.58-1.679-0.58
		c-1.008,0-1.746,0.272-2.215,0.817s-0.703,1.444-0.703,2.698v5.054h-1.459v-9.633h1.187l0.237,1.318h0.07
		c0.299-0.475,0.718-0.842,1.257-1.103s1.14-0.391,1.802-0.391c1.16,0,2.033,0.28,2.619,0.839s0.879,1.455,0.879,2.685v6.284
		H586.948z"/>
	<path fill="#FFFFFF" d="M589.875,34.242h1.564l2.109,5.493c0.463,1.254,0.75,2.159,0.861,2.716h0.07
		c0.076-0.299,0.236-0.81,0.479-1.534c0.244-0.724,1.039-2.949,2.387-6.675h1.564l-4.14,10.969c-0.41,1.084-0.89,1.853-1.437,2.307
		c-0.549,0.454-1.221,0.681-2.018,0.681c-0.445,0-0.885-0.05-1.318-0.149v-1.169c0.322,0.07,0.683,0.105,1.081,0.105
		c1.002,0,1.717-0.563,2.145-1.688l0.536-1.371L589.875,34.242z"/>
	<path fill="#FFFFFF" d="M605.37,43.875v-12.85h1.494v12.85H605.37z"/>
	<path fill="#FFFFFF" d="M618.536,34.77c0,1.301-0.444,2.301-1.331,3.001c-0.889,0.7-2.158,1.05-3.811,1.05h-1.512v5.054h-1.494
		v-12.85h3.331C616.931,31.025,618.536,32.273,618.536,34.77z M611.883,37.538h1.345c1.324,0,2.282-0.214,2.874-0.642
		s0.888-1.113,0.888-2.057c0-0.85-0.278-1.482-0.835-1.898s-1.424-0.624-2.602-0.624h-1.67V37.538z"/>
	<path fill="#FFFFFF" d="M629.303,43.875l-1.6-4.087h-5.15l-1.582,4.087h-1.512l5.08-12.902h1.257l5.054,12.902H629.303z
		 M627.237,38.443l-1.494-3.981c-0.193-0.504-0.393-1.122-0.598-1.854c-0.129,0.563-0.313,1.181-0.554,1.854l-1.512,3.981H627.237z"
		/>
	<path fill="#FFFFFF" d="M633.926,41.783l0.132,0.202c-0.152,0.586-0.372,1.267-0.659,2.043s-0.586,1.499-0.896,2.167h-1.099
		c0.158-0.609,0.333-1.362,0.522-2.259c0.191-0.896,0.324-1.614,0.4-2.153H633.926z"/>
	<path fill="#FFFFFF" d="M82.878,66.583h-0.079c-0.674,0.979-1.682,1.468-3.023,1.468c-1.26,0-2.24-0.431-2.94-1.292
		s-1.05-2.086-1.05-3.674s0.352-2.821,1.055-3.7s1.682-1.318,2.936-1.318c1.307,0,2.309,0.475,3.006,1.424h0.114l-0.062-0.694
		l-0.035-0.677v-3.92h1.459v13.676h-1.187L82.878,66.583z M79.96,66.829c0.996,0,1.718-0.271,2.167-0.813
		c0.448-0.541,0.672-1.416,0.672-2.623v-0.308c0-1.365-0.227-2.339-0.681-2.923c-0.454-0.582-1.179-0.874-2.175-0.874
		c-0.855,0-1.51,0.333-1.964,0.997c-0.454,0.666-0.681,1.604-0.681,2.817c0,1.23,0.226,2.159,0.677,2.786
		S79.087,66.829,79.96,66.829z"/>
	<path fill="#FFFFFF" d="M91.421,68.051c-1.424,0-2.547-0.434-3.371-1.301s-1.235-2.071-1.235-3.612c0-1.553,0.382-2.786,1.147-3.7
		s1.792-1.371,3.081-1.371c1.207,0,2.162,0.396,2.865,1.191c0.703,0.793,1.055,1.841,1.055,3.142v0.923h-6.636
		c0.029,1.131,0.315,1.989,0.857,2.575s1.305,0.879,2.29,0.879c1.037,0,2.063-0.217,3.076-0.65v1.301
		c-0.516,0.223-1.003,0.382-1.463,0.479C92.626,68.002,92.071,68.051,91.421,68.051z M91.025,59.288c-0.773,0-1.39,0.252-1.85,0.756
		s-0.731,1.201-0.813,2.092h5.036c0-0.92-0.205-1.624-0.615-2.114C92.373,59.533,91.787,59.288,91.025,59.288z"/>
	<path fill="#FFFFFF" d="M100.562,66.847c0.258,0,0.507-0.019,0.747-0.058c0.24-0.037,0.431-0.077,0.571-0.118v1.116
		c-0.158,0.076-0.391,0.139-0.699,0.189c-0.308,0.049-0.584,0.074-0.831,0.074c-1.863,0-2.795-0.981-2.795-2.944v-5.73h-1.38v-0.703
		l1.38-0.606l0.615-2.057h0.844v2.232h2.795v1.134h-2.795v5.669c0,0.58,0.138,1.025,0.413,1.336S100.081,66.847,100.562,66.847z"/>
	<path fill="#FFFFFF" d="M107.874,68.051c-1.424,0-2.547-0.434-3.371-1.301s-1.235-2.071-1.235-3.612c0-1.553,0.382-2.786,1.147-3.7
		s1.792-1.371,3.081-1.371c1.207,0,2.162,0.396,2.865,1.191c0.703,0.793,1.055,1.841,1.055,3.142v0.923h-6.636
		c0.029,1.131,0.315,1.989,0.857,2.575s1.305,0.879,2.29,0.879c1.037,0,2.063-0.217,3.076-0.65v1.301
		c-0.516,0.223-1.003,0.382-1.463,0.479C109.08,68.002,108.524,68.051,107.874,68.051z M107.479,59.288
		c-0.773,0-1.39,0.252-1.85,0.756s-0.731,1.201-0.813,2.092h5.036c0-0.92-0.205-1.624-0.615-2.114
		C108.826,59.533,108.24,59.288,107.479,59.288z"/>
	<path fill="#FFFFFF" d="M117.753,68.051c-1.395,0-2.474-0.429-3.239-1.287s-1.147-2.073-1.147-3.644
		c0-1.611,0.388-2.856,1.165-3.735s1.882-1.318,3.318-1.318c0.463,0,0.926,0.05,1.389,0.149s0.826,0.217,1.09,0.352l-0.448,1.239
		c-0.322-0.129-0.674-0.236-1.055-0.32c-0.381-0.086-0.718-0.128-1.011-0.128c-1.957,0-2.936,1.248-2.936,3.744
		c0,1.184,0.239,2.092,0.716,2.725s1.185,0.949,2.123,0.949c0.803,0,1.626-0.173,2.47-0.519v1.292
		C119.543,67.884,118.731,68.051,117.753,68.051z"/>
	<path fill="#FFFFFF" d="M125.584,66.847c0.258,0,0.507-0.019,0.747-0.058c0.24-0.037,0.431-0.077,0.571-0.118v1.116
		c-0.158,0.076-0.391,0.139-0.699,0.189c-0.308,0.049-0.584,0.074-0.831,0.074c-1.863,0-2.795-0.981-2.795-2.944v-5.73h-1.38v-0.703
		l1.38-0.606l0.615-2.057h0.844v2.232h2.795v1.134h-2.795v5.669c0,0.58,0.138,1.025,0.413,1.336S125.104,66.847,125.584,66.847z"/>
	<path fill="#FFFFFF" d="M134.751,67.875l-0.29-1.371h-0.07c-0.48,0.604-0.959,1.013-1.437,1.227
		c-0.478,0.213-1.074,0.32-1.789,0.32c-0.955,0-1.704-0.246-2.246-0.738s-0.813-1.192-0.813-2.101c0-1.945,1.556-2.965,4.667-3.059
		l1.635-0.053v-0.598c0-0.756-0.163-1.313-0.488-1.675c-0.325-0.359-0.845-0.54-1.56-0.54c-0.803,0-1.711,0.246-2.725,0.738
		l-0.448-1.116c0.475-0.258,0.995-0.46,1.56-0.606s1.132-0.22,1.701-0.22c1.148,0,2,0.255,2.553,0.765s0.831,1.327,0.831,2.452
		v6.574H134.751z M131.455,66.847c0.908,0,1.622-0.249,2.14-0.747s0.778-1.195,0.778-2.092v-0.87l-1.459,0.062
		c-1.16,0.041-1.997,0.222-2.509,0.541s-0.769,0.815-0.769,1.489c0,0.527,0.16,0.929,0.479,1.204S130.881,66.847,131.455,66.847z"/>
	<path fill="#FFFFFF" d="M143.32,58.084c1.266,0,2.249,0.432,2.949,1.297c0.7,0.863,1.05,2.087,1.05,3.669s-0.353,2.812-1.059,3.687
		c-0.706,0.877-1.686,1.314-2.94,1.314c-0.627,0-1.2-0.116-1.718-0.348c-0.519-0.23-0.954-0.587-1.305-1.067h-0.105l-0.308,1.239
		h-1.046V54.199h1.459v3.322c0,0.744-0.023,1.412-0.07,2.004h0.07C140.977,58.564,141.984,58.084,143.32,58.084z M143.109,59.306
		c-0.996,0-1.714,0.286-2.153,0.856c-0.439,0.572-0.659,1.534-0.659,2.888s0.226,2.322,0.677,2.905s1.175,0.874,2.171,0.874
		c0.896,0,1.564-0.326,2.004-0.979s0.659-1.593,0.659-2.817c0-1.254-0.22-2.188-0.659-2.804S144.029,59.306,143.109,59.306z"/>
	<path fill="#FFFFFF" d="M151.327,67.875h-1.459V54.199h1.459V67.875z"/>
	<path fill="#FFFFFF" d="M158.49,68.051c-1.424,0-2.547-0.434-3.371-1.301s-1.235-2.071-1.235-3.612c0-1.553,0.382-2.786,1.147-3.7
		s1.792-1.371,3.081-1.371c1.207,0,2.162,0.396,2.865,1.191c0.703,0.793,1.055,1.841,1.055,3.142v0.923h-6.636
		c0.029,1.131,0.315,1.989,0.857,2.575s1.305,0.879,2.29,0.879c1.037,0,2.063-0.217,3.076-0.65v1.301
		c-0.516,0.223-1.003,0.382-1.463,0.479C159.696,68.002,159.141,68.051,158.49,68.051z M158.095,59.288
		c-0.773,0-1.39,0.252-1.85,0.756s-0.731,1.201-0.813,2.092h5.036c0-0.92-0.205-1.624-0.615-2.114
		C159.442,59.533,158.856,59.288,158.095,59.288z"/>
	<path fill="#FFFFFF" d="M172.307,66.847c0.258,0,0.507-0.019,0.747-0.058c0.24-0.037,0.431-0.077,0.571-0.118v1.116
		c-0.158,0.076-0.391,0.139-0.699,0.189c-0.308,0.049-0.584,0.074-0.831,0.074c-1.863,0-2.795-0.981-2.795-2.944v-5.73h-1.38v-0.703
		l1.38-0.606l0.615-2.057h0.844v2.232h2.795v1.134h-2.795v5.669c0,0.58,0.138,1.025,0.413,1.336S171.826,66.847,172.307,66.847z"/>
	<path fill="#FFFFFF" d="M183.864,63.05c0,1.57-0.396,2.797-1.187,3.679s-1.884,1.322-3.278,1.322c-0.861,0-1.626-0.202-2.294-0.606
		s-1.184-0.984-1.547-1.74s-0.545-1.641-0.545-2.654c0-1.57,0.393-2.794,1.178-3.669c0.785-0.877,1.875-1.314,3.27-1.314
		c1.348,0,2.418,0.448,3.212,1.345S183.864,61.521,183.864,63.05z M176.525,63.05c0,1.23,0.246,2.168,0.738,2.813
		s1.216,0.967,2.171,0.967s1.68-0.321,2.175-0.962c0.495-0.643,0.743-1.581,0.743-2.817c0-1.225-0.248-2.155-0.743-2.79
		c-0.495-0.637-1.226-0.954-2.193-0.954c-0.955,0-1.676,0.313-2.162,0.94S176.525,61.808,176.525,63.05z"/>
	<path fill="#FFFFFF" d="M192.056,67.875l5.326-11.505h-7.005v-1.345h8.552v1.169l-5.256,11.681H192.056z"/>
	<path fill="#FFFFFF" d="M208.685,58.049c0,0.82-0.23,1.491-0.69,2.013s-1.112,0.87-1.956,1.046v0.07
		c1.031,0.129,1.796,0.457,2.294,0.984s0.747,1.219,0.747,2.074c0,1.225-0.425,2.166-1.274,2.826
		c-0.85,0.658-2.057,0.988-3.621,0.988c-0.68,0-1.302-0.052-1.868-0.154c-0.565-0.102-1.115-0.282-1.648-0.54v-1.389
		c0.557,0.275,1.15,0.485,1.78,0.628c0.63,0.145,1.226,0.216,1.789,0.216c2.221,0,3.331-0.87,3.331-2.61
		c0-1.559-1.225-2.338-3.674-2.338h-1.266v-1.257h1.283c1.002,0,1.796-0.222,2.382-0.663c0.586-0.443,0.879-1.057,0.879-1.842
		c0-0.627-0.215-1.119-0.646-1.477s-1.015-0.536-1.753-0.536c-0.563,0-1.093,0.076-1.591,0.229s-1.066,0.434-1.705,0.844
		l-0.738-0.984c0.527-0.416,1.135-0.743,1.824-0.979c0.688-0.238,1.414-0.356,2.175-0.356c1.248,0,2.218,0.286,2.909,0.856
		C208.339,56.27,208.685,57.053,208.685,58.049z"/>
	<path fill="#FFFFFF" d="M211.471,66.943c0-0.393,0.089-0.689,0.268-0.893c0.179-0.201,0.435-0.303,0.769-0.303
		c0.34,0,0.605,0.102,0.795,0.303c0.19,0.203,0.286,0.5,0.286,0.893c0,0.381-0.097,0.674-0.29,0.879s-0.457,0.308-0.791,0.308
		c-0.299,0-0.546-0.093-0.743-0.276C211.569,67.668,211.471,67.365,211.471,66.943z"/>
	<path fill="#FFFFFF" d="M221.209,67.875h-1.424v-9.158c0-0.762,0.023-1.482,0.07-2.162c-0.123,0.123-0.261,0.252-0.413,0.387
		s-0.85,0.706-2.092,1.714l-0.773-1.002l3.401-2.628h1.23V67.875z"/>
	<path fill="#FFFFFF" d="M231.369,58.857c0,1.336-0.224,2.346-0.672,3.027c-0.448,0.684-1.106,1.024-1.973,1.024
		c-0.82,0-1.458-0.349-1.912-1.046s-0.681-1.699-0.681-3.006c0-1.33,0.218-2.332,0.655-3.006s1.083-1.011,1.938-1.011
		c0.85,0,1.503,0.349,1.96,1.046S231.369,57.574,231.369,58.857z M227.344,58.857c0,0.996,0.108,1.743,0.325,2.241
		s0.568,0.747,1.055,0.747c0.961,0,1.441-0.996,1.441-2.988c0-1.98-0.48-2.971-1.441-2.971c-0.486,0-0.838,0.246-1.055,0.738
		S227.344,57.861,227.344,58.857z M236.845,55.025l-7.128,12.85h-1.292l7.128-12.85H236.845z M239.112,64.008
		c0,1.33-0.224,2.337-0.672,3.02s-1.106,1.023-1.973,1.023c-0.832,0-1.472-0.349-1.92-1.046s-0.672-1.696-0.672-2.997
		c0-1.33,0.218-2.332,0.655-3.006s1.083-1.011,1.938-1.011c0.832,0,1.481,0.345,1.947,1.032
		C238.879,61.713,239.112,62.707,239.112,64.008z M235.078,64.008c0,1.002,0.108,1.751,0.325,2.246s0.571,0.742,1.063,0.742
		s0.855-0.244,1.09-0.734c0.234-0.488,0.352-1.24,0.352-2.254c0-1.002-0.117-1.744-0.352-2.229c-0.234-0.482-0.598-0.725-1.09-0.725
		s-0.847,0.242-1.063,0.725C235.187,62.264,235.078,63.006,235.078,64.008z"/>
	<path fill="#FFFFFF" d="M254.572,63.05c0,1.57-0.396,2.797-1.187,3.679s-1.884,1.322-3.278,1.322c-0.861,0-1.626-0.202-2.294-0.606
		s-1.184-0.984-1.547-1.74s-0.545-1.641-0.545-2.654c0-1.57,0.393-2.794,1.178-3.669c0.785-0.877,1.875-1.314,3.27-1.314
		c1.348,0,2.418,0.448,3.212,1.345S254.572,61.521,254.572,63.05z M247.233,63.05c0,1.23,0.246,2.168,0.738,2.813
		s1.216,0.967,2.171,0.967s1.68-0.321,2.175-0.962c0.495-0.643,0.743-1.581,0.743-2.817c0-1.225-0.248-2.155-0.743-2.79
		c-0.495-0.637-1.226-0.954-2.193-0.954c-0.955,0-1.676,0.313-2.162,0.94S247.233,61.808,247.233,63.05z"/>
	<path fill="#FFFFFF" d="M261.472,59.376h-2.452v8.499h-1.459v-8.499h-1.723v-0.659l1.723-0.527v-0.536
		c0-2.367,1.034-3.551,3.103-3.551c0.51,0,1.107,0.103,1.793,0.308l-0.378,1.169c-0.563-0.182-1.043-0.272-1.441-0.272
		c-0.551,0-0.958,0.184-1.222,0.549c-0.264,0.367-0.396,0.954-0.396,1.763v0.624h2.452V59.376z"/>
	<path fill="#FFFFFF" d="M271.755,68.051c-1.395,0-2.474-0.429-3.239-1.287s-1.147-2.073-1.147-3.644
		c0-1.611,0.388-2.856,1.165-3.735s1.882-1.318,3.318-1.318c0.463,0,0.926,0.05,1.389,0.149s0.826,0.217,1.09,0.352l-0.448,1.239
		c-0.322-0.129-0.674-0.236-1.055-0.32c-0.381-0.086-0.718-0.128-1.011-0.128c-1.957,0-2.936,1.248-2.936,3.744
		c0,1.184,0.239,2.092,0.716,2.725s1.185,0.949,2.123,0.949c0.803,0,1.626-0.173,2.47-0.519v1.292
		C273.545,67.884,272.733,68.051,271.755,68.051z"/>
	<path fill="#FFFFFF" d="M284.789,63.05c0,1.57-0.396,2.797-1.187,3.679s-1.884,1.322-3.278,1.322c-0.861,0-1.626-0.202-2.294-0.606
		s-1.184-0.984-1.547-1.74s-0.545-1.641-0.545-2.654c0-1.57,0.393-2.794,1.178-3.669c0.785-0.877,1.875-1.314,3.27-1.314
		c1.348,0,2.419,0.448,3.212,1.345C284.393,60.308,284.789,61.521,284.789,63.05z M277.45,63.05c0,1.23,0.246,2.168,0.738,2.813
		s1.216,0.967,2.171,0.967s1.68-0.321,2.176-0.962c0.494-0.643,0.742-1.581,0.742-2.817c0-1.225-0.248-2.155-0.742-2.79
		c-0.496-0.637-1.227-0.954-2.193-0.954c-0.955,0-1.676,0.313-2.162,0.94S277.45,61.808,277.45,63.05z"/>
	<path fill="#FFFFFF" d="M293.938,67.875v-6.231c0-0.785-0.179-1.371-0.536-1.758s-0.917-0.58-1.679-0.58
		c-1.008,0-1.746,0.272-2.215,0.817s-0.703,1.444-0.703,2.698v5.054h-1.459v-9.633h1.187l0.237,1.318h0.07
		c0.299-0.475,0.718-0.842,1.257-1.104c0.539-0.26,1.14-0.391,1.802-0.391c1.16,0,2.033,0.279,2.619,0.84
		c0.586,0.559,0.879,1.454,0.879,2.685v6.284H293.938z"/>
	<path fill="#FFFFFF" d="M304.608,65.247c0,0.896-0.334,1.588-1.002,2.074s-1.605,0.729-2.813,0.729
		c-1.277,0-2.273-0.202-2.988-0.606v-1.354c0.463,0.234,0.96,0.419,1.489,0.554c0.531,0.135,1.042,0.202,1.534,0.202
		c0.762,0,1.348-0.121,1.758-0.364s0.615-0.614,0.615-1.112c0-0.375-0.163-0.695-0.487-0.962c-0.326-0.267-0.96-0.582-1.903-0.945
		c-0.896-0.334-1.534-0.625-1.911-0.875c-0.379-0.248-0.66-0.531-0.844-0.848c-0.186-0.316-0.277-0.694-0.277-1.134
		c0-0.785,0.319-1.405,0.958-1.858c0.639-0.455,1.515-0.682,2.628-0.682c1.037,0,2.051,0.211,3.041,0.633l-0.519,1.187
		c-0.967-0.398-1.843-0.598-2.628-0.598c-0.691,0-1.213,0.108-1.564,0.325s-0.527,0.516-0.527,0.896
		c0,0.258,0.066,0.478,0.197,0.659c0.133,0.182,0.345,0.354,0.638,0.519s0.855,0.401,1.688,0.712
		c1.143,0.416,1.915,0.835,2.315,1.257C304.408,64.078,304.608,64.608,304.608,65.247z"/>
	<path fill="#FFFFFF" d="M308.353,58.242v6.249c0,0.785,0.179,1.371,0.536,1.758s0.917,0.58,1.679,0.58
		c1.008,0,1.745-0.275,2.21-0.826c0.467-0.551,0.699-1.45,0.699-2.698v-5.063h1.459v9.633h-1.204l-0.211-1.292h-0.079
		c-0.299,0.475-0.713,0.838-1.244,1.09c-0.529,0.252-1.135,0.378-1.814,0.378c-1.172,0-2.049-0.278-2.633-0.835
		c-0.582-0.557-0.874-1.447-0.874-2.672v-6.302H308.353z"/>
	<path fill="#FFFFFF" d="M330.308,67.875v-6.267c0-0.768-0.164-1.343-0.492-1.728c-0.328-0.383-0.838-0.575-1.529-0.575
		c-0.908,0-1.579,0.261-2.013,0.782s-0.65,1.324-0.65,2.408v5.379h-1.459v-6.267c0-0.768-0.164-1.343-0.492-1.728
		c-0.328-0.383-0.841-0.575-1.538-0.575c-0.914,0-1.583,0.274-2.009,0.821c-0.424,0.549-0.637,1.446-0.637,2.694v5.054h-1.459
		v-9.633h1.187l0.237,1.318h0.07c0.275-0.469,0.664-0.835,1.164-1.099c0.502-0.264,1.063-0.396,1.684-0.396
		c1.506,0,2.49,0.545,2.953,1.635h0.07c0.287-0.504,0.703-0.902,1.248-1.195s1.166-0.439,1.863-0.439c1.09,0,1.906,0.279,2.447,0.84
		c0.543,0.559,0.813,1.454,0.813,2.685v6.284H330.308z"/>
	<path fill="#FFFFFF" d="M338.842,68.051c-1.424,0-2.547-0.434-3.371-1.301c-0.822-0.867-1.234-2.071-1.234-3.612
		c0-1.553,0.383-2.786,1.146-3.7c0.766-0.914,1.792-1.371,3.081-1.371c1.207,0,2.162,0.396,2.865,1.191
		c0.703,0.793,1.055,1.841,1.055,3.142v0.923h-6.636c0.029,1.131,0.314,1.989,0.857,2.575c0.541,0.586,1.305,0.879,2.289,0.879
		c1.037,0,2.063-0.217,3.076-0.65v1.301c-0.516,0.223-1.004,0.382-1.463,0.479C340.047,68.002,339.492,68.051,338.842,68.051z
		 M338.446,59.288c-0.773,0-1.39,0.252-1.851,0.756c-0.459,0.504-0.73,1.201-0.813,2.092h5.036c0-0.92-0.205-1.624-0.615-2.114
		C339.794,59.533,339.208,59.288,338.446,59.288z"/>
	<path fill="#FFFFFF" d="M349.266,58.066c0.428,0,0.812,0.035,1.151,0.105l-0.202,1.354c-0.398-0.088-0.75-0.132-1.055-0.132
		c-0.779,0-1.445,0.316-2,0.949c-0.553,0.633-0.83,1.421-0.83,2.364v5.168h-1.459v-9.633h1.204l0.167,1.784h0.07
		c0.357-0.627,0.788-1.11,1.292-1.45S348.662,58.066,349.266,58.066z"/>
	<path fill="#FFFFFF" d="M358.433,65.247c0,0.896-0.334,1.588-1.002,2.074s-1.605,0.729-2.813,0.729
		c-1.277,0-2.273-0.202-2.988-0.606v-1.354c0.463,0.234,0.96,0.419,1.489,0.554c0.531,0.135,1.042,0.202,1.534,0.202
		c0.762,0,1.348-0.121,1.758-0.364s0.615-0.614,0.615-1.112c0-0.375-0.163-0.695-0.487-0.962c-0.326-0.267-0.96-0.582-1.903-0.945
		c-0.896-0.334-1.534-0.625-1.911-0.875c-0.379-0.248-0.66-0.531-0.844-0.848c-0.186-0.316-0.277-0.694-0.277-1.134
		c0-0.785,0.319-1.405,0.958-1.858c0.639-0.455,1.515-0.682,2.628-0.682c1.037,0,2.051,0.211,3.041,0.633l-0.519,1.187
		c-0.967-0.398-1.843-0.598-2.628-0.598c-0.691,0-1.213,0.108-1.564,0.325s-0.527,0.516-0.527,0.896
		c0,0.258,0.066,0.478,0.197,0.659c0.133,0.182,0.345,0.354,0.638,0.519s0.855,0.401,1.688,0.712
		c1.143,0.416,1.915,0.835,2.315,1.257C358.232,64.078,358.433,64.608,358.433,65.247z"/>
	<path fill="#FFFFFF" d="M360.595,66.943c0-0.393,0.089-0.689,0.269-0.893c0.178-0.201,0.435-0.303,0.769-0.303
		c0.34,0,0.604,0.102,0.796,0.303c0.189,0.203,0.285,0.5,0.285,0.893c0,0.381-0.097,0.674-0.29,0.879s-0.457,0.308-0.791,0.308
		c-0.299,0-0.546-0.093-0.743-0.276C360.693,67.668,360.595,67.365,360.595,66.943z"/>
	<path fill="#FFFFFF" d="M370.491,67.875v-12.85h1.494v11.496h5.669v1.354H370.491z"/>
	<path fill="#FFFFFF" d="M387.929,63.05c0,1.57-0.396,2.797-1.187,3.679s-1.884,1.322-3.278,1.322c-0.861,0-1.626-0.202-2.294-0.606
		s-1.184-0.984-1.547-1.74s-0.545-1.641-0.545-2.654c0-1.57,0.393-2.794,1.178-3.669c0.785-0.877,1.875-1.314,3.27-1.314
		c1.348,0,2.418,0.448,3.213,1.345C387.531,60.308,387.929,61.521,387.929,63.05z M380.59,63.05c0,1.23,0.246,2.168,0.738,2.813
		s1.216,0.967,2.171,0.967s1.681-0.321,2.175-0.962c0.496-0.643,0.743-1.581,0.743-2.817c0-1.225-0.247-2.155-0.743-2.79
		c-0.494-0.637-1.226-0.954-2.192-0.954c-0.955,0-1.676,0.313-2.162,0.94S380.59,61.808,380.59,63.05z"/>
	<path fill="#FFFFFF" d="M398.37,58.242v0.923l-1.784,0.211c0.164,0.205,0.311,0.474,0.439,0.804
		c0.129,0.332,0.193,0.705,0.193,1.121c0,0.943-0.322,1.696-0.967,2.259s-1.529,0.844-2.654,0.844c-0.287,0-0.557-0.023-0.809-0.07
		c-0.621,0.328-0.932,0.741-0.932,1.239c0,0.264,0.108,0.459,0.325,0.584c0.217,0.127,0.589,0.189,1.116,0.189h1.705
		c1.043,0,1.844,0.22,2.404,0.659c0.559,0.439,0.839,1.078,0.839,1.916c0,1.066-0.428,1.879-1.283,2.438s-2.104,0.84-3.744,0.84
		c-1.26,0-2.231-0.234-2.913-0.703c-0.684-0.469-1.024-1.131-1.024-1.986c0-0.586,0.188-1.093,0.563-1.521s0.902-0.718,1.582-0.87
		c-0.246-0.111-0.452-0.284-0.62-0.519c-0.166-0.234-0.25-0.507-0.25-0.817c0-0.352,0.094-0.659,0.281-0.923
		s0.483-0.519,0.888-0.765c-0.498-0.205-0.903-0.554-1.218-1.046c-0.313-0.492-0.47-1.055-0.47-1.688
		c0-1.055,0.316-1.868,0.949-2.438c0.633-0.572,1.529-0.857,2.689-0.857c0.504,0,0.958,0.059,1.362,0.176H398.37z M390.688,69.492
		c0,0.521,0.22,0.917,0.659,1.187s1.069,0.404,1.89,0.404c1.225,0,2.132-0.184,2.72-0.55c0.59-0.366,0.884-0.862,0.884-1.489
		c0-0.521-0.161-0.884-0.483-1.085c-0.322-0.203-0.929-0.304-1.819-0.304h-1.749c-0.662,0-1.178,0.158-1.547,0.475
		S390.688,68.9,390.688,69.492z M391.479,61.327c0,0.674,0.19,1.184,0.571,1.529s0.911,0.519,1.591,0.519
		c1.424,0,2.136-0.691,2.136-2.074c0-1.447-0.721-2.171-2.162-2.171c-0.686,0-1.213,0.185-1.582,0.554
		S391.479,60.601,391.479,61.327z"/>
	<path fill="#FFFFFF" d="M404.9,55.632c0-0.334,0.082-0.579,0.246-0.733c0.164-0.156,0.369-0.233,0.615-0.233
		c0.234,0,0.437,0.079,0.606,0.237s0.255,0.401,0.255,0.729s-0.085,0.573-0.255,0.733c-0.17,0.162-0.372,0.242-0.606,0.242
		c-0.246,0-0.451-0.08-0.615-0.242C404.982,56.205,404.9,55.96,404.9,55.632z M406.482,67.875h-1.459v-9.633h1.459V67.875z"/>
	<path fill="#FFFFFF" d="M416.168,67.875v-6.231c0-0.785-0.179-1.371-0.536-1.758s-0.917-0.58-1.679-0.58
		c-1.008,0-1.746,0.272-2.215,0.817s-0.703,1.444-0.703,2.698v5.054h-1.459v-9.633h1.187L411,59.561h0.07
		c0.299-0.475,0.718-0.842,1.257-1.104c0.539-0.26,1.14-0.391,1.802-0.391c1.16,0,2.033,0.279,2.619,0.84
		c0.586,0.559,0.879,1.454,0.879,2.685v6.284H416.168z"/>
	<path fill="#FFFFFF" d="M428.411,66.847c0.258,0,0.507-0.019,0.747-0.058c0.24-0.037,0.431-0.077,0.571-0.118v1.116
		c-0.158,0.076-0.392,0.139-0.698,0.189c-0.309,0.049-0.585,0.074-0.831,0.074c-1.863,0-2.795-0.981-2.795-2.944v-5.73h-1.38v-0.703
		l1.38-0.606l0.615-2.057h0.844v2.232h2.795v1.134h-2.795v5.669c0,0.58,0.138,1.025,0.413,1.336S427.931,66.847,428.411,66.847z"/>
	<path fill="#FFFFFF" d="M439.969,63.05c0,1.57-0.396,2.797-1.187,3.679s-1.884,1.322-3.278,1.322c-0.861,0-1.626-0.202-2.294-0.606
		s-1.184-0.984-1.547-1.74s-0.545-1.641-0.545-2.654c0-1.57,0.393-2.794,1.178-3.669c0.785-0.877,1.875-1.314,3.27-1.314
		c1.348,0,2.419,0.448,3.212,1.345C439.572,60.308,439.969,61.521,439.969,63.05z M432.63,63.05c0,1.23,0.246,2.168,0.738,2.813
		s1.216,0.967,2.171,0.967s1.68-0.321,2.176-0.962c0.494-0.643,0.742-1.581,0.742-2.817c0-1.225-0.248-2.155-0.742-2.79
		c-0.496-0.637-1.227-0.954-2.193-0.954c-0.955,0-1.676,0.313-2.162,0.94S432.63,61.808,432.63,63.05z"/>
	<path fill="#FFFFFF" d="M445.673,58.242h1.564l2.109,5.493c0.463,1.254,0.75,2.159,0.861,2.716h0.07
		c0.076-0.299,0.235-0.81,0.479-1.533c0.242-0.724,1.038-2.949,2.386-6.676h1.564l-4.14,10.969c-0.41,1.084-0.889,1.853-1.438,2.307
		c-0.547,0.454-1.22,0.682-2.017,0.682c-0.445,0-0.885-0.05-1.318-0.149v-1.169c0.322,0.07,0.683,0.105,1.081,0.105
		c1.002,0,1.717-0.563,2.145-1.688l0.536-1.371L445.673,58.242z"/>
	<path fill="#FFFFFF" d="M464.587,63.05c0,1.57-0.396,2.797-1.187,3.679s-1.884,1.322-3.278,1.322c-0.861,0-1.626-0.202-2.294-0.606
		s-1.184-0.984-1.547-1.74s-0.545-1.641-0.545-2.654c0-1.57,0.393-2.794,1.178-3.669c0.785-0.877,1.875-1.314,3.27-1.314
		c1.348,0,2.418,0.448,3.213,1.345C464.189,60.308,464.587,61.521,464.587,63.05z M457.248,63.05c0,1.23,0.246,2.168,0.738,2.813
		s1.216,0.967,2.171,0.967s1.681-0.321,2.175-0.962c0.496-0.643,0.743-1.581,0.743-2.817c0-1.225-0.247-2.155-0.743-2.79
		c-0.494-0.637-1.226-0.954-2.192-0.954c-0.955,0-1.676,0.313-2.162,0.94S457.248,61.808,457.248,63.05z"/>
	<path fill="#FFFFFF" d="M468.516,58.242v6.249c0,0.785,0.179,1.371,0.536,1.758s0.917,0.58,1.679,0.58
		c1.008,0,1.744-0.275,2.211-0.826c0.465-0.551,0.698-1.45,0.698-2.698v-5.063h1.459v9.633h-1.204l-0.211-1.292h-0.079
		c-0.299,0.475-0.714,0.838-1.243,1.09c-0.531,0.252-1.136,0.378-1.815,0.378c-1.172,0-2.05-0.278-2.632-0.835
		c-0.584-0.557-0.875-1.447-0.875-2.672v-6.302H468.516z"/>
	<path fill="#FFFFFF" d="M482.587,58.066c0.428,0,0.812,0.035,1.151,0.105l-0.202,1.354c-0.398-0.088-0.75-0.132-1.055-0.132
		c-0.779,0-1.446,0.316-1.999,0.949c-0.555,0.633-0.831,1.421-0.831,2.364v5.168h-1.459v-9.633h1.204l0.167,1.784h0.07
		c0.357-0.627,0.788-1.11,1.292-1.45S481.983,58.066,482.587,58.066z"/>
	<path fill="#FFFFFF" d="M498.583,58.77c0,1.301-0.444,2.301-1.331,3.002c-0.889,0.7-2.158,1.05-3.811,1.05h-1.512v5.054h-1.494
		v-12.85h3.331C496.978,55.025,498.583,56.273,498.583,58.77z M491.93,61.538h1.345c1.324,0,2.282-0.214,2.874-0.642
		s0.888-1.113,0.888-2.057c0-0.85-0.278-1.482-0.835-1.898s-1.424-0.624-2.602-0.624h-1.67V61.538z"/>
	<path fill="#FFFFFF" d="M505.447,58.066c0.428,0,0.812,0.035,1.151,0.105l-0.202,1.354c-0.398-0.088-0.75-0.132-1.055-0.132
		c-0.779,0-1.445,0.316-2,0.949c-0.553,0.633-0.83,1.421-0.83,2.364v5.168h-1.459v-9.633h1.204l0.167,1.784h0.07
		c0.357-0.627,0.788-1.11,1.292-1.45S504.844,58.066,505.447,58.066z"/>
	<path fill="#FFFFFF" d="M516.715,63.05c0,1.57-0.396,2.797-1.187,3.679s-1.884,1.322-3.278,1.322c-0.861,0-1.626-0.202-2.294-0.606
		s-1.184-0.984-1.547-1.74s-0.545-1.641-0.545-2.654c0-1.57,0.393-2.794,1.178-3.669c0.785-0.877,1.875-1.314,3.27-1.314
		c1.348,0,2.419,0.448,3.212,1.345C516.318,60.308,516.715,61.521,516.715,63.05z M509.376,63.05c0,1.23,0.246,2.168,0.738,2.813
		s1.216,0.967,2.171,0.967s1.68-0.321,2.176-0.962c0.494-0.643,0.742-1.581,0.742-2.817c0-1.225-0.248-2.155-0.742-2.79
		c-0.496-0.637-1.227-0.954-2.193-0.954c-0.955,0-1.676,0.313-2.162,0.94S509.376,61.808,509.376,63.05z"/>
	<path fill="#FFFFFF" d="M525.829,66.583h-0.079c-0.674,0.979-1.682,1.468-3.023,1.468c-1.26,0-2.24-0.431-2.939-1.292
		c-0.701-0.861-1.051-2.086-1.051-3.674s0.352-2.821,1.055-3.7s1.682-1.318,2.936-1.318c1.307,0,2.309,0.475,3.006,1.424h0.114
		l-0.062-0.694l-0.035-0.677v-3.92h1.459v13.676h-1.187L525.829,66.583z M522.911,66.829c0.996,0,1.718-0.271,2.167-0.813
		c0.447-0.541,0.672-1.416,0.672-2.623v-0.308c0-1.365-0.227-2.339-0.682-2.923c-0.453-0.582-1.179-0.874-2.175-0.874
		c-0.855,0-1.511,0.333-1.964,0.997c-0.455,0.666-0.682,1.604-0.682,2.817c0,1.23,0.226,2.159,0.677,2.786
		S522.038,66.829,522.911,66.829z"/>
	<path fill="#FFFFFF" d="M531.674,58.242v6.249c0,0.785,0.179,1.371,0.536,1.758s0.917,0.58,1.679,0.58
		c1.008,0,1.744-0.275,2.211-0.826c0.465-0.551,0.698-1.45,0.698-2.698v-5.063h1.459v9.633h-1.204l-0.211-1.292h-0.079
		c-0.299,0.475-0.714,0.838-1.243,1.09c-0.531,0.252-1.136,0.378-1.815,0.378c-1.172,0-2.05-0.278-2.632-0.835
		c-0.584-0.557-0.875-1.447-0.875-2.672v-6.302H531.674z"/>
	<path fill="#FFFFFF" d="M545.2,68.051c-1.395,0-2.474-0.429-3.239-1.287c-0.764-0.858-1.146-2.073-1.146-3.644
		c0-1.611,0.389-2.856,1.164-3.735c0.777-0.879,1.883-1.318,3.318-1.318c0.463,0,0.926,0.05,1.389,0.149s0.826,0.217,1.09,0.352
		l-0.448,1.239c-0.322-0.129-0.674-0.236-1.055-0.32c-0.381-0.086-0.718-0.128-1.011-0.128c-1.957,0-2.936,1.248-2.936,3.744
		c0,1.184,0.238,2.092,0.717,2.725c0.477,0.633,1.185,0.949,2.122,0.949c0.803,0,1.626-0.173,2.47-0.519v1.292
		C546.99,67.884,546.179,68.051,545.2,68.051z"/>
	<path fill="#FFFFFF" d="M553.989,68.051c-1.424,0-2.548-0.434-3.37-1.301c-0.824-0.867-1.235-2.071-1.235-3.612
		c0-1.553,0.382-2.786,1.147-3.7c0.764-0.914,1.791-1.371,3.08-1.371c1.207,0,2.162,0.396,2.865,1.191
		c0.703,0.793,1.055,1.841,1.055,3.142v0.923h-6.636c0.029,1.131,0.315,1.989,0.856,2.575c0.543,0.586,1.306,0.879,2.29,0.879
		c1.037,0,2.063-0.217,3.076-0.65v1.301c-0.516,0.223-1.003,0.382-1.464,0.479C555.195,68.002,554.64,68.051,553.989,68.051z
		 M553.594,59.288c-0.773,0-1.391,0.252-1.85,0.756c-0.461,0.504-0.731,1.201-0.813,2.092h5.036c0-0.92-0.205-1.624-0.615-2.114
		C554.941,59.533,554.355,59.288,553.594,59.288z"/>
	<path fill="#FFFFFF" d="M564.413,58.066c0.428,0,0.812,0.035,1.151,0.105l-0.202,1.354c-0.398-0.088-0.75-0.132-1.055-0.132
		c-0.779,0-1.446,0.316-1.999,0.949c-0.555,0.633-0.831,1.421-0.831,2.364v5.168h-1.459v-9.633h1.204l0.167,1.784h0.07
		c0.357-0.627,0.788-1.11,1.292-1.45S563.81,58.066,564.413,58.066z"/>
	<path fill="#FFFFFF" d="M580.409,58.77c0,1.301-0.444,2.301-1.331,3.002c-0.889,0.7-2.158,1.05-3.811,1.05h-1.512v5.054h-1.494
		v-12.85h3.331C578.804,55.025,580.409,56.273,580.409,58.77z M573.756,61.538h1.345c1.324,0,2.282-0.214,2.874-0.642
		s0.888-1.113,0.888-2.057c0-0.85-0.278-1.482-0.835-1.898s-1.424-0.624-2.602-0.624h-1.67V61.538z"/>
	<path fill="#FFFFFF" d="M588.803,67.875l-0.29-1.371h-0.07c-0.48,0.604-0.96,1.013-1.437,1.227c-0.479,0.213-1.074,0.32-1.789,0.32
		c-0.955,0-1.703-0.246-2.246-0.738c-0.541-0.492-0.813-1.192-0.813-2.101c0-1.945,1.556-2.965,4.667-3.059l1.635-0.053v-0.598
		c0-0.756-0.163-1.313-0.487-1.675c-0.326-0.359-0.846-0.54-1.561-0.54c-0.803,0-1.711,0.246-2.725,0.738l-0.448-1.116
		c0.475-0.258,0.995-0.46,1.56-0.606c0.566-0.146,1.133-0.22,1.701-0.22c1.148,0,2,0.255,2.553,0.765
		c0.555,0.51,0.831,1.327,0.831,2.452v6.574H588.803z M585.507,66.847c0.908,0,1.622-0.249,2.14-0.747
		c0.52-0.498,0.778-1.195,0.778-2.092v-0.87l-1.459,0.062c-1.16,0.041-1.997,0.222-2.509,0.541c-0.514,0.319-0.77,0.815-0.77,1.489
		c0,0.527,0.16,0.929,0.479,1.204C584.486,66.709,584.933,66.847,585.507,66.847z"/>
	<path fill="#FFFFFF" d="M599.481,67.875v-6.231c0-0.785-0.179-1.371-0.536-1.758s-0.917-0.58-1.679-0.58
		c-1.008,0-1.746,0.272-2.215,0.817s-0.703,1.444-0.703,2.698v5.054h-1.459v-9.633h1.187l0.237,1.318h0.07
		c0.299-0.475,0.718-0.842,1.257-1.104c0.539-0.26,1.14-0.391,1.802-0.391c1.16,0,2.033,0.279,2.619,0.84
		c0.586,0.559,0.879,1.454,0.879,2.685v6.284H599.481z"/>
	<path fill="#FFFFFF" d="M608.007,68.051c-1.424,0-2.548-0.434-3.37-1.301c-0.824-0.867-1.235-2.071-1.235-3.612
		c0-1.553,0.382-2.786,1.147-3.7c0.764-0.914,1.791-1.371,3.08-1.371c1.207,0,2.162,0.396,2.865,1.191
		c0.703,0.793,1.055,1.841,1.055,3.142v0.923h-6.636c0.029,1.131,0.315,1.989,0.856,2.575c0.543,0.586,1.306,0.879,2.29,0.879
		c1.037,0,2.063-0.217,3.076-0.65v1.301c-0.516,0.223-1.003,0.382-1.464,0.479C609.213,68.002,608.657,68.051,608.007,68.051z
		 M607.611,59.288c-0.773,0-1.391,0.252-1.85,0.756c-0.461,0.504-0.731,1.201-0.813,2.092h5.036c0-0.92-0.205-1.624-0.615-2.114
		C608.959,59.533,608.373,59.288,607.611,59.288z"/>
	<path fill="#FFFFFF" d="M615.495,67.875h-1.459V54.199h1.459V67.875z"/>
	<path fill="#FFFFFF" d="M631.579,63.05c0,1.57-0.396,2.797-1.187,3.679s-1.884,1.322-3.278,1.322c-0.861,0-1.626-0.202-2.294-0.606
		s-1.184-0.984-1.547-1.74s-0.545-1.641-0.545-2.654c0-1.57,0.393-2.794,1.178-3.669c0.785-0.877,1.875-1.314,3.27-1.314
		c1.348,0,2.418,0.448,3.213,1.345C631.182,60.308,631.579,61.521,631.579,63.05z M624.24,63.05c0,1.23,0.246,2.168,0.738,2.813
		s1.216,0.967,2.171,0.967s1.681-0.321,2.175-0.962c0.496-0.643,0.743-1.581,0.743-2.817c0-1.225-0.247-2.155-0.743-2.79
		c-0.494-0.637-1.226-0.954-2.192-0.954c-0.955,0-1.676,0.313-2.162,0.94S624.24,61.808,624.24,63.05z"/>
	<path fill="#FFFFFF" d="M638.531,58.066c0.428,0,0.812,0.035,1.151,0.105l-0.202,1.354c-0.398-0.088-0.75-0.132-1.055-0.132
		c-0.779,0-1.445,0.316-2,0.949c-0.553,0.633-0.83,1.421-0.83,2.364v5.168h-1.459v-9.633h1.204l0.167,1.784h0.07
		c0.357-0.627,0.788-1.11,1.292-1.45S637.928,58.066,638.531,58.066z"/>
	<path fill="#FFFFFF" d="M302.429,90.847c0.258,0,0.507-0.019,0.747-0.058c0.24-0.037,0.431-0.077,0.571-0.118v1.116
		c-0.158,0.076-0.392,0.139-0.698,0.189c-0.309,0.049-0.585,0.074-0.831,0.074c-1.863,0-2.795-0.981-2.795-2.944v-5.73h-1.38v-0.703
		l1.38-0.606l0.615-2.057h0.844v2.232h2.795v1.134h-2.795v5.669c0,0.58,0.138,1.025,0.413,1.336S301.948,90.847,302.429,90.847z"/>
	<path fill="#FFFFFF" d="M309.741,92.051c-1.424,0-2.548-0.434-3.37-1.301c-0.824-0.867-1.235-2.071-1.235-3.612
		c0-1.553,0.382-2.786,1.147-3.7c0.764-0.914,1.791-1.371,3.08-1.371c1.207,0,2.162,0.397,2.865,1.191s1.055,1.841,1.055,3.142
		v0.923h-6.636c0.029,1.131,0.315,1.989,0.856,2.575c0.543,0.586,1.306,0.879,2.29,0.879c1.037,0,2.063-0.217,3.076-0.65v1.301
		c-0.516,0.223-1.003,0.382-1.464,0.479C310.947,92.002,310.392,92.051,309.741,92.051z M309.346,83.288
		c-0.773,0-1.391,0.252-1.85,0.756c-0.461,0.504-0.731,1.201-0.813,2.092h5.036c0-0.92-0.205-1.624-0.615-2.114
		C310.693,83.533,310.107,83.288,309.346,83.288z"/>
	<path fill="#FFFFFF" d="M318.091,86.944l-3.349-4.702h1.661l2.54,3.691l2.531-3.691h1.644l-3.349,4.702l3.524,4.931h-1.652
		l-2.698-3.902l-2.725,3.902h-1.652L318.091,86.944z"/>
	<path fill="#FFFFFF" d="M328.313,90.847c0.258,0,0.507-0.019,0.747-0.058c0.24-0.037,0.431-0.077,0.571-0.118v1.116
		c-0.158,0.076-0.391,0.139-0.699,0.189c-0.307,0.049-0.584,0.074-0.83,0.074c-1.863,0-2.795-0.981-2.795-2.944v-5.73h-1.38v-0.703
		l1.38-0.606l0.615-2.057h0.844v2.232h2.795v1.134h-2.795v5.669c0,0.58,0.138,1.025,0.413,1.336S327.832,90.847,328.313,90.847z"/>
	<path fill="#FFFFFF" d="M335.01,83.429l-0.105-0.193c0.129-0.527,0.337-1.184,0.624-1.969s0.595-1.532,0.923-2.241h1.081
		c-0.387,1.488-0.688,2.956-0.905,4.403H335.01z"/>
	<path fill="#FFFFFF" d="M349.266,91.875h-1.494v-6.047h-6.768v6.047h-1.494v-12.85h1.494v5.467h6.768v-5.467h1.494V91.875z"/>
	<path fill="#FFFFFF" d="M359.953,91.875h-7.163v-12.85h7.163v1.327h-5.669v4.14h5.326v1.318h-5.326v4.729h5.669V91.875z"/>
	<path fill="#FFFFFF" d="M362.801,91.875v-12.85h1.494v11.496h5.669v1.354H362.801z"/>
	<path fill="#FFFFFF" d="M380.291,82.77c0,1.301-0.443,2.302-1.332,3.002c-0.887,0.7-2.157,1.05-3.81,1.05h-1.512v5.054h-1.494
		v-12.85h3.331C378.686,79.025,380.291,80.273,380.291,82.77z M373.638,85.538h1.345c1.324,0,2.282-0.214,2.874-0.642
		s0.888-1.113,0.888-2.057c0-0.85-0.278-1.482-0.835-1.898s-1.424-0.624-2.602-0.624h-1.67V85.538z"/>
	<path fill="#FFFFFF" d="M383.93,79.025l0.132,0.193c-0.152,0.586-0.372,1.268-0.659,2.043c-0.287,0.777-0.586,1.499-0.896,2.167
		h-1.072c0.41-1.67,0.709-3.138,0.896-4.403H383.93z"/>
	<path fill="#FFFFFF" d="M393.606,90.847c0.258,0,0.507-0.019,0.747-0.058c0.24-0.037,0.431-0.077,0.571-0.118v1.116
		c-0.158,0.076-0.392,0.139-0.698,0.189c-0.309,0.049-0.585,0.074-0.831,0.074c-1.863,0-2.795-0.981-2.795-2.944v-5.73h-1.38v-0.703
		l1.38-0.606l0.615-2.057h0.844v2.232h2.795v1.134h-2.795v5.669c0,0.58,0.138,1.025,0.413,1.336S393.126,90.847,393.606,90.847z"/>
	<path fill="#FFFFFF" d="M405.164,87.05c0,1.57-0.396,2.797-1.187,3.679s-1.884,1.322-3.278,1.322c-0.861,0-1.626-0.202-2.294-0.606
		s-1.184-0.984-1.547-1.74s-0.545-1.641-0.545-2.654c0-1.57,0.393-2.793,1.178-3.669s1.875-1.314,3.27-1.314
		c1.348,0,2.419,0.448,3.212,1.345C404.768,84.308,405.164,85.521,405.164,87.05z M397.825,87.05c0,1.23,0.246,2.168,0.738,2.813
		s1.216,0.967,2.171,0.967s1.68-0.321,2.176-0.962c0.494-0.643,0.742-1.581,0.742-2.817c0-1.225-0.248-2.154-0.742-2.79
		c-0.496-0.636-1.227-0.954-2.193-0.954c-0.955,0-1.676,0.313-2.162,0.94S397.825,85.808,397.825,87.05z"/>
	<path fill="#FFFFFF" d="M418.611,89.247c0,0.896-0.334,1.588-1.002,2.074s-1.605,0.729-2.813,0.729
		c-1.277,0-2.273-0.202-2.988-0.606v-1.354c0.463,0.234,0.959,0.419,1.49,0.554c0.529,0.135,1.041,0.202,1.533,0.202
		c0.762,0,1.348-0.121,1.758-0.364s0.615-0.614,0.615-1.112c0-0.375-0.162-0.695-0.488-0.962c-0.324-0.267-0.959-0.582-1.902-0.945
		c-0.896-0.334-1.533-0.625-1.912-0.875c-0.377-0.248-0.658-0.531-0.844-0.848c-0.184-0.316-0.276-0.694-0.276-1.134
		c0-0.785,0.319-1.404,0.958-1.858s1.515-0.682,2.628-0.682c1.037,0,2.051,0.211,3.041,0.633l-0.519,1.187
		c-0.967-0.398-1.843-0.598-2.628-0.598c-0.691,0-1.213,0.108-1.564,0.325s-0.527,0.516-0.527,0.896
		c0,0.258,0.065,0.478,0.198,0.659c0.131,0.182,0.344,0.354,0.637,0.519s0.855,0.401,1.688,0.712
		c1.143,0.416,1.914,0.835,2.316,1.257C418.41,88.078,418.611,88.608,418.611,89.247z"/>
	<path fill="#FFFFFF" d="M425.467,92.051c-0.627,0-1.199-0.116-1.719-0.348c-0.518-0.23-0.953-0.587-1.305-1.067h-0.105
		c0.07,0.563,0.105,1.096,0.105,1.6v3.964h-1.459V82.242h1.187l0.202,1.318h0.07c0.375-0.527,0.812-0.908,1.31-1.143
		s1.069-0.352,1.714-0.352c1.277,0,2.264,0.437,2.957,1.31c0.695,0.873,1.042,2.098,1.042,3.674c0,1.582-0.353,2.812-1.06,3.687
		C427.701,91.613,426.721,92.051,425.467,92.051z M425.256,83.306c-0.984,0-1.696,0.272-2.136,0.817s-0.665,1.412-0.677,2.602v0.325
		c0,1.354,0.226,2.322,0.677,2.905s1.175,0.874,2.171,0.874c0.832,0,1.484-0.337,1.955-1.011c0.473-0.674,0.708-1.603,0.708-2.786
		c0-1.201-0.235-2.122-0.708-2.765C426.775,83.627,426.111,83.306,425.256,83.306z"/>
	<path fill="#FFFFFF" d="M436.084,92.051c-1.424,0-2.547-0.434-3.371-1.301c-0.822-0.867-1.234-2.071-1.234-3.612
		c0-1.553,0.383-2.786,1.146-3.7c0.766-0.914,1.792-1.371,3.081-1.371c1.207,0,2.162,0.397,2.865,1.191s1.055,1.841,1.055,3.142
		v0.923h-6.636c0.029,1.131,0.314,1.989,0.857,2.575c0.541,0.586,1.305,0.879,2.289,0.879c1.037,0,2.063-0.217,3.076-0.65v1.301
		c-0.516,0.223-1.004,0.382-1.463,0.479C437.289,92.002,436.734,92.051,436.084,92.051z M435.688,83.288
		c-0.773,0-1.39,0.252-1.851,0.756c-0.459,0.504-0.73,1.201-0.813,2.092h5.036c0-0.92-0.205-1.624-0.615-2.114
		C437.036,83.533,436.45,83.288,435.688,83.288z"/>
	<path fill="#FFFFFF" d="M448.037,91.875l-0.29-1.371h-0.07c-0.48,0.604-0.96,1.013-1.437,1.227c-0.479,0.213-1.074,0.32-1.789,0.32
		c-0.955,0-1.703-0.246-2.246-0.738c-0.541-0.492-0.813-1.192-0.813-2.101c0-1.945,1.556-2.965,4.667-3.059l1.635-0.053v-0.598
		c0-0.756-0.163-1.313-0.487-1.675c-0.326-0.359-0.846-0.54-1.561-0.54c-0.803,0-1.711,0.246-2.725,0.738l-0.448-1.116
		c0.475-0.258,0.995-0.46,1.56-0.606c0.566-0.146,1.133-0.22,1.701-0.22c1.148,0,2,0.255,2.553,0.765
		c0.555,0.51,0.831,1.327,0.831,2.452v6.574H448.037z M444.741,90.847c0.908,0,1.622-0.249,2.14-0.747
		c0.52-0.498,0.778-1.195,0.778-2.092v-0.87l-1.459,0.062c-1.16,0.041-1.997,0.222-2.509,0.541c-0.514,0.319-0.77,0.815-0.77,1.489
		c0,0.527,0.16,0.929,0.479,1.204C443.721,90.709,444.167,90.847,444.741,90.847z"/>
	<path fill="#FFFFFF" d="M453.565,86.944c0.252-0.357,0.636-0.826,1.151-1.406l3.111-3.296h1.731l-3.902,4.104l4.175,5.528h-1.767
		l-3.401-4.553l-1.099,0.949v3.604h-1.441V78.199h1.441v7.251c0,0.322-0.023,0.82-0.07,1.494H453.565z"/>
	<path fill="#FFFFFF" d="M469.359,90.847c0.258,0,0.507-0.019,0.747-0.058c0.24-0.037,0.431-0.077,0.571-0.118v1.116
		c-0.158,0.076-0.391,0.139-0.699,0.189c-0.307,0.049-0.584,0.074-0.83,0.074c-1.863,0-2.795-0.981-2.795-2.944v-5.73h-1.38v-0.703
		l1.38-0.606l0.615-2.057h0.844v2.232h2.795v1.134h-2.795v5.669c0,0.58,0.138,1.025,0.413,1.336S468.879,90.847,469.359,90.847z"/>
	<path fill="#FFFFFF" d="M480.917,87.05c0,1.57-0.396,2.797-1.187,3.679s-1.884,1.322-3.278,1.322c-0.861,0-1.626-0.202-2.294-0.606
		s-1.184-0.984-1.547-1.74s-0.545-1.641-0.545-2.654c0-1.57,0.393-2.793,1.178-3.669s1.875-1.314,3.27-1.314
		c1.348,0,2.418,0.448,3.213,1.345C480.52,84.308,480.917,85.521,480.917,87.05z M473.578,87.05c0,1.23,0.246,2.168,0.738,2.813
		s1.216,0.967,2.171,0.967s1.681-0.321,2.175-0.962c0.496-0.643,0.743-1.581,0.743-2.817c0-1.225-0.247-2.154-0.743-2.79
		c-0.494-0.636-1.226-0.954-2.192-0.954c-0.955,0-1.676,0.313-2.162,0.94S473.578,85.808,473.578,87.05z"/>
	<path fill="#FFFFFF" d="M494.074,91.875l-0.29-1.371h-0.07c-0.48,0.604-0.96,1.013-1.437,1.227c-0.479,0.213-1.074,0.32-1.789,0.32
		c-0.955,0-1.703-0.246-2.246-0.738c-0.541-0.492-0.813-1.192-0.813-2.101c0-1.945,1.556-2.965,4.667-3.059l1.635-0.053v-0.598
		c0-0.756-0.163-1.313-0.487-1.675c-0.326-0.359-0.846-0.54-1.561-0.54c-0.803,0-1.711,0.246-2.725,0.738l-0.448-1.116
		c0.475-0.258,0.995-0.46,1.56-0.606c0.566-0.146,1.133-0.22,1.701-0.22c1.148,0,2,0.255,2.553,0.765
		c0.555,0.51,0.831,1.327,0.831,2.452v6.574H494.074z M490.778,90.847c0.908,0,1.622-0.249,2.14-0.747
		c0.52-0.498,0.778-1.195,0.778-2.092v-0.87l-1.459,0.062c-1.16,0.041-1.997,0.222-2.509,0.541c-0.514,0.319-0.77,0.815-0.77,1.489
		c0,0.527,0.16,0.929,0.479,1.204C489.758,90.709,490.204,90.847,490.778,90.847z"/>
	<path fill="#FFFFFF" d="M505.948,90.847c0.258,0,0.507-0.019,0.747-0.058c0.24-0.037,0.431-0.077,0.571-0.118v1.116
		c-0.158,0.076-0.392,0.139-0.698,0.189c-0.309,0.049-0.585,0.074-0.831,0.074c-1.863,0-2.795-0.981-2.795-2.944v-5.73h-1.38v-0.703
		l1.38-0.606l0.615-2.057h0.844v2.232h2.795v1.134h-2.795v5.669c0,0.58,0.138,1.025,0.413,1.336S505.468,90.847,505.948,90.847z"/>
	<path fill="#FFFFFF" d="M513.261,92.051c-1.424,0-2.548-0.434-3.37-1.301c-0.824-0.867-1.235-2.071-1.235-3.612
		c0-1.553,0.382-2.786,1.147-3.7c0.764-0.914,1.791-1.371,3.08-1.371c1.207,0,2.162,0.397,2.865,1.191s1.055,1.841,1.055,3.142
		v0.923h-6.636c0.029,1.131,0.315,1.989,0.856,2.575c0.543,0.586,1.306,0.879,2.29,0.879c1.037,0,2.063-0.217,3.076-0.65v1.301
		c-0.516,0.223-1.003,0.382-1.464,0.479C514.467,92.002,513.911,92.051,513.261,92.051z M512.865,83.288
		c-0.773,0-1.391,0.252-1.85,0.756c-0.461,0.504-0.731,1.201-0.813,2.092h5.036c0-0.92-0.205-1.624-0.615-2.114
		C514.213,83.533,513.627,83.288,512.865,83.288z"/>
	<path fill="#FFFFFF" d="M523.14,92.051c-1.395,0-2.474-0.429-3.239-1.287c-0.764-0.858-1.146-2.073-1.146-3.644
		c0-1.611,0.389-2.856,1.164-3.735c0.777-0.879,1.883-1.318,3.318-1.318c0.463,0,0.926,0.05,1.389,0.149s0.826,0.217,1.09,0.352
		l-0.448,1.239c-0.322-0.129-0.674-0.235-1.055-0.32s-0.718-0.128-1.011-0.128c-1.957,0-2.936,1.248-2.936,3.744
		c0,1.184,0.238,2.092,0.717,2.725c0.477,0.633,1.185,0.949,2.122,0.949c0.803,0,1.626-0.173,2.47-0.519v1.292
		C524.93,91.884,524.118,92.051,523.14,92.051z"/>
	<path fill="#FFFFFF" d="M534.451,91.875v-6.231c0-0.785-0.179-1.371-0.536-1.758s-0.917-0.58-1.679-0.58
		c-1.014,0-1.754,0.275-2.219,0.826c-0.467,0.551-0.699,1.453-0.699,2.707v5.036h-1.459V78.199h1.459v4.14
		c0,0.498-0.023,0.911-0.07,1.239h0.088c0.287-0.463,0.695-0.827,1.227-1.094c0.529-0.267,1.135-0.4,1.814-0.4
		c1.178,0,2.061,0.28,2.65,0.84c0.588,0.56,0.883,1.448,0.883,2.667v6.284H534.451z"/>
	<path fill="#FFFFFF" d="M545.499,91.875v-6.231c0-0.785-0.179-1.371-0.536-1.758s-0.917-0.58-1.679-0.58
		c-1.008,0-1.746,0.272-2.215,0.817s-0.703,1.444-0.703,2.698v5.054h-1.459v-9.633h1.187l0.237,1.318h0.07
		c0.299-0.475,0.718-0.842,1.257-1.104c0.539-0.26,1.14-0.391,1.802-0.391c1.16,0,2.033,0.28,2.619,0.84s0.879,1.454,0.879,2.685
		v6.284H545.499z"/>
	<path fill="#FFFFFF" d="M549.832,79.632c0-0.334,0.082-0.578,0.246-0.733s0.369-0.233,0.615-0.233c0.234,0,0.437,0.079,0.606,0.237
		s0.255,0.401,0.255,0.729s-0.085,0.573-0.255,0.733c-0.17,0.162-0.372,0.242-0.606,0.242c-0.246,0-0.451-0.08-0.615-0.242
		C549.914,80.205,549.832,79.96,549.832,79.632z M551.414,91.875h-1.459v-9.633h1.459V91.875z"/>
	<path fill="#FFFFFF" d="M558.357,92.051c-1.395,0-2.475-0.429-3.238-1.287c-0.766-0.858-1.147-2.073-1.147-3.644
		c0-1.611,0.388-2.856,1.165-3.735c0.775-0.879,1.882-1.318,3.317-1.318c0.463,0,0.926,0.05,1.389,0.149s0.826,0.217,1.09,0.352
		l-0.448,1.239c-0.322-0.129-0.674-0.235-1.055-0.32s-0.718-0.128-1.011-0.128c-1.957,0-2.936,1.248-2.936,3.744
		c0,1.184,0.239,2.092,0.716,2.725c0.479,0.633,1.186,0.949,2.123,0.949c0.803,0,1.626-0.173,2.47-0.519v1.292
		C560.147,91.884,559.336,92.051,558.357,92.051z"/>
	<path fill="#FFFFFF" d="M569.001,91.875l-0.29-1.371h-0.07c-0.48,0.604-0.959,1.013-1.438,1.227
		c-0.477,0.213-1.073,0.32-1.788,0.32c-0.955,0-1.704-0.246-2.245-0.738c-0.543-0.492-0.813-1.192-0.813-2.101
		c0-1.945,1.556-2.965,4.667-3.059l1.635-0.053v-0.598c0-0.756-0.162-1.313-0.488-1.675c-0.324-0.359-0.845-0.54-1.56-0.54
		c-0.803,0-1.711,0.246-2.725,0.738l-0.448-1.116c0.475-0.258,0.994-0.46,1.561-0.606c0.564-0.146,1.132-0.22,1.7-0.22
		c1.148,0,1.999,0.255,2.554,0.765c0.553,0.51,0.83,1.327,0.83,2.452v6.574H569.001z M565.705,90.847
		c0.908,0,1.621-0.249,2.141-0.747c0.518-0.498,0.777-1.195,0.777-2.092v-0.87l-1.459,0.062c-1.16,0.041-1.996,0.222-2.51,0.541
		c-0.512,0.319-0.769,0.815-0.769,1.489c0,0.527,0.159,0.929,0.479,1.204C564.684,90.709,565.131,90.847,565.705,90.847z"/>
	<path fill="#FFFFFF" d="M574.547,91.875h-1.459V78.199h1.459V91.875z"/>
	<path fill="#FFFFFF" d="M586.386,92.051c-1.424,0-2.548-0.434-3.37-1.301c-0.824-0.867-1.235-2.071-1.235-3.612
		c0-1.553,0.382-2.786,1.147-3.7c0.764-0.914,1.791-1.371,3.08-1.371c1.207,0,2.162,0.397,2.865,1.191s1.055,1.841,1.055,3.142
		v0.923h-6.636c0.029,1.131,0.315,1.989,0.856,2.575c0.543,0.586,1.306,0.879,2.29,0.879c1.037,0,2.063-0.217,3.076-0.65v1.301
		c-0.516,0.223-1.003,0.382-1.464,0.479C587.592,92.002,587.036,92.051,586.386,92.051z M585.99,83.288
		c-0.773,0-1.391,0.252-1.85,0.756c-0.461,0.504-0.731,1.201-0.813,2.092h5.036c0-0.92-0.205-1.624-0.615-2.114
		C587.338,83.533,586.752,83.288,585.99,83.288z"/>
	<path fill="#FFFFFF" d="M594.735,86.944l-3.349-4.702h1.661l2.54,3.691l2.531-3.691h1.644l-3.349,4.702l3.524,4.931h-1.652
		l-2.698-3.902l-2.725,3.902h-1.652L594.735,86.944z"/>
	<path fill="#FFFFFF" d="M606.328,92.051c-0.627,0-1.199-0.116-1.719-0.348c-0.518-0.23-0.953-0.587-1.305-1.067h-0.105
		c0.07,0.563,0.105,1.096,0.105,1.6v3.964h-1.459V82.242h1.187l0.202,1.318h0.07c0.375-0.527,0.812-0.908,1.31-1.143
		s1.069-0.352,1.714-0.352c1.277,0,2.264,0.437,2.957,1.31c0.695,0.873,1.042,2.098,1.042,3.674c0,1.582-0.353,2.812-1.06,3.687
		C608.563,91.613,607.582,92.051,606.328,92.051z M606.117,83.306c-0.984,0-1.696,0.272-2.136,0.817s-0.665,1.412-0.677,2.602v0.325
		c0,1.354,0.226,2.322,0.677,2.905s1.175,0.874,2.171,0.874c0.832,0,1.484-0.337,1.955-1.011c0.473-0.674,0.708-1.603,0.708-2.786
		c0-1.201-0.235-2.122-0.708-2.765C607.637,83.627,606.973,83.306,606.117,83.306z"/>
	<path fill="#FFFFFF" d="M616.945,92.051c-1.424,0-2.547-0.434-3.371-1.301c-0.822-0.867-1.234-2.071-1.234-3.612
		c0-1.553,0.383-2.786,1.146-3.7c0.766-0.914,1.792-1.371,3.081-1.371c1.207,0,2.162,0.397,2.865,1.191s1.055,1.841,1.055,3.142
		v0.923h-6.636c0.029,1.131,0.314,1.989,0.857,2.575c0.541,0.586,1.305,0.879,2.289,0.879c1.037,0,2.063-0.217,3.076-0.65v1.301
		c-0.516,0.223-1.004,0.382-1.463,0.479C618.15,92.002,617.596,92.051,616.945,92.051z M616.55,83.288
		c-0.773,0-1.39,0.252-1.851,0.756c-0.459,0.504-0.73,1.201-0.813,2.092h5.036c0-0.92-0.205-1.624-0.615-2.114
		C617.897,83.533,617.312,83.288,616.55,83.288z"/>
	<path fill="#FFFFFF" d="M627.369,82.066c0.428,0,0.812,0.035,1.151,0.105l-0.202,1.354c-0.398-0.088-0.75-0.132-1.055-0.132
		c-0.779,0-1.445,0.316-2,0.949c-0.553,0.633-0.83,1.421-0.83,2.364v5.168h-1.459v-9.633h1.204l0.167,1.784h0.07
		c0.357-0.627,0.788-1.11,1.292-1.45S626.766,82.066,627.369,82.066z"/>
	<path fill="#FFFFFF" d="M633.434,90.847c0.258,0,0.507-0.019,0.747-0.058c0.24-0.037,0.431-0.077,0.571-0.118v1.116
		c-0.158,0.076-0.391,0.139-0.699,0.189c-0.307,0.049-0.584,0.074-0.83,0.074c-1.863,0-2.795-0.981-2.795-2.944v-5.73h-1.38v-0.703
		l1.38-0.606l0.615-2.057h0.844v2.232h2.795v1.134h-2.795v5.669c0,0.58,0.138,1.025,0.413,1.336S632.953,90.847,633.434,90.847z"/>
	<path fill="#FFFFFF" d="M636.466,90.943c0-0.797,0.352-1.195,1.055-1.195c0.34,0,0.603,0.103,0.786,0.308
		c0.186,0.205,0.277,0.501,0.277,0.888c0,0.375-0.094,0.667-0.281,0.875c-0.188,0.207-0.448,0.312-0.782,0.312
		c-0.305,0-0.557-0.093-0.756-0.276C636.565,91.668,636.466,91.365,636.466,90.943z M637.995,88.333h-0.923l-0.448-9.308h1.819
		L637.995,88.333z"/>
</g>
</svg>
