<?xml version="1.0" encoding="utf-8"?>
<!-- Generator: Adobe Illustrator 16.0.0, SVG Export Plug-In . SVG Version: 6.00 Build 0)  -->
<!DOCTYPE svg PUBLIC "-//W3C//DTD SVG 1.1//EN" "http://www.w3.org/Graphics/SVG/1.1/DTD/svg11.dtd">
<svg version="1.1" id="Layer_1" xmlns="http://www.w3.org/2000/svg" xmlns:xlink="http://www.w3.org/1999/xlink" x="0px" y="0px"
	 width="427.966px" height="255.085px" viewBox="0 0 427.966 255.085" enable-background="new 0 0 427.966 255.085"
	 xml:space="preserve">
<path fill="none" stroke="#FFFFFF" stroke-miterlimit="10" d="M151.788,55.116H60.821c-4.629,0-8.381,3.756-8.381,8.389v13.378
	C8.045,64.276,8.045,120.452,8.045,120.452c-0.592,54.635,44.395,41.677,44.395,41.677v18.497c0,4.632,3.752,8.389,8.381,8.389
	h90.967c4.629,0,8.381-3.757,8.381-8.389V63.505C160.169,58.872,156.417,55.116,151.788,55.116z M52.439,144.127
	c-29.004,4.203-29.596-25.917-29.596-25.917c6.511-35.022,29.596-21.618,29.596-21.618V144.127z"/>
<path fill="none" stroke="#FFFFFF" stroke-miterlimit="10" d="M420.146,172.153c0,0-21.522-8.182-50.69-10.339l7.968-15.957
	c30.331,3.764,36.655-30.11,36.655-30.11c7.968-29.609-31.343-33.624-31.343-33.624h-92.433
	c-8.459,33.108,8.389,70.987,12.647,79.781c-44.223,4.145-46.951,9.045-46.951,9.045c0.624,3.808-5.007,15.056,81.809,18.065
	C337.809,189.015,435.328,188.513,420.146,172.153z M390.258,101.123c13.019-1.769,11.993,11.011,11.993,11.011
	c-0.681,9.55-6.549,22.204-16.854,18.515C385.397,130.649,393.889,116.749,390.258,101.123z"/>
<path fill="#2292C4" d="M227.626,10.058c1.343,8.187,4.228,16.25,7.746,23.729c1.617,5.982-1.207,11.361-7.746,11.864
	c-5.386-0.623-9.422-7.238-8.748-12.152c0.362-2.645,2.648-5.056,3.877-7.379C225.345,21.224,227.626,15.684,227.626,10.058z"/>
<path fill="#2292C4" d="M210.613,46.53c1.343,8.187,4.228,16.25,7.746,23.729c1.617,5.982-1.207,11.361-7.746,11.863
	c-5.386-0.622-9.422-7.237-8.748-12.152c0.362-2.645,2.648-5.056,3.877-7.379C208.332,57.696,210.613,52.156,210.613,46.53z"/>
<path fill="#2292C4" d="M244.134,46.53c1.343,8.187,4.228,16.25,7.745,23.729c1.617,5.982-1.207,11.361-7.745,11.863
	c-5.387-0.622-9.422-7.237-8.749-12.152c0.362-2.645,2.649-5.056,3.877-7.379C241.853,57.696,244.134,52.156,244.134,46.53z"/>
<line fill="none" stroke="#F15A29" stroke-miterlimit="10" x1="210.298" y1="98.305" x2="148.305" y2="122.065"/>
<line fill="none" stroke="#F15A29" stroke-miterlimit="10" x1="240.45" y1="98.305" x2="302.443" y2="122.065"/>
<line fill="none" stroke="#A97C50" stroke-width="3" stroke-miterlimit="10" x1="52.439" y1="180.626" x2="160.169" y2="180.626"/>
<line fill="none" stroke="#A97C50" stroke-width="3" stroke-miterlimit="10" x1="298.187" y1="150.894" x2="375.03" y2="150.894"/>
<path fill="#754C29" d="M196.14,224.395c0,0-4.759-4.07-9.958,0.4c0,0-2.401,9.092,10.637,9.989c0,0,9.023,0.584,8.119-6.482
	C204.938,228.302,202.956,221.753,196.14,224.395z"/>
<path fill="none" stroke="#3C2415" stroke-width="1.1459" stroke-miterlimit="10" d="M190.741,227.17c0,0,5.205,4.432,9.527,2.79"/>
<g>
	<path fill="#754C29" d="M212.171,222.649c0,0,3.849,4.939,9.837,1.6c0,0,4.171-8.428-8.425-11.916c0,0-8.724-2.377-9.25,4.729
		C204.333,217.062,204.964,223.874,212.171,222.649z"/>
	<path fill="none" stroke="#3C2415" stroke-width="1.1459" stroke-miterlimit="10" d="M218.262,221.749c0,0-4.214-5.384-8.777-4.64"
		/>
</g>
<g>
	<path fill="#754C29" d="M224.117,232.823c0,0-3.436-5.235-9.675-2.39c0,0-4.839,8.063,7.433,12.557c0,0,8.503,3.075,9.603-3.964
		C231.478,239.026,231.399,232.186,224.117,232.823z"/>
	<path fill="none" stroke="#3C2415" stroke-width="1.1459" stroke-miterlimit="10" d="M217.974,233.228c0,0,3.764,5.707,8.373,5.334
		"/>
</g>
<g>
	<path fill="#754C29" d="M246.132,218.86c0,0,5.403-3.166,2.879-9.541c0,0-7.807-5.242-12.919,6.785c0,0-3.504,8.335,3.47,9.791
		C239.562,225.896,246.398,226.165,246.132,218.86z"/>
	<path fill="none" stroke="#3C2415" stroke-width="1.1459" stroke-miterlimit="10" d="M246.04,212.704c0,0-5.891,3.469-5.753,8.091"
		/>
</g>
<g>
	<path fill="#754C29" d="M264.415,222.915c0,0-6.15,1.173-5.908,8.025c0,0,5.6,7.555,14.445-2.065c0,0,6.094-6.681,0.01-10.389
		C272.962,218.486,266.611,215.942,264.415,222.915z"/>
	<path fill="none" stroke="#3C2415" stroke-width="1.1459" stroke-miterlimit="10" d="M262.44,228.746c0,0,6.711-1.296,8.131-5.696"
		/>
</g>
<line fill="none" stroke="#8B5E3C" stroke-width="2" stroke-miterlimit="10" x1="201.833" y1="202.062" x2="143.22" y2="184.746"/>
<line fill="none" stroke="#8B5E3C" stroke-width="2" stroke-miterlimit="10" x1="251.358" y1="204.394" x2="321.187" y2="170.085"/>
</svg>
