<?xml version="1.0" encoding="utf-8"?>
<!-- Generator: Adobe Illustrator 16.0.0, SVG Export Plug-In . SVG Version: 6.00 Build 0)  -->
<!DOCTYPE svg PUBLIC "-//W3C//DTD SVG 1.1//EN" "http://www.w3.org/Graphics/SVG/1.1/DTD/svg11.dtd">
<svg version="1.1" xmlns="http://www.w3.org/2000/svg" xmlns:xlink="http://www.w3.org/1999/xlink" x="0px" y="0px" width="209px"
	 height="188px" viewBox="0 0 209 188" enable-background="new 0 0 209 188" xml:space="preserve">
<g id="Layer_2_1_" display="none">
	<rect x="-7.5" y="-2.5" display="inline" stroke="#FFFFFF" stroke-miterlimit="10" width="225" height="203.5"/>
</g>
<g id="Layer_1" display="none">
	<path display="inline" fill="none" stroke="#D1D3D4" stroke-width="0.25" stroke-miterlimit="10" d="M109.139,131.441
		c0,0.277-0.209,0.502-0.465,0.502H83.307l0.034-0.502l0,0l-0.034-0.504h25.367C108.93,130.938,109.139,131.164,109.139,131.441
		L109.139,131.441z"/>
	<g id="Layer_2">
		<rect x="-25.583" y="-21" display="inline" fill="#141516" width="311.167" height="300"/>
	</g>
	<path display="inline" fill="none" stroke="#D1D3D4" stroke-width="0.1976" stroke-miterlimit="10" d="M114.635,82.335
		c0,0-6,5.212,12,5.836c0,0,20,0.313,14-5.836"/>
	<path display="inline" fill="none" stroke="#D1D3D4" stroke-width="0.1976" stroke-miterlimit="10" d="M48.5,81.657
		c0,0-6,5.212,12,5.836c0,0,20,0.313,14-5.836"/>
	<path display="inline" fill="none" stroke="#D1D3D4" stroke-width="0.5" stroke-miterlimit="10" d="M48.5,85.33
		c0,0-6,8.345,12,9.345c0,0,20,0.5,14-9.345"/>
	<path display="inline" fill="none" stroke="#D1D3D4" stroke-width="0.5" stroke-miterlimit="10" d="M114.635,85.83
		c0,0-6,8.345,12,9.345c0,0,20,0.5,14-9.345"/>
	<path display="inline" fill="none" stroke="#D1D3D4" stroke-width="0.25" stroke-miterlimit="10" d="M69.339,124.333"/>
	<path display="inline" fill="none" stroke="#D1D3D4" stroke-width="0.25" stroke-miterlimit="10" d="M69.368,126.667"/>
	
		<line display="inline" fill="none" stroke="#D1D3D4" stroke-width="0.25" stroke-miterlimit="10" x1="127.488" y1="126.667" x2="79" y2="126.667"/>
	<path display="inline" fill="none" stroke="#D1D3D4" stroke-width="0.25" stroke-miterlimit="10" d="M59.477,124.333"/>
	
		<line display="inline" fill="none" stroke="#D1D3D4" stroke-width="0.25" stroke-miterlimit="10" x1="27.659" y1="124.333" x2="43.125" y2="124.333"/>
	<path display="inline" fill="none" stroke="#D1D3D4" stroke-width="0.25" stroke-miterlimit="10" d="M59.905,132.667"/>
	
		<ellipse display="inline" fill="none" stroke="#D1D3D4" stroke-width="0.25" stroke-miterlimit="10" cx="94.611" cy="70.656" rx="11.153" ry="11"/>
	
		<ellipse display="inline" fill="none" stroke="#D1D3D4" stroke-width="0.227" stroke-miterlimit="10" cx="94.542" cy="70.656" rx="10.116" ry="10"/>
	
		<line display="inline" fill="none" stroke="#D1D3D4" stroke-width="0.227" stroke-miterlimit="10" x1="94.542" y1="60.656" x2="94.611" y2="63.156"/>
	
		<line display="inline" fill="none" stroke="#D1D3D4" stroke-width="0.227" stroke-miterlimit="10" x1="93.042" y1="78.406" x2="93.042" y2="80.656"/>
	
		<line display="inline" fill="none" stroke="#D1D3D4" stroke-width="0.227" stroke-miterlimit="10" x1="103.159" y1="70.656" x2="101.085" y2="70.656"/>
	<g display="inline">
		
			<ellipse transform="matrix(-0.0879 -0.9961 0.9961 -0.0879 16.9855 270.0329)" fill="none" stroke="#D1D3D4" stroke-width="0.75" stroke-miterlimit="10" cx="132.118" cy="127.24" rx="4.499" ry="5"/>
		<path fill="none" stroke="#D1D3D4" stroke-width="0.75" stroke-miterlimit="10" d="M124.076,93.015c0,0,4.081-4.932,9.96-0.88
			l2.907,32.926c0,0-5.098-6.578-9.959,0.879L124.076,93.015z"/>
	</g>
	
		<line display="inline" fill="none" stroke="#D1D3D4" stroke-width="0.227" stroke-miterlimit="10" x1="83.458" y1="70.656" x2="87.085" y2="70.656"/>
	
		<line display="inline" fill="none" stroke="#D1D3D4" stroke-width="0.227" stroke-miterlimit="10" x1="101.218" y1="63.156" x2="99.835" y2="64.906"/>
	
		<line display="inline" fill="none" stroke="#D1D3D4" stroke-width="0.1697" stroke-miterlimit="10" x1="99.166" y1="76.25" x2="100.946" y2="78.313"/>
	
		<line display="inline" fill="none" stroke="#D1D3D4" stroke-width="0.227" stroke-miterlimit="10" x1="87.085" y1="77.397" x2="89.335" y2="75.406"/>
	
		<line display="inline" fill="none" stroke="#D1D3D4" stroke-width="0.227" stroke-miterlimit="10" x1="89.585" y1="65.656" x2="87.335" y2="63.906"/>
	<ellipse display="inline" fill="#D1D3D4" cx="94.331" cy="70.625" rx="0.746" ry="0.531"/>
	<path display="inline" fill="none" stroke="#FFFFFF" stroke-width="0.25" stroke-miterlimit="10" d="M168.835,124l9.665-50
		c8-30.5-12-39.739-12-39.739L38.664,34.5C8,35.5,18.659,78,18.659,78l8.841,46.333l-9.167,15.334c0,0-5.758,15.583,2.621,24.083
		h157.712c0,0,7.667-9.75-1.085-23.667L168.835,124z"/>
	
		<line display="inline" fill="none" stroke="#D1D3D4" stroke-width="0.2618" stroke-miterlimit="10" x1="26" y1="43.5" x2="173" y2="43.5"/>
	
		<line display="inline" fill="none" stroke="#D1D3D4" stroke-width="0.25" stroke-miterlimit="10" x1="36.414" y1="34.5" x2="36.414" y2="43.5"/>
	
		<line display="inline" fill="none" stroke="#D1D3D4" stroke-width="0.25" stroke-miterlimit="10" x1="164.5" y1="34.5" x2="164.5" y2="43.5"/>
	<path display="inline" fill="none" stroke="#D1D3D4" stroke-width="0.2618" stroke-miterlimit="10" d="M175.832,41
		c0,0,6.668-2,9.168,5.5c0,0,3,4.313,0,15.406c0,0-0.723,3.406-4.611,3.75"/>
	<path display="inline" fill="none" stroke="#D1D3D4" stroke-width="0.2618" stroke-miterlimit="10" d="M185,46.5
		c-0.656-12.638,2.918-27,2.918-27s-4.252-8-6.835,0c0,0,2.017,12.948,0,22.007"/>
	<path display="inline" fill="none" stroke="#D1D3D4" stroke-width="0.2618" stroke-miterlimit="10" d="M51.5,43.5
		c-0.5-10.833-6.21-14.25-6.21-14.25S39.333,25,33.5,29.75c-5.659,4.148-8,9.75-8,9.75S20,55.392,32,91.946c0,0,2.049,4.447,3.524,0
		c0,0-12.624-36.68-6.314-52.353c0,0,9.57-14.318,15.29-5.333c0,0,3.58,3.406,3.04,9.239C47.54,43.5,50,43.5,51.5,43.5z"/>
	<path display="inline" fill="none" stroke="#D1D3D4" stroke-width="0.2618" stroke-miterlimit="10" d="M145.742,43.445
		c0.5-10.833,6.21-14.25,6.21-14.25s5.956-4.25,11.79,0.5c5.658,4.148,8,9.75,8,9.75s5.5,15.892-6.5,52.446c0,0-2.049,4.446-3.524,0
		c0,0,12.624-36.68,6.314-52.353c0,0-9.569-14.318-15.29-5.333c0,0-3.58,3.406-3.04,9.239
		C149.702,43.445,147.242,43.445,145.742,43.445z"/>
	<path display="inline" fill="none" stroke="#D1D3D4" stroke-width="0.2618" stroke-miterlimit="10" d="M144.264,67.515
		c-2.604-4.699-8.771-0.771-13.164,2.985h-16.463c0,0-6,13.839,12,15.497c0,0,16.59,0.682,15.008-11.539
		C147.214,72.209,144.264,67.515,144.264,67.515z"/>
	<path display="inline" fill="none" stroke="#D1D3D4" stroke-width="0.2618" stroke-miterlimit="10" d="M74.5,69.75H57.953
		c-4.394-3.756-10.559-7.684-13.165-2.985c0,0-3.017,4.793,2.792,7.013c-0.323,4.224,1.271,10.396,12.92,11.469
		C60.5,85.247,80.5,86.076,74.5,69.75z"/>
	<path display="inline" fill="none" stroke="#D1D3D4" stroke-width="0.2618" stroke-miterlimit="10" d="M131.369,70.917
		c0,0,3.584,4.416,10.273,3.542"/>
	<path display="inline" fill="none" stroke="#D1D3D4" stroke-width="0.2618" stroke-miterlimit="10" d="M47.58,73.778
		c0,0,7.198-2.028,11.101-4.111"/>
	<polyline display="inline" fill="none" stroke="#D1D3D4" stroke-width="0.25" stroke-miterlimit="10" points="46.5,126.891 
		29,126.917 21.667,139.333 173.959,139.333 167.25,126.691 137.1,126.805 	"/>
	<path display="inline" fill="none" stroke="#D1D3D4" stroke-width="0.1582" stroke-miterlimit="10" d="M173.959,133.012
		c0,0,4.374-1.096,4.041,6.571"/>
	<path display="inline" fill="none" stroke="#D1D3D4" stroke-width="0.2618" stroke-miterlimit="10" d="M24.242,39.937
		c0,0,4.758-9.602,1.758-12.436h-4.333v-2.834L36.918,20H166l12.02,7.446v3.776l-4.061-1.253c0,0-3.438,0.278-2.217,9.476"/>
	<polyline display="inline" fill="none" stroke="#D1D3D4" stroke-width="0.2618" stroke-miterlimit="10" points="26,27.501 
		36.918,24 159.371,24 164.5,24 173.959,29.969 	"/>
	
		<line display="inline" fill="none" stroke="#D1D3D4" stroke-width="0.2618" stroke-miterlimit="10" x1="159.371" y1="26.984" x2="159.371" y2="24"/>
	
		<line display="inline" fill="none" stroke="#D1D3D4" stroke-width="0.2618" stroke-miterlimit="10" x1="162.215" y1="24" x2="162.215" y2="28.651"/>
	<path display="inline" fill="none" stroke="#D1D3D4" stroke-width="0.2618" stroke-miterlimit="10" d="M171.87,28.651
		c0,0-2.937,0.333-3.388,5.61"/>
	<path display="inline" fill="none" stroke="#D1D3D4" stroke-width="0.2618" stroke-miterlimit="10" d="M29.831,26.325
		c0,0,1.633,2.727,0,6.734"/>
	
		<line display="inline" fill="none" stroke="#D1D3D4" stroke-width="0.2618" stroke-miterlimit="10" x1="39.667" y1="24" x2="39.667" y2="26.984"/>
	
		<line display="inline" fill="none" stroke="#D1D3D4" stroke-width="0.2618" stroke-miterlimit="10" x1="43.068" y1="24" x2="43.068" y2="27.501"/>
	<path display="inline" fill="none" stroke="#D1D3D4" stroke-width="0.2618" stroke-miterlimit="10" d="M39.667,31.456"/>
	<path display="inline" fill="none" stroke="#D1D3D4" stroke-width="0.25" stroke-miterlimit="10" d="M109.139,134.018
		c0,0.277-0.209,0.502-0.465,0.502H83.057c0,0,0.034-0.225,0.034-0.502l0,0c0-0.277,0.216-0.504,0.216-0.504h25.367
		C108.93,133.514,109.139,133.739,109.139,134.018L109.139,134.018z"/>
	<path display="inline" fill="none" stroke="#D1D3D4" stroke-width="0.25" stroke-miterlimit="10" d="M109.139,137.021
		c0,0.277-0.208,0.502-0.463,0.502H81.928l0.287-0.502l0,0l0.213-0.504h26.248C108.931,136.518,109.139,136.742,109.139,137.021
		L109.139,137.021z"/>
	
		<line display="inline" fill="none" stroke="#D1D3D4" stroke-width="0.2618" stroke-miterlimit="10" x1="39.667" y1="34.261" x2="39.667" y2="31.456"/>
	
		<line display="inline" fill="none" stroke="#D1D3D4" stroke-width="0.2618" stroke-miterlimit="10" x1="43.068" y1="34.261" x2="43.068" y2="32.541"/>
	
		<line display="inline" fill="none" stroke="#D1D3D4" stroke-width="0.2618" stroke-miterlimit="10" x1="158.807" y1="31.456" x2="158.807" y2="34.261"/>
	
		<line display="inline" fill="none" stroke="#D1D3D4" stroke-width="0.2618" stroke-miterlimit="10" x1="95.077" y1="24" x2="95.077" y2="34.395"/>
	
		<line display="inline" fill="none" stroke="#D1D3D4" stroke-width="0.2618" stroke-miterlimit="10" x1="98.428" y1="24" x2="98.428" y2="34.261"/>
	<path display="inline" fill="none" stroke="#D1D3D4" stroke-width="0.1582" stroke-miterlimit="10" d="M27.159,163.75l3.397,9.583
		c0,0,2.444,3.167,3.111-9.583"/>
	<path display="inline" fill="none" stroke="#D1D3D4" stroke-width="0.1582" stroke-miterlimit="10" d="M171.736,163.75
		l-3.396,9.583c0,0-2.443,3.167-3.109-9.583"/>
	<path display="inline" fill="none" stroke="#D1D3D4" stroke-width="0.25" stroke-miterlimit="10" d="M45.655,128.497L45.604,129
		H30.652c-0.166,0-0.3-0.225-0.3-0.503l0,0c0-0.278,0.135-0.503,0.3-0.503h15.203L45.655,128.497L45.655,128.497z"/>
	<path display="inline" fill="none" stroke="#D1D3D4" stroke-width="0.25" stroke-miterlimit="10" d="M45.291,130.941l-0.053,0.502
		H29.167c-0.167,0-0.303-0.226-0.303-0.502l0,0c0-0.277,0.135-0.504,0.303-0.504h16.071L45.291,130.941L45.291,130.941z"/>
	<path display="inline" fill="none" stroke="#D1D3D4" stroke-width="0.25" stroke-miterlimit="10" d="M45.394,133.516l0.007,0.502
		H27.902c-0.263,0-0.476-0.225-0.476-0.502l0,0c0-0.279,0.213-0.504,0.476-0.504h17.002l0.486,0.254L45.394,133.516z"/>
	<path display="inline" fill="none" stroke="#D1D3D4" stroke-width="0.25" stroke-miterlimit="10" d="M45.883,136.27
		c0,0.278,0.524,0.729,0.387,0.504s-20.303,0-20.303,0c-0.2,0-0.363-0.226-0.363-0.504l0,0c0-0.276,0.163-0.502,0.363-0.502h19.553
		C45.72,135.768,45.883,135.992,45.883,136.27L45.883,136.27z"/>
	<path display="inline" fill="none" stroke="#D1D3D4" stroke-width="0.25" stroke-miterlimit="10" d="M109.139,128.5
		c0,0.277-0.213,0.503-0.474,0.503H83.076c-0.262,0-0.475-0.253-0.475-0.253l-0.25-0.5l-0.025-0.253h26.339
		C108.926,127.997,109.139,128.223,109.139,128.5L109.139,128.5z"/>
	<path display="inline" fill="none" stroke="#D1D3D4" stroke-width="0.25" stroke-miterlimit="10" d="M166.45,128.503
		c0,0.278-0.226,0.503-0.503,0.503h-27.118c-0.278,0-0.503-0.225-0.503-0.503l0,0c0-0.278,0.225-0.503,0.503-0.503h27.118
		C166.225,128,166.45,128.225,166.45,128.503L166.45,128.503z"/>
	<path display="inline" fill="none" stroke="#D1D3D4" stroke-width="0.25" stroke-miterlimit="10" d="M167.376,130.939
		c0,0.276-0.226,0.502-0.503,0.502h-27.118c-0.278,0-0.503-0.226-0.503-0.502l0,0c0-0.277,0.225-0.504,0.503-0.504h27.118
		C167.15,130.436,167.376,130.662,167.376,130.939L167.376,130.939z"/>
	<path display="inline" fill="none" stroke="#D1D3D4" stroke-width="0.25" stroke-miterlimit="10" d="M168.768,133.764
		c0,0.277-0.226,0.502-0.502,0.502h-27.119c-0.277,0-0.502-0.225-0.502-0.502l0,0c0-0.279,0.225-0.504,0.502-0.504h27.119
		C168.542,133.26,168.768,133.484,168.768,133.764L168.768,133.764z"/>
	<path display="inline" fill="none" stroke="#D1D3D4" stroke-width="0.25" stroke-miterlimit="10" d="M170.382,136.771
		c0,0.278-0.226,0.504-0.503,0.504h-27.117c-0.279,0-0.504-0.226-0.504-0.504l0,0c0-0.276,0.225-0.502,0.504-0.502h27.117
		C170.156,136.27,170.382,136.495,170.382,136.771L170.382,136.771z"/>
	<path display="inline" fill="none" stroke="#FFFFFF" stroke-width="0.25" stroke-miterlimit="10" d="M73.247,119.525
		c7.376,0.69,12.98,2.181,12.98,3.907c0,1.177-2.373,2.244-6.22,3.022c-3.946,0.8-9.443,1.295-15.524,1.295
		c-12.009,0-21.745-1.933-21.745-4.317s9.735-4.317,21.745-4.317c1.726,0,3.405,0.041,5.015,0.115"/>
	<path display="inline" fill="none" stroke="#FFFFFF" stroke-width="0.25" stroke-miterlimit="10" d="M44.286,123.433
		c0,0,17.357,6.433,39.732,0"/>
	
		<rect x="52.5" y="129.25" display="inline" fill="none" stroke="#FFFFFF" stroke-width="0.25" stroke-miterlimit="10" width="24.123" height="8.018"/>
	
		<rect x="45.146" y="50.805" display="inline" fill="none" stroke="#FFFFFF" stroke-width="0.25" stroke-miterlimit="10" width="29.083" height="10.656"/>
	
		<rect x="113.926" y="50.805" display="inline" fill="none" stroke="#FFFFFF" stroke-width="0.25" stroke-miterlimit="10" width="29.082" height="10.656"/>
	<g display="inline">
		<path fill="#FFFFFF" stroke="#000000" stroke-width="0.593" stroke-miterlimit="10" d="M56.777,111.495"/>
		<path fill="#FFFFFF" d="M67.095,107.495L67.095,107.495h-8.933v0.878c0,0.849,0.045,1.68,0.127,2.491c0-0.001,0-0.002-0.001-0.004
			c-1.126-0.271-1.748-0.533-2.74,0c-0.992,0.534-2.254,3.567-0.001,6.168c1.263,1.3,3.416,1.735,4.29,0c0-0.001,0-0.002,0-0.003
			c1.617,3.752,4.256,6.242,7.26,6.393v0.023c0.048,0,0.094-0.011,0.142-0.012c0.048,0.001,0.094,0.012,0.141,0.012v-0.023
			c4.962-0.246,8.935-6.872,8.935-15.045v-0.878H67.095z M58.345,115.957c-0.508,0.357-1.785,0.006-2.131-1.208
			c-0.347-1.217,0.401-2.519,1.103-2.498C58.35,112.268,58.856,115.598,58.345,115.957z M60.339,108.741c0,0,8.061,1.517,13.873,0
			l0,0.35C74.212,109.091,67.251,112.587,60.339,108.741z M74.136,113.67c0,0-0.074,4.024-5.479,7.15c0,0,4.859-4.824,3.9-7.8
			C74.369,110.953,74.443,112.539,74.136,113.67z"/>
	</g>
	<path display="inline" fill="none" stroke="#FFFFFF" stroke-width="0.25" stroke-miterlimit="10" d="M80.821,126.554
		c1.683,0.935,2.393,2.776,2.393,5.829l0,0c0,3.839-1.915,6.95-4.277,6.95H49.586c-2.362,0-4.277-3.111-4.277-6.95l0,0
		c0-2.847,0.415-4.868,1.824-5.876c0.119-0.086,0.245-0.164,0.379-0.235"/>
	<g display="inline">
		
			<ellipse transform="matrix(-0.0884 -0.9961 0.9961 -0.0884 -55.8181 201.7901)" fill="none" stroke="#D1D3D4" stroke-width="0.75" stroke-miterlimit="10" cx="64.43" cy="126.438" rx="4.5" ry="5"/>
		<path fill="none" stroke="#D1D3D4" stroke-width="0.75" stroke-miterlimit="10" d="M56.374,92.211c0,0,4.08-4.934,9.961-0.883
			l2.919,32.924c0,0-5.101-6.575-9.961,0.883L56.374,92.211z"/>
	</g>
	
		<line display="inline" fill="none" stroke="#FFFFFF" stroke-width="0.25" stroke-miterlimit="10" x1="73.816" y1="114.934" x2="125.871" y2="114.934"/>
	<polyline display="inline" fill="none" stroke="#FFFFFF" stroke-width="0.25" stroke-miterlimit="10" points="42.876,123.798 
		27.905,123.798 25.905,114.934 56.399,114.934 	"/>
	<polyline display="inline" fill="none" stroke="#FFFFFF" stroke-width="0.25" stroke-miterlimit="10" points="135.996,115.184 
		170.451,115.184 168.201,124.048 137.226,124.048 	"/>
	<polygon display="inline" fill="#FFFFFF" points="105.663,114.934 92.941,123.798 99.879,123.798 111.399,114.934 	"/>
	<polyline display="inline" fill="#FFFFFF" points="124.121,114.935 118.385,114.935 105.663,123.798 	"/>
	
		<line display="inline" fill="none" stroke="#FFFFFF" stroke-width="0.25" stroke-miterlimit="10" x1="126.932" y1="123.612" x2="86.367" y2="123.612"/>
	
		<ellipse display="inline" fill="none" stroke="#FFFFFF" stroke-width="0.25" stroke-miterlimit="10" cx="48.915" cy="130.723" rx="1.335" ry="1.471"/>
	
		<ellipse display="inline" fill="none" stroke="#FFFFFF" stroke-width="0.25" stroke-miterlimit="10" cx="48.915" cy="135.223" rx="1.335" ry="1.471"/>
</g>
<g id="Layer_3" display="none">
	<polygon display="inline" fill="#FFFFFF" stroke="#D1D3D4" stroke-width="0.411" stroke-miterlimit="10" points="94.524,61.262 
		93.646,70.969 94.524,70.969 	"/>
</g>
<g id="Layer_4">
	<path fill="#FFFFFF" d="M69.454,95.661c0,0,2.081,4.022,0,4.403C69.454,100.064,67.251,99.858,69.454,95.661z"/>
</g>
</svg>
